<?xml version="1.0" standalone="no"?>
<!DOCTYPE svg PUBLIC "-//W3C//DTD SVG 1.1//EN" "http://www.w3.org/Graphics/SVG/1.1/DTD/svg11.dtd" >
<svg xmlns="http://www.w3.org/2000/svg" xmlns:xlink="http://www.w3.org/1999/xlink" version="1.1">
<metadata>
Created by FontForge 20170731 at Fri Jul 14 02:03:09 2017
 By ,,,
(c) 2015-2017 Apple Inc. All rights reserved.
</metadata>
<defs>
<font id=".SFNSDisplayCondensed-Ultralight" horiz-adv-x="0" >
  <font-face 
    font-family=".SF NS Display Condensed"
    font-weight="400"
    font-stretch="normal"
    units-per-em="2048"
    panose-1="0 0 0 0 0 0 0 0 0 0"
    ascent="1638"
    descent="-410"
    x-height="1053"
    cap-height="1443"
    bbox="-412 -494 2110 2090"
    underline-thickness="119"
    underline-position="-549"
    unicode-range="U+0020-FB02"
  />
<missing-glyph horiz-adv-x="1809" 
d="M93 -494v354h1623v-354h-1623zM93 -76v354h1623v-354h-1623zM93 342v354h1623v-354h-1623zM93 760v354h1623v-354h-1623zM93 1178v354h1623v-354h-1623zM93 1596v354h1623v-354h-1623z" />
    <glyph glyph-name=".notdef" horiz-adv-x="1809" 
d="M93 -494v354h1623v-354h-1623zM93 -76v354h1623v-354h-1623zM93 342v354h1623v-354h-1623zM93 760v354h1623v-354h-1623zM93 1178v354h1623v-354h-1623zM93 1596v354h1623v-354h-1623z" />
    <glyph glyph-name="glyph1" 
 />
    <glyph glyph-name="nonmarkingreturn" 
 />
    <glyph glyph-name="space" unicode=" " horiz-adv-x="384" 
 />
    <glyph glyph-name="exclam" unicode="!" horiz-adv-x="452" 
d="M199 1443h54l-2 -1032h-50zM226 -8q-21 0 -36 15t-15 36t15 36t36 15q22 0 37 -15t15 -36t-15 -36t-37 -15z" />
    <glyph glyph-name="quotedbl" unicode="&#x22;" horiz-adv-x="446" 
d="M135 998h-47v445h47v-445zM358 998h-47v445h47v-445z" />
    <glyph glyph-name="numbersign" unicode="#" horiz-adv-x="1081" 
d="M581 0l82 451h-365l-82 -451h-47l83 451h-237l8 45h238l79 456h-243l8 45h244l82 453h46l-82 -453h365l82 453h47l-82 -453h260l-9 -45h-259l-79 -456h264l-9 -45h-264l-83 -451h-47zM308 496h365l79 456h-365z" />
    <glyph glyph-name="dollar" unicode="$" horiz-adv-x="1038" 
d="M538 -177h-42v164q-182 7 -298.5 120t-121.5 293h48q7 -156 111 -257t261 -109v690l-13 7q-208 67 -291.5 148.5t-83.5 223.5q0 150 108 248.5t280 104.5v140h42v-140q168 -8 276 -110.5t112 -260.5h-49q-6 136 -101 226.5t-238 97.5v-648l20 -11q217 -67 305 -154
t88 -236q0 -157 -114.5 -261.5t-298.5 -111.5v-164zM902 358q0 135 -81.5 212t-282.5 140v-676q158 5 261 97.5t103 226.5zM157 1104q0 -118 74.5 -192t264.5 -136v634q-150 -5 -244.5 -90.5t-94.5 -215.5z" />
    <glyph glyph-name="percent" unicode="%" horiz-adv-x="1310" 
d="M270 776q-101 0 -158 89.5t-57 249.5q0 159 57 248.5t158 89.5q102 0 158.5 -89.5t56.5 -248.5q0 -160 -56.5 -249.5t-158.5 -89.5zM270 817q81 0 126 78.5t45 219.5q0 140 -45 218.5t-126 78.5t-125.5 -78.5t-44.5 -218.5q0 -141 44.5 -219.5t125.5 -78.5zM265 0h-51
l428 744l402 699h52l-416 -721zM1040 -10q-101 0 -158 89.5t-57 249.5q0 159 57 248.5t158 89.5q102 0 158.5 -89.5t56.5 -248.5q0 -160 -56.5 -249.5t-158.5 -89.5zM1040 31q81 0 125.5 78.5t44.5 219.5t-44.5 219t-125.5 78t-126 -78.5t-45 -218.5q0 -141 45 -219.5
t126 -78.5z" />
    <glyph glyph-name="ampersand" unicode="&#x26;" horiz-adv-x="1187" 
d="M444 815q153 89 222 172.5t69 179.5q0 107 -67.5 178.5t-169.5 71.5q-101 0 -172 -73.5t-71 -175.5q0 -76 38.5 -148t150.5 -205zM430 756l-94 -58q-113 -73 -165.5 -155.5t-52.5 -182.5q0 -144 93.5 -239t245.5 -95q111 0 219.5 59.5t177.5 155.5zM1061 0l-174 207
q-79 -106 -193.5 -166.5t-238.5 -60.5q-173 0 -279.5 106t-106.5 275q0 114 57 203.5t183 170.5q1 1 46.5 29t46.5 28q-115 136 -155 213.5t-40 162.5q0 125 83.5 209.5t208.5 84.5t204.5 -82.5t79.5 -211.5q0 -108 -72 -197t-240 -189l412 -498q53 96 83.5 214.5
t30.5 230.5v72h48v-75q0 -120 -35.5 -249t-94.5 -229l209 -248h-63z" />
    <glyph glyph-name="quotesingle" unicode="'" horiz-adv-x="223" 
d="M135 998h-47v445h47v-445z" />
    <glyph glyph-name="parenleft" unicode="(" horiz-adv-x="493" 
d="M160 581q0 529 233 862h51q-112 -166 -173.5 -390.5t-61.5 -471.5q0 -246 61.5 -471t172.5 -392h-51q-232 334 -232 863z" />
    <glyph glyph-name="parenright" unicode=")" horiz-adv-x="493" 
d="M333 581q0 -261 -60 -481t-173 -382h-51q110 166 172 390t62 473t-62 473.5t-172 388.5h51q233 -336 233 -862z" />
    <glyph glyph-name="asterisk" unicode="*" horiz-adv-x="803" 
d="M619 982l-199 139l2 -256h-41l2 256l-199 -139l-21 33l200 139l-199 139l21 33l197 -138l-1 255h41l-1 -255l196 138l22 -33l-200 -139l201 -139z" />
    <glyph glyph-name="plus" unicode="+" horiz-adv-x="1038" 
d="M543 554v-479h-48v479h-378v47h378v473h48v-473h377v-47h-377z" />
    <glyph glyph-name="comma" unicode="," horiz-adv-x="441" 
d="M168 -238h-40l75 412h54z" />
    <glyph glyph-name="hyphen" unicode="-" horiz-adv-x="783" 
d="M683 556h-584v47h584v-47z" />
    <glyph glyph-name="hyphen" unicode="&#x2011;" horiz-adv-x="783" 
d="M683 556h-584v47h584v-47z" />
    <glyph glyph-name="period" unicode="." horiz-adv-x="441" 
d="M221 -8q-21 0 -36 15t-15 36t14.5 36t36.5 15q21 0 36 -15t15 -36t-15 -36t-36 -15z" />
    <glyph glyph-name="slash" unicode="/" horiz-adv-x="480" 
d="M47 -310h-47l433 1753h47z" />
    <glyph glyph-name="zero" unicode="0" horiz-adv-x="1046" 
d="M523 -20q-208 0 -325 197.5t-117 544.5q0 346 117 543.5t325 197.5q209 0 326 -197t117 -544t-117 -544.5t-326 -197.5zM523 26q185 0 289 185.5t104 510.5q0 324 -104 509.5t-289 185.5t-289 -185.5t-104 -509.5q0 -325 104 -510.5t289 -185.5z" />
    <glyph glyph-name="one" unicode="1" horiz-adv-x="670" 
d="M425 0v1384h-2q-30 -19 -168.5 -117.5t-179.5 -124.5v57q34 22 169 119t180 125h50v-1443h-49z" />
    <glyph glyph-name="two" unicode="2" horiz-adv-x="995" 
d="M161 1062h-49q4 178 110 289.5t272 111.5q164 0 268.5 -106.5t104.5 -270.5q0 -117 -59 -231.5t-222 -316.5l-401 -488v-4h735v-46h-804v41l434 527q157 195 212 302t55 216q0 144 -91 237.5t-232 93.5q-143 0 -236 -99t-97 -256z" />
    <glyph glyph-name="three" unicode="3" horiz-adv-x="1004" 
d="M340 728v46h136q150 0 246 90t96 234q0 139 -93 229t-236 90q-136 0 -229.5 -89t-100.5 -225h-49q8 158 114 259t265 101q166 0 272.5 -102t106.5 -261q0 -135 -73 -226.5t-198 -118.5v-4q147 -12 236 -108.5t89 -251.5q0 -181 -118 -296t-304 -115q-181 0 -299 107
t-120 270h48q2 -142 108.5 -236.5t263.5 -94.5q162 0 266.5 102.5t104.5 262.5t-105 248.5t-291 88.5h-136z" />
    <glyph glyph-name="four" unicode="4" horiz-adv-x="1036" 
d="M721 0v379h-656v47q274 477 636 1021h69v-1021h207v-47h-207v-379h-49zM123 428v-3h598v962h-1q-325 -485 -597 -959z" />
    <glyph glyph-name="five" unicode="5" horiz-adv-x="1026" 
d="M520 -20q-161 0 -275 102t-129 259h49q16 -137 116.5 -226t240.5 -89q164 0 270.5 122t106.5 310q0 185 -104.5 308.5t-262.5 123.5q-111 0 -200.5 -59.5t-143.5 -169.5h-52l76 782h654v-46h-611l-63 -653h2q53 91 143.5 141.5t197.5 50.5q180 0 297 -135.5t117 -342.5
q0 -209 -120.5 -343.5t-308.5 -134.5z" />
    <glyph glyph-name="six" unicode="6" horiz-adv-x="1032" 
d="M539 -20q-211 0 -329 174q-126 179 -126 526q0 364 122.5 573.5t337.5 209.5q153 0 257.5 -96t126.5 -255h-50q-20 136 -112.5 220.5t-222.5 84.5q-200 0 -307.5 -213t-102.5 -595h4q30 150 143.5 242.5t260.5 92.5q181 0 299.5 -135t118.5 -340q0 -212 -118.5 -350.5
t-301.5 -138.5zM539 26q160 0 265 126t105 316q0 185 -106 307.5t-266 122.5q-155 0 -266.5 -121.5t-111.5 -290.5q0 -198 108 -329t272 -131z" />
    <glyph glyph-name="seven" unicode="7" horiz-adv-x="957" 
d="M215 0l614 1395v2h-750v46h801v-50l-610 -1393h-55z" />
    <glyph glyph-name="eight" unicode="8" horiz-adv-x="1048" 
d="M523 -20q-197 0 -316.5 115t-119.5 300q0 142 83 243t219 128v2q-119 29 -188 115t-69 209q0 165 108 268t283 103q176 0 284 -103t108 -268q0 -118 -70 -206t-185 -118v-2q135 -27 217.5 -128t82.5 -243q0 -185 -119 -300t-318 -115zM523 26q177 0 282 103t105 266
q0 155 -105 250.5t-281 95.5t-281 -96t-105 -250q0 -163 104.5 -266t280.5 -103zM523 789q152 0 247 84t95 218q0 142 -93 234t-248 92t-248.5 -92t-93.5 -234q0 -134 95 -218t246 -84z" />
    <glyph glyph-name="nine" unicode="9" horiz-adv-x="1032" 
d="M898 835h-2q-30 -147 -145 -241.5t-260 -94.5q-183 0 -300.5 133.5t-117.5 337.5q0 215 118 354.5t302 139.5q203 0 321 -163q133 -177 133 -538q0 -365 -120.5 -574t-338.5 -209q-156 0 -260 96t-124 254h50q19 -136 109 -220t226 -84q131 0 223 93t138 258.5t49 393.5
q0 9 -0.5 31.5t-0.5 32.5zM494 546q102 0 189.5 56.5t138 151t50.5 203.5q0 197 -107.5 328.5t-271.5 131.5q-161 0 -266 -127t-105 -320q0 -181 104.5 -302.5t267.5 -121.5z" />
    <glyph glyph-name="colon" unicode=":" horiz-adv-x="441" 
d="M221 -8q-21 0 -36 15t-15 36t14.5 36t36.5 15q21 0 36 -15t15 -36t-15 -36t-36 -15zM221 808q-21 0 -36 15t-15 36q0 22 14.5 37t36.5 15q21 0 36 -15t15 -37q0 -21 -15 -36t-36 -15z" />
    <glyph glyph-name="semicolon" unicode=";" horiz-adv-x="441" 
d="M221 808q-21 0 -36 15t-15 36q0 22 14.5 37t36.5 15q21 0 36 -15t15 -37q0 -21 -15 -36t-36 -15zM168 -238h-40l75 412h54z" />
    <glyph glyph-name="less" unicode="&#x3c;" horiz-adv-x="1038" 
d="M902 1038l-706 -472v-5l706 -472v-59l-765 512v41l765 513v-58z" />
    <glyph glyph-name="equal" unicode="=" horiz-adv-x="1038" 
d="M919 352h-800v46h800v-46zM919 757h-800v46h800v-46z" />
    <glyph glyph-name="greater" unicode="&#x3e;" horiz-adv-x="1038" 
d="M136 1037v59l765 -512v-41l-765 -512v58l706 471v5z" />
    <glyph glyph-name="question" unicode="?" horiz-adv-x="815" 
d="M59 1105q9 160 102.5 258t238.5 98q149 0 243 -92.5t94 -239.5q0 -101 -43 -178t-146 -168q-92 -82 -123.5 -144t-31.5 -153v-89h-49v91q0 100 35.5 169t133.5 158q94 87 134 157.5t40 155.5q0 128 -81 207.5t-207 79.5q-121 0 -200.5 -83t-91.5 -227h-48zM371 -8
q-21 0 -36 15t-15 36t15 36t36 15q22 0 36.5 -15t14.5 -36t-15 -36t-36 -15z" />
    <glyph glyph-name="at" unicode="@" horiz-adv-x="1519" 
d="M754 975q-112 0 -183 -105.5t-71 -270.5q0 -166 70 -268.5t184 -102.5q112 0 177.5 103.5t65.5 280.5q0 170 -64.5 266.5t-178.5 96.5zM777 1438q207 0 366 -94.5t246 -266.5t87 -397q0 -240 -70 -370t-202 -130q-85 0 -138.5 54.5t-66.5 154.5h-4q-64 -206 -243 -206
q-137 0 -219 113.5t-82 302.5q0 191 82 306t218 115q89 0 154.5 -53t88.5 -145h4v176h46v-541q0 -110 42.5 -171.5t119.5 -61.5q108 0 165.5 118.5t57.5 338.5q0 320 -180.5 516.5t-473.5 196.5q-194 0 -347 -99.5t-238.5 -279t-85.5 -406.5q0 -359 184.5 -576t484.5 -217
q190 0 286 35v-46q-88 -33 -286 -33q-321 0 -518 229.5t-197 607.5q0 241 91 430t255 294t373 105z" />
    <glyph glyph-name="A" unicode="A" horiz-adv-x="1074" 
d="M994 0l-162 484h-591l-161 -484h-55l485 1443h53l485 -1443h-54zM534 1370l-278 -840h561l-279 840h-4z" />
    <glyph glyph-name="B" unicode="B" horiz-adv-x="1022" 
d="M518 0h-399v1443h390q177 0 285.5 -94t108.5 -253q0 -134 -74.5 -226t-198.5 -118v-5q147 -19 242 -113t95 -251q0 -176 -121 -279.5t-328 -103.5zM169 1397v-629h329q158 0 256.5 88.5t98.5 238.5q0 138 -96 220t-253 82h-335zM169 46h346q185 0 294 91.5t109 245.5
q0 158 -113 248.5t-306 90.5h-330v-676z" />
    <glyph glyph-name="C" unicode="C" horiz-adv-x="1124" 
d="M598 -20q-247 0 -388.5 201t-141.5 551q0 345 140.5 538t389.5 193q189 0 321.5 -137t149.5 -348h-48q-17 189 -136 314t-287 125q-225 0 -352.5 -182.5t-127.5 -502.5q0 -329 128 -517.5t352 -188.5q175 0 291 113.5t132 301.5h48q-16 -207 -144.5 -334t-326.5 -127z
" />
    <glyph glyph-name="D" unicode="D" horiz-adv-x="1148" 
d="M119 1443h353q292 0 449.5 -185.5t157.5 -535.5q0 -351 -157.5 -536.5t-449.5 -185.5h-353v1443zM169 1396v-1349h301q271 0 415 173.5t144 501.5t-144 501t-415 173h-301z" />
    <glyph glyph-name="E" unicode="E" horiz-adv-x="937" 
d="M847 46v-46h-728v1443h728v-46h-678v-633h647v-46h-647v-672h678z" />
    <glyph glyph-name="F" unicode="F" horiz-adv-x="901" 
d="M169 0h-50v1443h720v-46h-670v-635h617v-47h-617v-715z" />
    <glyph glyph-name="G" unicode="G" horiz-adv-x="1157" 
d="M1085 563q0 -274 -128 -428.5t-358 -154.5q-242 0 -386.5 205t-144.5 546q0 337 143.5 534.5t387.5 197.5q187 0 315 -115t163 -312h-49q-36 176 -150 278.5t-279 102.5q-221 0 -351 -186t-130 -500q0 -320 130.5 -512.5t350.5 -192.5q207 0 322 141.5t115 394.5v100
h-447v46h496v-145z" />
    <glyph glyph-name="H" unicode="H" horiz-adv-x="1154" 
d="M1035 0h-50v718h-816v-718h-50v1443h50v-678h816v678h50v-1443z" />
    <glyph glyph-name="I" unicode="I" horiz-adv-x="288" 
d="M169 0h-50v1443h50v-1443z" />
    <glyph glyph-name="J" unicode="J" horiz-adv-x="847" 
d="M42 317h49q6 -133 86 -212t207 -79q144 0 221 91.5t77 265.5v1060h50v-1064q0 -190 -91 -295t-257 -105q-148 0 -243 93t-99 245z" />
    <glyph glyph-name="K" unicode="K" horiz-adv-x="993" 
d="M169 0h-50v1443h50v-838h4l684 838h60l-520 -639l582 -804h-62l-554 764l-194 -238v-526z" />
    <glyph glyph-name="L" unicode="L" horiz-adv-x="882" 
d="M832 46v-46h-713v1443h50v-1397h663z" />
    <glyph glyph-name="M" unicode="M" horiz-adv-x="1408" 
d="M1289 0h-48v1341h-4l-505 -1341h-55l-506 1341h-4v-1341h-48v1443h63l521 -1376h3l518 1376h65v-1443z" />
    <glyph glyph-name="N" unicode="N" horiz-adv-x="1169" 
d="M167 0h-48v1443h60l818 -1351h5v1351h48v-1443h-54l-824 1358h-5v-1358z" />
    <glyph glyph-name="O" unicode="O" horiz-adv-x="1211" 
d="M605 1463q251 0 394 -196.5t143 -544.5t-142.5 -545t-394.5 -197q-251 0 -394 197t-143 545q0 347 143.5 544t393.5 197zM605 1417q-227 0 -357 -186t-130 -509t130.5 -509.5t356.5 -186.5t356.5 186.5t130.5 509.5t-130.5 509t-356.5 186z" />
    <glyph glyph-name="P" unicode="P" horiz-adv-x="974" 
d="M119 1443h377q196 0 311 -113t115 -308t-115 -308t-311 -113h-327v-601h-50v1443zM169 1397v-749h322q176 0 278.5 99.5t102.5 274.5t-102.5 275t-278.5 100h-322z" />
    <glyph glyph-name="Q" unicode="Q" horiz-adv-x="1211" 
d="M605 -20q-252 0 -394.5 197t-142.5 545q0 347 143.5 544t393.5 197q251 0 394 -196.5t143 -544.5q0 -230 -64.5 -397.5t-185.5 -256.5l154 -250h-54l-139 224q-110 -62 -248 -62zM605 27q123 0 222 57l-170 276h54l154 -248q111 83 169 239.5t58 370.5q0 322 -130.5 508
t-356.5 186t-356.5 -186t-130.5 -508t130.5 -508.5t356.5 -186.5z" />
    <glyph glyph-name="R" unicode="R" horiz-adv-x="1008" 
d="M169 1397v-714h332q176 0 274 95t98 265q0 171 -99.5 262.5t-278.5 91.5h-326zM169 637v-637h-50v1443h378q201 0 313.5 -104.5t112.5 -295.5q0 -160 -82.5 -264.5t-227.5 -131.5l341 -647h-56l-336 639q-11 -2 -51 -2h-342z" />
    <glyph glyph-name="S" unicode="S" horiz-adv-x="993" 
d="M58 398h49q7 -171 118 -271.5t288 -100.5q165 0 269 95t104 243q0 121 -71.5 197t-239.5 133l-140 46q-178 60 -260 144t-82 215q0 160 115 262t287 102q181 0 295.5 -103t120.5 -274h-48q-7 151 -108 241t-260 90q-151 0 -251.5 -88.5t-100.5 -229.5q0 -114 75 -187
t237 -128l138 -45q182 -62 262.5 -149t80.5 -225q0 -169 -118 -277t-307 -108q-199 0 -322.5 112.5t-130.5 305.5z" />
    <glyph glyph-name="T" unicode="T" horiz-adv-x="999" 
d="M525 0h-50v1397h-454v46h958v-46h-454v-1397z" />
    <glyph glyph-name="U" unicode="U" horiz-adv-x="1146" 
d="M165 1443v-950q0 -221 108 -344t300 -123t300 123t108 344v950h50v-951q0 -240 -121 -376t-337 -136t-336.5 136t-120.5 376v951h49z" />
    <glyph glyph-name="V" unicode="V" horiz-adv-x="1066" 
d="M561 0h-56l-481 1443h52l455 -1372h5l454 1372h52z" />
    <glyph glyph-name="W" unicode="W" horiz-adv-x="1574" 
d="M784 1351l-343 -1351h-52l-348 1443h51l323 -1355h4l341 1355h52l342 -1355h4l324 1355h51l-349 -1443h-53l-343 1351h-4z" />
    <glyph glyph-name="X" unicode="X" horiz-adv-x="1052" 
d="M39 0l458 722v1l-457 720h57l430 -676l429 676h56l-456 -722l455 -721h-57l-428 676h-1l-430 -676h-56z" />
    <glyph glyph-name="Y" unicode="Y" horiz-adv-x="1024" 
d="M538 0h-50v631l-464 812h58l429 -755h4l428 755h56l-461 -812v-631z" />
    <glyph glyph-name="Z" unicode="Z" horiz-adv-x="1026" 
d="M64 0v39l835 1357v1h-810v46h871v-40l-834 -1356v-1h836v-46h-898z" />
    <glyph glyph-name="bracketleft" unicode="[" horiz-adv-x="494" 
d="M166 1443h297v-45h-249v-1630h252v-44h-300v1719z" />
    <glyph glyph-name="backslash" unicode="\" horiz-adv-x="480" 
d="M432 -310l-432 1753h48l432 -1753h-48z" />
    <glyph glyph-name="bracketright" unicode="]" horiz-adv-x="494" 
d="M329 1443v-1719h-301v44h252v1630h-249v45h298z" />
    <glyph glyph-name="asciicircum" unicode="^" horiz-adv-x="650" 
d="M323 1360l-190 -438h-50l220 500h44l219 -500h-51l-189 438h-3z" />
    <glyph glyph-name="underscore" unicode="_" horiz-adv-x="705" 
d="M762 -196h-819v44h819v-44z" />
    <glyph glyph-name="grave" unicode="`" horiz-adv-x="614" 
d="M454 1237h-51l-204 302h56z" />
    <glyph glyph-name="a" unicode="a" horiz-adv-x="884" 
d="M393 30q140 0 238.5 97.5t98.5 235.5v205l-289 -31q-157 -21 -235.5 -84.5t-78.5 -179.5q0 -110 76.5 -176.5t189.5 -66.5zM388 -15q-136 0 -223 78.5t-87 208.5q0 136 88 210t266 98l298 31v111q0 145 -72.5 223t-200.5 78t-206 -69t-93 -205h-47q13 153 105 236t242 83
t235 -90t85 -253v-725h-48v211h-2q-33 -99 -126.5 -162.5t-213.5 -63.5z" />
    <glyph glyph-name="b" unicode="b" horiz-adv-x="967" 
d="M517 -15q-127 0 -220 77.5t-128 216.5h-3v-279h-48v1443h49v-668h3q32 137 125.5 215t220.5 78q175 0 280 -145.5t105 -395.5t-105 -396t-279 -146zM511 1023q-152 0 -248 -133t-96 -364t96 -363.5t248 -132.5q155 0 248 135.5t93 361.5t-93 361t-248 135z" />
    <glyph glyph-name="c" unicode="c" horiz-adv-x="880" 
d="M821 743h-49q-22 126 -105.5 203t-204.5 77q-162 0 -254.5 -133t-92.5 -364t92 -363.5t255 -132.5q122 0 205 74t103 196h50q-22 -146 -118 -230.5t-240 -84.5q-186 0 -291.5 142.5t-105.5 398.5q0 255 106 398.5t291 143.5q143 0 240 -88.5t119 -236.5z" />
    <glyph glyph-name="d" unicode="d" horiz-adv-x="972" 
d="M455 -15q-177 0 -283.5 145.5t-106.5 396.5t106 396t283 145q130 0 224 -79.5t124 -213.5h3v668h49v-1443h-47v281h-2q-29 -131 -125.5 -213.5t-224.5 -82.5zM458 1023q-154 0 -248.5 -135t-94.5 -361t94.5 -361.5t248.5 -135.5q153 0 250 132.5t97 363.5
q0 232 -97 364.5t-250 132.5z" />
    <glyph glyph-name="e" unicode="e" horiz-adv-x="909" 
d="M460 1023q-151 0 -243 -122.5t-100 -332.5h678q0 206 -91.5 330.5t-243.5 124.5zM783 292h50q-24 -141 -120 -224t-246 -83q-188 0 -294 140t-106 401q0 252 106 397t287 145q176 0 280 -136.5t104 -369.5v-39h-728v-1q0 -236 94 -364t258 -128q129 0 211.5 72t103.5 190
z" />
    <glyph glyph-name="f" unicode="f" horiz-adv-x="461" 
d="M155 0v1007h-133v46h133v165q0 228 208 228q46 0 73 -10v-45q-31 9 -70 9q-79 0 -120.5 -44t-41.5 -144v-159h221v-46h-221v-1007h-49z" />
    <glyph glyph-name="g" unicode="g" horiz-adv-x="960" 
d="M455 35q153 0 248.5 131.5t95.5 361.5q0 231 -95.5 363t-248.5 132q-154 0 -247 -135.5t-93 -360.5q0 -224 93 -358t247 -134zM477 -360q-147 0 -242.5 69.5t-117.5 186.5h51q25 -97 105.5 -154t204.5 -57q149 0 235 88.5t86 252.5v255h-2q-30 -130 -123.5 -211
t-221.5 -81q-176 0 -281.5 144t-105.5 394q0 251 105.5 396t281.5 145q128 0 221.5 -80.5t125.5 -215.5h3v281h47v-1029q0 -185 -100.5 -284.5t-271.5 -99.5z" />
    <glyph glyph-name="h" unicode="h" horiz-adv-x="934" 
d="M118 0v1443h49v-608h3q29 104 117.5 168.5t206.5 64.5q155 0 246.5 -96.5t91.5 -265.5v-706h-49v703q0 150 -79.5 235t-216.5 85q-143 0 -231.5 -103.5t-88.5 -262.5v-657h-49z" />
    <glyph glyph-name="i" unicode="i" horiz-adv-x="284" 
d="M118 0v1053h49v-1053h-49zM142 1314q-20 0 -33.5 13.5t-13.5 33.5t13.5 33.5t33.5 13.5t34 -13.5t14 -33.5t-14 -33.5t-34 -13.5z" />
    <glyph glyph-name="j" unicode="j" horiz-adv-x="284" 
d="M142 1314q-20 0 -34 13.5t-14 33.5t14 33.5t34 13.5t34 -13.5t14 -33.5t-14 -33.5t-34 -13.5zM167 1053v-1150q0 -129 -56.5 -187t-172.5 -58h-28v45h25q96 0 139.5 47t43.5 152v1151h49z" />
    <glyph glyph-name="k" unicode="k" horiz-adv-x="799" 
d="M168 495l552 558h64l-443 -452l446 -601h-61l-423 568l-136 -137v-431h-49v1443h49v-948h1z" />
    <glyph glyph-name="l" unicode="l" horiz-adv-x="284" 
d="M118 0v1443h49v-1443h-49z" />
    <glyph glyph-name="m" unicode="m" horiz-adv-x="1441" 
d="M112 0v1053h46v-216h3q26 104 102 167.5t186 63.5q112 0 188 -66t97 -169h4q25 101 105 168t194 67q138 0 218.5 -92t80.5 -254v-722h-50v714q0 146 -68 227.5t-190 81.5q-127 0 -203.5 -98.5t-76.5 -253.5v-671h-49v712q0 144 -70 227.5t-187 83.5q-127 0 -204 -103.5
t-77 -270.5v-649h-49z" />
    <glyph glyph-name="n" unicode="n" horiz-adv-x="931" 
d="M112 0v1053h46v-218h3q30 104 118 168.5t206 64.5q156 0 248 -96.5t92 -265.5v-706h-49v703q0 151 -80.5 235.5t-217.5 84.5q-143 0 -230 -103t-87 -263v-657h-49z" />
    <glyph glyph-name="o" unicode="o" horiz-adv-x="938" 
d="M469 -15q-185 0 -293.5 143.5t-108.5 397.5q0 255 108.5 398.5t293.5 143.5t293.5 -143.5t108.5 -398.5q0 -254 -108.5 -397.5t-293.5 -143.5zM469 30q162 0 257.5 132.5t95.5 363.5t-95.5 364t-257.5 133t-257.5 -133t-95.5 -364t95.5 -363.5t257.5 -132.5z" />
    <glyph glyph-name="p" unicode="p" horiz-adv-x="960" 
d="M508 1068q176 0 281.5 -145t105.5 -396q0 -252 -105 -397t-282 -145q-128 0 -221 79.5t-124 212.5h-2v-613h-49v1389h47v-281h2q32 134 126 215t221 81zM505 30q155 0 248 135t93 361t-93 361.5t-248 135.5q-153 0 -248.5 -132.5t-95.5 -364.5t95.5 -364t248.5 -132z" />
    <glyph glyph-name="q" unicode="q" horiz-adv-x="966" 
d="M454 1068q129 0 224 -81t127 -215h2v281h47v-1389h-49v613h-3q-29 -132 -124 -212t-224 -80q-177 0 -283 145t-106 397q0 250 106.5 395.5t282.5 145.5zM458 30q153 0 250 132.5t97 363.5q0 232 -97 364.5t-250 132.5q-155 0 -249 -135.5t-94 -361.5q0 -225 94 -360.5
t249 -135.5z" />
    <glyph glyph-name="r" unicode="r" horiz-adv-x="541" 
d="M112 0v1053h46v-201h3q28 106 93 161t159 55q55 0 95 -20v-51q-42 24 -101 24q-115 0 -180.5 -101.5t-65.5 -265.5v-654h-49z" />
    <glyph glyph-name="s" unicode="s" horiz-adv-x="805" 
d="M89 796q0 121 88.5 196.5t225.5 75.5q145 0 231.5 -82.5t99.5 -235.5h-48q-14 132 -88 202.5t-196 70.5q-114 0 -189 -62.5t-75 -162.5q0 -85 55 -135.5t175 -86.5l115 -33q140 -42 202.5 -105t62.5 -172q0 -126 -94.5 -203.5t-241.5 -77.5q-152 0 -248.5 85.5
t-105.5 224.5h49q11 -120 94.5 -193t210.5 -73q125 0 206 64.5t81 169.5q0 92 -55.5 146.5t-176.5 89.5l-118 34q-133 38 -196.5 100t-63.5 163z" />
    <glyph glyph-name="t" unicode="t" horiz-adv-x="467" 
d="M162 1335h49v-282h194v-46h-194v-777q0 -100 33.5 -142.5t109.5 -42.5q66 0 68 1v-46l-71 -1q-101 0 -145 53t-44 178v777h-141v46h141v282z" />
    <glyph glyph-name="u" unicode="u" horiz-adv-x="930" 
d="M818 1053v-1053h-46v211h-3q-29 -100 -120.5 -163t-207.5 -63q-154 0 -244.5 92.5t-90.5 259.5v716h49v-711q0 -150 79 -231t214 -81q141 0 231 98.5t91 257.5v667h48z" />
    <glyph glyph-name="v" unicode="v" horiz-adv-x="788" 
d="M780 1053l-351 -1053h-70l-351 1053h52l333 -1006h2l333 1006h52z" />
    <glyph glyph-name="w" unicode="w" horiz-adv-x="1244" 
d="M1232 1053l-272 -1053h-69l-268 994h-2l-268 -994h-69l-272 1053h53l252 -999h2l270 999h67l269 -999h2l252 999h53z" />
    <glyph glyph-name="x" unicode="x" horiz-adv-x="775" 
d="M388 492h-2l-319 -492h-57l348 537l-347 516h59l317 -476h2l317 476h58l-347 -516l347 -537h-57z" />
    <glyph glyph-name="y" unicode="y" horiz-adv-x="785" 
d="M158 -346q-23 0 -47 8v46q20 -8 48 -8q63 0 102 43.5t77 155.5l29 79l-359 1075h53l331 -1000h2l330 1000h53l-367 -1105q-59 -173 -110 -233.5t-142 -60.5z" />
    <glyph glyph-name="z" unicode="z" horiz-adv-x="805" 
d="M58 0v45l631 960v2h-631v46h689v-45l-632 -960v-3h632v-45h-689z" />
    <glyph glyph-name="braceleft" unicode="{" horiz-adv-x="521" 
d="M91 603q96 -11 138 -63.5t42 -164.5v-380q0 -133 48 -192.5t147 -59.5h28v-45h-25q-134 0 -190 69.5t-56 236.5v336q0 127 -40 176.5t-142 49.5v91q101 0 141.5 50.5t40.5 178.5v280q0 164 55 230.5t191 66.5h25v-45h-28q-104 0 -149.5 -55.5t-45.5 -189.5v-322
q0 -112 -41.5 -165t-138.5 -64v-19z" />
    <glyph glyph-name="bar" unicode="|" horiz-adv-x="443" 
d="M245 -310h-47v1753h47v-1753z" />
    <glyph glyph-name="braceright" unicode="}" horiz-adv-x="521" 
d="M430 603v19q-97 11 -138.5 64t-41.5 165v322q0 134 -46 189.5t-150 55.5h-27v45h25q136 0 191 -66.5t55 -230.5v-280q0 -128 40 -178.5t141 -50.5v-91q-101 0 -141 -49.5t-40 -176.5v-336q0 -167 -56 -236.5t-190 -69.5h-25v45h27q100 0 148 59.5t48 192.5v380
q0 112 41.5 164.5t138.5 63.5z" />
    <glyph glyph-name="asciitilde" unicode="~" horiz-adv-x="1037" 
d="M709 474q-58 0 -103 29.5t-118 103.5q-61 61 -96 84.5t-75 23.5q-67 0 -106.5 -62.5t-40.5 -173.5h-47q0 121 50 202t146 81q53 0 94.5 -29t116.5 -105q57 -57 97.5 -82t83.5 -25q66 0 109.5 66.5t46.5 177.5h46q1 -118 -53.5 -204.5t-150.5 -86.5z" />
    <glyph glyph-name="nonbreakingspace" unicode="&#xa0;" horiz-adv-x="335" 
 />
    <glyph glyph-name="exclamdown" unicode="&#xa1;" horiz-adv-x="441" 
d="M194 -336l2 1032h50l1 -1032h-53zM221 1006q-21 0 -36 15t-15 36t15 36.5t36 15.5t36 -15.5t15 -36.5t-14.5 -36t-36.5 -15z" />
    <glyph glyph-name="cent" unicode="&#xa2;" horiz-adv-x="1038" 
d="M937 461q-20 -144 -124 -230.5t-249 -93.5v-225h-49v225q-185 9 -300 155.5t-115 398.5t115.5 399t299.5 155v207h49v-207q145 -7 249 -96t125 -236h-49q-23 132 -121 210t-230 78q-171 0 -279.5 -136.5t-108.5 -373.5t108 -373t280 -136q133 0 231 74.5t118 204.5h50z
" />
    <glyph glyph-name="sterling" unicode="&#xa3;" horiz-adv-x="1038" 
d="M160 46h828v-46h-936v48q71 21 125 48.5t100.5 69.5t71 102.5t24.5 137.5q0 108 -58 284h-227v45h212q-24 68 -37.5 114.5t-25.5 114t-12 130.5q0 173 102.5 274.5t290.5 101.5q94 0 170.5 -18t115.5 -41v-51q-41 27 -115.5 45.5t-167.5 18.5q-168 0 -257.5 -90
t-89.5 -241q0 -61 13 -130t25.5 -110t38.5 -118h410v-45h-395q55 -167 55 -284q0 -78 -23.5 -142t-64 -105t-82.5 -67t-91 -42v-4z" />
    <glyph glyph-name="currency" unicode="&#xa4;" horiz-adv-x="1038" 
d="M519 325q122 0 204.5 93.5t82.5 236.5q0 144 -82.5 237.5t-204.5 93.5q-121 0 -203.5 -93.5t-82.5 -237.5t82.5 -237t203.5 -93zM915 1070l-145 -161q82 -106 82 -254q0 -149 -84 -254l147 -161l-33 -32l-145 159q-91 -88 -218 -88q-125 0 -217 87l-146 -158l-34 32
l147 162q-83 104 -83 253q0 148 82 254l-146 161l34 32l144 -159q91 88 219 88q127 0 219 -87l144 158z" />
    <glyph glyph-name="yen" unicode="&#xa5;" horiz-adv-x="1038" 
d="M856 391h-311v-391h-50v391h-313v45h313v213h-313v45h291l-439 749h56l428 -733h4l427 733h56l-438 -749h289v-45h-311v-213h311v-45z" />
    <glyph glyph-name="brokenbar" unicode="&#xa6;" horiz-adv-x="443" 
d="M245 744h-47v699h47v-699zM245 -310h-47v695h47v-695z" />
    <glyph glyph-name="section" unicode="&#xa7;" horiz-adv-x="928" 
d="M428 339l64 -16q115 4 187 72.5t72 171.5q0 96 -59 156.5t-190 93.5l-65 17q-115 -4 -187 -73t-72 -172q0 -95 59 -155t191 -95zM470 -235q-138 0 -227 69.5t-100 191.5h49q13 -101 88 -158t191 -57q113 0 184.5 63t71.5 164q0 91 -55 146.5t-174 87.5l-84 21
q-149 40 -217 109.5t-68 181.5q0 104 64 176.5t172 93.5v3q-111 36 -161.5 98t-50.5 161q0 122 86 198.5t221 76.5q137 0 225 -69t100 -191h-48q-13 100 -88 156.5t-190 56.5q-113 0 -185 -62.5t-72 -162.5q0 -92 55 -147.5t175 -86.5l83 -22q149 -39 216.5 -109t67.5 -181
q0 -104 -64 -177t-173 -94v-4q112 -35 163 -97t51 -161q0 -121 -86 -198t-220 -77z" />
    <glyph glyph-name="dieresis" unicode="&#xa8;" horiz-adv-x="614" 
d="M182 1272q-21 0 -36 15t-15 36t15.5 36t35.5 15q21 0 36.5 -15t15.5 -36t-15.5 -36t-36.5 -15zM431 1272q-21 0 -36 14.5t-15 36.5q0 21 15 36t36 15t36 -15t15 -36q0 -22 -15 -36.5t-36 -14.5z" />
    <glyph glyph-name="copyright" unicode="&#xa9;" horiz-adv-x="1526" 
d="M763 -138q-190 0 -344 98t-242 273t-88 393q0 219 88 394t242 272.5t344 97.5q191 0 345 -97.5t241.5 -272.5t87.5 -394q0 -218 -87.5 -393t-241.5 -273t-345 -98zM763 -92q133 0 249 54t199 148t131 228t48 288q0 155 -48 289t-131 228t-199 147.5t-249 53.5
q-132 0 -248 -53.5t-199 -147.5t-131 -228t-48 -289q0 -154 48 -288t131 -228t199 -148t248 -54zM1067 803h-46q-23 97 -90.5 156t-172.5 59q-133 0 -215.5 -102.5t-82.5 -282.5q0 -182 82 -286.5t216 -104.5q109 0 175.5 56t85.5 148h47q-22 -114 -101.5 -181t-206.5 -67
q-154 0 -249.5 117t-95.5 318q0 200 95.5 314.5t249.5 114.5q124 0 206.5 -74.5t102.5 -184.5z" />
    <glyph glyph-name="a.sups" unicode="&#xaa;" horiz-adv-x="509" 
d="M232 899q70 0 116 48t46 118v108l-133 -13q-158 -21 -158 -137q0 -56 36.5 -90t92.5 -34zM224 862q-73 0 -119 43.5t-46 116.5q0 149 195 172l140 14v55q0 74 -34 112t-98 38q-129 0 -144 -137h-41q5 83 54.5 129.5t131.5 46.5q83 0 128.5 -48t45.5 -138v-396h-42v102h-1
q-18 -49 -65 -79.5t-105 -30.5z" />
    <glyph glyph-name="guillemotleft" unicode="&#xab;" horiz-adv-x="1010" 
d="M204 571v-6l324 -407h-61l-329 408v4l329 408h61zM548 571v-6l324 -407h-61l-329 408v4l329 408h61z" />
    <glyph glyph-name="logicalnot" unicode="&#xac;" horiz-adv-x="1038" 
d="M903 644v-518h-47v471h-721v47h768z" />
    <glyph glyph-name="registered" unicode="&#xae;" horiz-adv-x="948" 
d="M474 668q-157 0 -263 118t-106 293t106 292.5t263 117.5q158 0 264 -117.5t106 -292.5t-106.5 -293t-263.5 -118zM474 712q139 0 232.5 105t93.5 262t-93.5 262t-232.5 105t-232.5 -105t-93.5 -262t93.5 -262t232.5 -105zM373 869h-38v448h148q61 0 97.5 -36.5
t36.5 -98.5q0 -104 -98 -130l116 -183h-43l-114 178h-105v-178zM373 1280v-198h101q103 0 103 100q0 46 -28 72t-78 26h-98z" />
    <glyph glyph-name="macron" unicode="&#xaf;" horiz-adv-x="721" 
d="M576 1350v-43h-430v43h430z" />
    <glyph glyph-name="degree" unicode="&#xb0;" horiz-adv-x="645" 
d="M322 928q-93 0 -155.5 67t-62.5 171t62.5 171t155.5 67t155.5 -67t62.5 -171q0 -105 -62.5 -171.5t-155.5 -66.5zM322 973q75 0 124 53.5t49 139.5q0 87 -49 141t-124 54q-74 0 -123.5 -54t-49.5 -141q0 -86 49.5 -139.5t123.5 -53.5z" />
    <glyph glyph-name="plusminus" unicode="&#xb1;" horiz-adv-x="1038" 
d="M906 101h-774v46h774v-46zM542 676v-367h-46v367h-364v46h364v344h46v-344h364v-46h-364z" />
    <glyph glyph-name="two.sups" unicode="&#xb2;" horiz-adv-x="510" 
d="M109 1490h-43q2 83 54.5 136t134.5 53q80 0 131 -49.5t51 -125.5q0 -55 -28.5 -107t-108.5 -145l-173 -198v-2h331v-40h-389v33l203 235q72 85 96.5 130t24.5 92q0 60 -38.5 98.5t-99.5 38.5q-64 0 -104.5 -41.5t-41.5 -107.5z" />
    <glyph glyph-name="three.sups" unicode="&#xb3;" horiz-adv-x="522" 
d="M182 1334v38h68q66 0 106.5 37.5t40.5 97.5q0 59 -39 95.5t-103 36.5q-60 0 -100.5 -36.5t-43.5 -94.5h-43q4 76 56 123.5t132 47.5q82 0 133.5 -47t51.5 -120q0 -62 -34 -103t-94 -53v-2q70 -6 111 -49t41 -114q0 -84 -57.5 -136.5t-147.5 -52.5q-89 0 -146 49.5
t-59 127.5h43q1 -60 47 -98.5t115 -38.5q71 0 115.5 41.5t44.5 107.5q0 68 -44.5 105.5t-125.5 37.5h-68z" />
    <glyph glyph-name="acute" unicode="&#xb4;" horiz-adv-x="614" 
d="M210 1237h-50l199 302h57z" />
    <glyph glyph-name="mugreek" unicode="&#xb5;" horiz-adv-x="1028" 
d="M112 -336v1389h49v-704q0 -151 74.5 -235t214.5 -84q147 0 233 104t86 257v662h50v-872q0 -78 23.5 -112t75.5 -34q33 0 57 9l6 -45q-27 -10 -68 -10q-71 0 -106 42t-36 135q0 43 -1 44h-2q-33 -103 -119 -164t-200 -61q-110 0 -185.5 48.5t-100.5 133.5h-2v-503h-49z
" />
    <glyph glyph-name="mugreek" unicode="&#x3bc;" horiz-adv-x="1028" 
d="M112 -336v1389h49v-704q0 -151 74.5 -235t214.5 -84q147 0 233 104t86 257v662h50v-872q0 -78 23.5 -112t75.5 -34q33 0 57 9l6 -45q-27 -10 -68 -10q-71 0 -106 42t-36 135q0 43 -1 44h-2q-33 -103 -119 -164t-200 -61q-110 0 -185.5 48.5t-100.5 133.5h-2v-503h-49z
" />
    <glyph glyph-name="paragraph" unicode="&#xb6;" horiz-adv-x="928" 
d="M569 -145h-48l-1 902h-14q-155 0 -254.5 96t-99.5 245q0 157 96.5 251t258.5 94h62v-1588zM728 -145v1588h48v-1588h-48z" />
    <glyph glyph-name="periodcentered" unicode="&#xb7;" horiz-adv-x="441" 
d="M221 521q-23 0 -39 16.5t-16 38.5t16 38t39 16q22 0 38 -16t16 -38q0 -23 -16 -39t-38 -16z" />
    <glyph glyph-name="cedilla" unicode="&#xb8;" horiz-adv-x="614" 
d="M216 -177v33l58 150h42v-6l-51 -135q87 -2 137.5 -42.5t50.5 -116.5t-54.5 -121.5t-144.5 -45.5q-64 0 -107 16v44q40 -17 105 -17q68 0 111 34.5t43 88.5q0 57 -39.5 87.5t-114.5 30.5h-36z" />
    <glyph glyph-name="one.sups" unicode="&#xb9;" horiz-adv-x="382" 
d="M219 1012v608h-1q-10 -6 -80.5 -56.5t-81.5 -57.5v46q10 6 79.5 57t83.5 60h44v-657h-44z" />
    <glyph glyph-name="o.sups" unicode="&#xba;" horiz-adv-x="532" 
d="M266 862q-101 0 -159 77.5t-58 217.5q0 139 58.5 217t158.5 78t158 -78t58 -217q0 -140 -58 -217.5t-158 -77.5zM266 900q79 0 125.5 68.5t46.5 188.5t-46.5 188t-125.5 68q-80 0 -126 -68t-46 -188q0 -121 46 -189t126 -68z" />
    <glyph glyph-name="guillemotright" unicode="&#xbb;" horiz-adv-x="1010" 
d="M462 571l-324 407h61l329 -408v-4l-329 -408h-61l324 407v6zM806 571l-324 407h61l329 -408v-4l-329 -408h-61l324 407v6z" />
    <glyph glyph-name="onequarter" unicode="&#xbc;" horiz-adv-x="1111" 
d="M219 786v608h-1q-10 -6 -80.5 -56.5t-81.5 -57.5v46q10 6 79.5 57t83.5 60h44v-657h-44zM136 0h-50l427 744l403 699h51l-416 -721zM931 0v160h-308v41q116 201 288 457h63v-458h94v-40h-94v-160h-43zM668 201v-1h263v416h-1q-150 -223 -262 -415z" />
    <glyph glyph-name="onehalf" unicode="&#xbd;" horiz-adv-x="1164" 
d="M763 478h-43q2 84 54.5 136.5t135.5 52.5q80 0 130.5 -49.5t50.5 -125.5q0 -55 -28.5 -107t-108.5 -145l-173 -198v-2h331v-40h-389v33l203 235q72 85 96.5 130t24.5 92q0 60 -38.5 99t-99.5 39q-64 0 -104.5 -42t-41.5 -108zM136 0h-50l427 744l403 699h51l-416 -721z
M219 786v608h-1q-10 -6 -80.5 -56.5t-81.5 -57.5v46q10 6 79.5 57t83.5 60h44v-657h-44z" />
    <glyph glyph-name="threequarters" unicode="&#xbe;" horiz-adv-x="1235" 
d="M182 1108v38h68q66 0 106.5 37.5t40.5 97.5q0 59 -39 95.5t-103 36.5q-60 0 -100.5 -36.5t-43.5 -94.5h-43q4 76 56 123.5t132 47.5q82 0 133.5 -47t51.5 -120q0 -62 -34 -103t-94 -53v-2q70 -5 111 -48.5t41 -114.5q0 -84 -57.5 -136.5t-147.5 -52.5q-89 0 -146 49.5
t-59 127.5h43q1 -60 47 -98.5t115 -38.5q71 0 115.5 41.5t44.5 107.5q0 68 -44.5 105.5t-125.5 37.5h-68zM260 0h-51l428 744l402 699h52l-416 -721zM1055 0v160h-308v41q123 215 288 457h63v-458h93v-40h-93v-160h-43zM792 201v-1h263v416h-1q-150 -223 -262 -415z" />
    <glyph glyph-name="questiondown" unicode="&#xbf;" horiz-adv-x="804" 
d="M749 -4q-8 -160 -102 -258.5t-239 -98.5q-149 0 -243 92.5t-94 240.5q0 100 43 177.5t146 168.5q91 82 122.5 143.5t31.5 152.5v90h49v-91q0 -100 -35 -169.5t-132 -158.5q-95 -86 -135 -156.5t-40 -155.5q0 -129 81 -208.5t207 -79.5q121 0 201 83t91 228h48zM435 1006
q-22 0 -37 15t-15 36t15 36.5t37 15.5q21 0 36 -15.5t15 -36.5t-15 -36t-36 -15z" />
    <glyph glyph-name="Agrave" unicode="&#xc0;" horiz-adv-x="1074" 
d="M994 0l-162 484h-591l-161 -484h-55l485 1443h53l485 -1443h-54zM534 1370l-278 -840h561l-279 840h-4zM518 1554l-264 287h62l256 -287h-54z" />
    <glyph glyph-name="Aacute" unicode="&#xc1;" horiz-adv-x="1074" 
d="M994 0l-162 484h-591l-161 -484h-55l485 1443h53l485 -1443h-54zM534 1370l-278 -840h561l-279 840h-4zM556 1554h-54l256 287h62z" />
    <glyph glyph-name="Acircumflex" unicode="&#xc2;" horiz-adv-x="1074" 
d="M994 0l-162 484h-591l-161 -484h-55l485 1443h53l485 -1443h-54zM534 1370l-278 -840h561l-279 840h-4zM515 1840h44l234 -287h-55l-200 249h-2l-201 -249h-54z" />
    <glyph glyph-name="Atilde" unicode="&#xc3;" horiz-adv-x="1074" 
d="M994 0l-162 484h-591l-161 -484h-55l485 1443h53l485 -1443h-54zM534 1370l-278 -840h561l-279 840h-4zM658 1574q-32 0 -60.5 17t-49 41t-40.5 47.5t-43.5 40.5t-48.5 17q-84 0 -82 -154h-44q0 93 32.5 145t94.5 52q33 0 61.5 -17t49 -41t40 -48t43 -41t48.5 -17
q82 0 82 155h43q0 -93 -32 -145t-94 -52z" />
    <glyph glyph-name="Adieresis" unicode="&#xc4;" horiz-adv-x="1074" 
d="M994 0l-162 484h-591l-161 -484h-55l485 1443h53l485 -1443h-54zM534 1370l-278 -840h561l-279 840h-4zM413 1595q-21 0 -36.5 15t-15.5 36t15.5 36t36.5 15t36 -15t15 -36t-15.5 -36t-35.5 -15zM661 1595q-21 0 -36 15t-15 36q0 22 15 36.5t36 14.5t36 -14.5t15 -36.5
q0 -21 -15 -36t-36 -15z" />
    <glyph glyph-name="Aring" unicode="&#xc5;" horiz-adv-x="1074" 
d="M994 0l-162 484h-591l-161 -484h-55l485 1443h53l485 -1443h-54zM534 1370l-278 -840h561l-279 840h-4zM537 1510q-64 0 -109.5 47t-45.5 115t45.5 115t109.5 47t109.5 -47t45.5 -115t-45.5 -115t-109.5 -47zM537 1548q49 0 82 35.5t33 88.5t-33 88.5t-82 35.5
t-82.5 -35.5t-33.5 -88.5t33.5 -88.5t82.5 -35.5z" />
    <glyph glyph-name="AE" unicode="&#xc6;" horiz-adv-x="1649" 
d="M713 1397l-395 -882h563v882h-168zM881 0v468h-583l-199 -468h-54l638 1443h875v-46h-629v-634h597v-46h-597v-671h629v-46h-677z" />
    <glyph glyph-name="Ccedilla" unicode="&#xc7;" horiz-adv-x="1124" 
d="M1069 978h-48q-17 189 -136 314t-287 125q-225 0 -352.5 -182.5t-127.5 -502.5q0 -329 128 -517.5t352 -188.5q175 0 291 113.5t132 301.5h48q-16 -203 -139 -328.5t-314 -132.5l-44 -115q87 -2 137.5 -42.5t50.5 -116.5t-54.5 -121.5t-144.5 -45.5q-64 0 -107 16v44
q40 -17 105 -17q68 0 111 34.5t43 88.5q0 57 -39.5 87.5t-114.5 30.5h-36v33l48 125q-235 11 -369 211t-134 540q0 345 140.5 538t389.5 193q189 0 321.5 -137t149.5 -348z" />
    <glyph glyph-name="Egrave" unicode="&#xc8;" horiz-adv-x="937" 
d="M847 46v-46h-728v1443h728v-46h-678v-633h647v-46h-647v-672h678zM466 1554l-264 287h62l256 -287h-54z" />
    <glyph glyph-name="Eacute" unicode="&#xc9;" horiz-adv-x="937" 
d="M847 46v-46h-728v1443h728v-46h-678v-633h647v-46h-647v-672h678zM504 1554h-54l256 287h62z" />
    <glyph glyph-name="Ecircumflex" unicode="&#xca;" horiz-adv-x="937" 
d="M847 46v-46h-728v1443h728v-46h-678v-633h647v-46h-647v-672h678zM463 1840h44l233 -287h-54l-200 249h-2l-201 -249h-54z" />
    <glyph glyph-name="Edieresis" unicode="&#xcb;" horiz-adv-x="937" 
d="M847 46v-46h-728v1443h728v-46h-678v-633h647v-46h-647v-672h678zM360 1595q-20 0 -35.5 15t-15.5 36t15 36t36 15t36.5 -15t15.5 -36t-15.5 -36t-36.5 -15zM609 1595q-21 0 -36 15t-15 36q0 22 15 36.5t36 14.5t36 -14.5t15 -36.5q0 -21 -15 -36t-36 -15z" />
    <glyph glyph-name="Igrave" unicode="&#xcc;" horiz-adv-x="288" 
d="M169 0h-50v1443h50v-1443zM125 1554l-264 287h62l256 -287h-54z" />
    <glyph glyph-name="Iacute" unicode="&#xcd;" horiz-adv-x="288" 
d="M169 0h-50v1443h50v-1443zM163 1554h-54l256 287h62z" />
    <glyph glyph-name="Icircumflex" unicode="&#xce;" horiz-adv-x="288" 
d="M169 0h-50v1443h50v-1443zM122 1840h44l233 -287h-54l-200 249h-2l-201 -249h-54z" />
    <glyph glyph-name="Idieresis" unicode="&#xcf;" horiz-adv-x="288" 
d="M169 0h-50v1443h50v-1443zM19 1595q-20 0 -35.5 15t-15.5 36t15 36t36 15t36.5 -15t15.5 -36t-15.5 -36t-36.5 -15zM268 1595q-21 0 -36 15t-15 36q0 22 15 36.5t36 14.5t36 -14.5t15 -36.5q0 -21 -15 -36t-36 -15z" />
    <glyph glyph-name="Eth" unicode="&#xd0;" horiz-adv-x="1161" 
d="M182 47h301q271 0 415 173.5t144 501.5t-144.5 501t-414.5 173h-301v-633h319v-46h-319v-670zM132 1443h352q293 0 450.5 -185.5t157.5 -535.5q0 -351 -157.5 -536.5t-450.5 -185.5h-352v717h-117v46h117v680z" />
    <glyph glyph-name="Ntilde" unicode="&#xd1;" horiz-adv-x="1169" 
d="M167 0h-48v1443h60l818 -1351h5v1351h48v-1443h-54l-824 1358h-5v-1358zM706 1574q-32 0 -60.5 17t-49.5 41t-40.5 47.5t-43 40.5t-48.5 17q-83 0 -83 -154h-43q0 93 32 145t95 52q33 0 61.5 -17t49 -41t40 -48t43 -41t48.5 -17q82 0 82 155h43q0 -93 -32 -145t-94 -52z
" />
    <glyph glyph-name="Ograve" unicode="&#xd2;" horiz-adv-x="1211" 
d="M605 1463q251 0 394 -196.5t143 -544.5t-142.5 -545t-394.5 -197q-251 0 -394 197t-143 545q0 347 143.5 544t393.5 197zM605 1417q-227 0 -357 -186t-130 -509t130.5 -509.5t356.5 -186.5t356.5 186.5t130.5 509.5t-130.5 509t-356.5 186zM586 1554l-263 287h61
l256 -287h-54z" />
    <glyph glyph-name="Oacute" unicode="&#xd3;" horiz-adv-x="1211" 
d="M605 1463q251 0 394 -196.5t143 -544.5t-142.5 -545t-394.5 -197q-251 0 -394 197t-143 545q0 347 143.5 544t393.5 197zM605 1417q-227 0 -357 -186t-130 -509t130.5 -509.5t356.5 -186.5t356.5 186.5t130.5 509.5t-130.5 509t-356.5 186zM624 1554h-54l256 287h62z" />
    <glyph glyph-name="Ocircumflex" unicode="&#xd4;" horiz-adv-x="1211" 
d="M605 1463q251 0 394 -196.5t143 -544.5t-142.5 -545t-394.5 -197q-251 0 -394 197t-143 545q0 347 143.5 544t393.5 197zM605 1417q-227 0 -357 -186t-130 -509t130.5 -509.5t356.5 -186.5t356.5 186.5t130.5 509.5t-130.5 509t-356.5 186zM583 1840h44l234 -287h-54
l-201 249h-2l-201 -249h-53z" />
    <glyph glyph-name="Otilde" unicode="&#xd5;" horiz-adv-x="1211" 
d="M605 1463q251 0 394 -196.5t143 -544.5t-142.5 -545t-394.5 -197q-251 0 -394 197t-143 545q0 347 143.5 544t393.5 197zM605 1417q-227 0 -357 -186t-130 -509t130.5 -509.5t356.5 -186.5t356.5 186.5t130.5 509.5t-130.5 509t-356.5 186zM726 1574q-32 0 -60.5 17
t-49 41t-40 47.5t-43 40.5t-48.5 17q-83 0 -83 -154h-43q0 93 32 145t95 52q32 0 60.5 -17t49 -41t40.5 -48t43 -41t48 -17q83 0 83 155h43q0 -93 -32.5 -145t-94.5 -52z" />
    <glyph glyph-name="Odieresis" unicode="&#xd6;" horiz-adv-x="1211" 
d="M605 1463q251 0 394 -196.5t143 -544.5t-142.5 -545t-394.5 -197q-251 0 -394 197t-143 545q0 347 143.5 544t393.5 197zM605 1417q-227 0 -357 -186t-130 -509t130.5 -509.5t356.5 -186.5t356.5 186.5t130.5 509.5t-130.5 509t-356.5 186zM481 1595q-21 0 -36 15t-15 36
q0 22 15 36.5t36 14.5t36 -14.5t15 -36.5q0 -21 -15 -36t-36 -15zM730 1595q-21 0 -36.5 15t-15.5 36t15.5 36t36.5 15t36 -14.5t15 -36.5q0 -21 -15 -36t-36 -15z" />
    <glyph glyph-name="multiply" unicode="&#xd7;" horiz-adv-x="1038" 
d="M520 544l-304 -342l-34 30l306 346l-305 346l34 31l302 -342l303 342l34 -30l-305 -347l304 -344l-35 -32z" />
    <glyph glyph-name="Oslash" unicode="&#xd8;" horiz-adv-x="1211" 
d="M974 1213l-696 -1039q126 -148 327 -148q226 0 356.5 186.5t130.5 509.5q0 306 -118 491zM250 210l697 1040q-128 167 -342 167q-227 0 -357 -186t-130 -509q0 -324 132 -512zM1134 1453l-130 -194q138 -197 138 -537q0 -348 -142.5 -545t-394.5 -197q-217 0 -356 151
l-129 -193l-41 17l141 210q-152 199 -152 557q0 347 143.5 544t393.5 197q232 0 372 -168l117 174z" />
    <glyph glyph-name="Ugrave" unicode="&#xd9;" horiz-adv-x="1145" 
d="M165 1443v-950q0 -221 108 -344t300 -123t300 123t108 344v950h50v-951q0 -240 -121 -376t-337 -136t-336.5 136t-120.5 376v951h49zM553 1554l-263 287h61l256 -287h-54z" />
    <glyph glyph-name="Uacute" unicode="&#xda;" horiz-adv-x="1145" 
d="M165 1443v-950q0 -221 108 -344t300 -123t300 123t108 344v950h50v-951q0 -240 -121 -376t-337 -136t-336.5 136t-120.5 376v951h49zM591 1554h-54l256 287h62z" />
    <glyph glyph-name="Ucircumflex" unicode="&#xdb;" horiz-adv-x="1145" 
d="M165 1443v-950q0 -221 108 -344t300 -123t300 123t108 344v950h50v-951q0 -240 -121 -376t-337 -136t-336.5 136t-120.5 376v951h49zM550 1840h44l234 -287h-54l-201 249h-2l-201 -249h-53z" />
    <glyph glyph-name="Udieresis" unicode="&#xdc;" horiz-adv-x="1145" 
d="M165 1443v-950q0 -221 108 -344t300 -123t300 123t108 344v950h50v-951q0 -240 -121 -376t-337 -136t-336.5 136t-120.5 376v951h49zM448 1595q-21 0 -36 15t-15 36q0 22 15 36.5t36 14.5t36 -14.5t15 -36.5q0 -21 -15 -36t-36 -15zM697 1595q-21 0 -36.5 15t-15.5 36
t15.5 36t36.5 15t36 -14.5t15 -36.5q0 -21 -15 -36t-36 -15z" />
    <glyph glyph-name="Yacute" unicode="&#xdd;" horiz-adv-x="1024" 
d="M538 0h-50v631l-464 812h58l429 -755h4l428 755h56l-461 -812v-631zM531 1554h-54l256 287h62z" />
    <glyph glyph-name="Thorn" unicode="&#xde;" horiz-adv-x="1048" 
d="M145 1443h50v-291h350q187 0 294.5 -106t107.5 -294q0 -189 -106.5 -293.5t-295.5 -104.5h-350v-354h-50v1443zM195 1105v-704h346q172 0 264.5 93t92.5 258t-92.5 259t-264.5 94h-346z" />
    <glyph glyph-name="germandbls" unicode="&#xdf;" horiz-adv-x="922" 
d="M161 0h-49v1086q0 177 83.5 275t235.5 98q146 0 234.5 -95t88.5 -246q0 -127 -65.5 -226t-161.5 -123v-3q145 -14 238 -118t93 -258q0 -175 -108 -292t-273 -117q-71 0 -152 16v49q63 -19 150 -19q141 0 237.5 104.5t96.5 258.5q0 151 -104 249.5t-270 98.5h-92v46h91
q112 0 191.5 100t79.5 232q0 130 -75.5 213.5t-197.5 83.5q-128 0 -199.5 -88t-71.5 -241v-1084z" />
    <glyph glyph-name="agrave" unicode="&#xe0;" horiz-adv-x="884" 
d="M393 30q140 0 238.5 97.5t98.5 235.5v205l-289 -31q-157 -21 -235.5 -84.5t-78.5 -179.5q0 -110 76.5 -176.5t189.5 -66.5zM388 -15q-136 0 -223 78.5t-87 208.5q0 136 88 210t266 98l298 31v111q0 145 -72.5 223t-200.5 78t-206 -69t-93 -205h-47q13 153 105 236t242 83
t235 -90t85 -253v-725h-48v211h-2q-33 -99 -126.5 -162.5t-213.5 -63.5zM496 1211h-51l-204 302h56z" />
    <glyph glyph-name="aacute" unicode="&#xe1;" horiz-adv-x="884" 
d="M393 30q140 0 238.5 97.5t98.5 235.5v205l-289 -31q-157 -21 -235.5 -84.5t-78.5 -179.5q0 -110 76.5 -176.5t189.5 -66.5zM388 -15q-136 0 -223 78.5t-87 208.5q0 136 88 210t266 98l298 31v111q0 145 -72.5 223t-200.5 78t-206 -69t-93 -205h-47q13 153 105 236t242 83
t235 -90t85 -253v-725h-48v211h-2q-33 -99 -126.5 -162.5t-213.5 -63.5zM468 1211h-50l198 302h57z" />
    <glyph glyph-name="acircumflex" unicode="&#xe2;" horiz-adv-x="884" 
d="M393 30q140 0 238.5 97.5t98.5 235.5v205l-289 -31q-157 -21 -235.5 -84.5t-78.5 -179.5q0 -110 76.5 -176.5t189.5 -66.5zM388 -15q-136 0 -223 78.5t-87 208.5q0 136 88 210t266 98l298 31v111q0 145 -72.5 223t-200.5 78t-206 -69t-93 -205h-47q13 153 105 236t242 83
t235 -90t85 -253v-725h-48v211h-2q-33 -99 -126.5 -162.5t-213.5 -63.5zM479 1513l226 -302h-53l-194 259h-2l-193 -259h-53l226 302h43z" />
    <glyph glyph-name="atilde" unicode="&#xe3;" horiz-adv-x="884" 
d="M393 30q140 0 238.5 97.5t98.5 235.5v205l-289 -31q-157 -21 -235.5 -84.5t-78.5 -179.5q0 -110 76.5 -176.5t189.5 -66.5zM388 -15q-136 0 -223 78.5t-87 208.5q0 136 88 210t266 98l298 31v111q0 145 -72.5 223t-200.5 78t-206 -69t-93 -205h-47q13 153 105 236t242 83
t235 -90t85 -253v-725h-48v211h-2q-33 -99 -126.5 -162.5t-213.5 -63.5zM578 1225q-32 0 -60.5 17t-49 40.5t-40.5 47.5t-43.5 41t-48.5 17q-84 0 -82 -154h-44q0 93 32.5 145t94.5 52q33 0 61.5 -17t49 -41t40 -48t43 -41t48.5 -17q82 0 82 155h43q0 -93 -32 -145t-94 -52z
" />
    <glyph glyph-name="adieresis" unicode="&#xe4;" horiz-adv-x="884" 
d="M393 30q140 0 238.5 97.5t98.5 235.5v205l-289 -31q-157 -21 -235.5 -84.5t-78.5 -179.5q0 -110 76.5 -176.5t189.5 -66.5zM388 -15q-136 0 -223 78.5t-87 208.5q0 136 88 210t266 98l298 31v111q0 145 -72.5 223t-200.5 78t-206 -69t-93 -205h-47q13 153 105 236t242 83
t235 -90t85 -253v-725h-48v211h-2q-33 -99 -126.5 -162.5t-213.5 -63.5zM333 1245q-21 0 -36 15t-15 36q0 22 15 37t36 15t36 -15t15 -37q0 -21 -15 -36t-36 -15zM582 1245q-21 0 -36.5 15t-15.5 36q0 22 15.5 37t36.5 15q20 0 35.5 -15t15.5 -37q0 -21 -15.5 -36t-35.5 -15
z" />
    <glyph glyph-name="aring" unicode="&#xe5;" horiz-adv-x="884" 
d="M393 30q140 0 238.5 97.5t98.5 235.5v205l-289 -31q-157 -21 -235.5 -84.5t-78.5 -179.5q0 -110 76.5 -176.5t189.5 -66.5zM388 -15q-136 0 -223 78.5t-87 208.5q0 136 88 210t266 98l298 31v111q0 145 -72.5 223t-200.5 78t-206 -69t-93 -205h-47q13 153 105 236t242 83
t235 -90t85 -253v-725h-48v211h-2q-33 -99 -126.5 -162.5t-213.5 -63.5zM458 1219q-65 0 -110.5 47.5t-45.5 115.5q0 69 45.5 116.5t110.5 47.5t110 -47.5t45 -116.5q0 -68 -45 -115.5t-110 -47.5zM458 1257q49 0 82.5 36t33.5 89t-33.5 89t-82.5 36q-50 0 -83.5 -36
t-33.5 -89t33.5 -89t83.5 -36z" />
    <glyph glyph-name="ae" unicode="&#xe6;" horiz-adv-x="1571" 
d="M1129 -15q-137 0 -232 81.5t-135 235.5h-4q-31 -148 -131.5 -232.5t-239.5 -84.5q-140 0 -224.5 77t-84.5 208q0 270 373 295l275 17v132q0 149 -73 229t-205 80q-126 0 -205 -72.5t-95 -204.5h-48q14 150 107 236t240 86q141 0 226.5 -77.5t90.5 -216.5h5
q34 131 127.5 212.5t229.5 81.5q177 0 278.5 -133t101.5 -362v-39h-731v-10q0 -224 96 -359t258 -135q127 0 208.5 72t103.5 190h50q-24 -138 -120 -222.5t-242 -84.5zM1124 1023q-152 0 -246 -121.5t-102 -323.5h680q0 203 -89.5 324t-242.5 121zM388 30q144 0 241 105
t97 261v143l-267 -17q-332 -22 -332 -251q0 -110 72 -175.5t189 -65.5z" />
    <glyph glyph-name="ccedilla" unicode="&#xe7;" horiz-adv-x="880" 
d="M821 743h-49q-22 126 -105.5 203t-204.5 77q-162 0 -254.5 -133t-92.5 -364t92 -363.5t255 -132.5q122 0 205 74t103 196h50q-21 -141 -111 -224.5t-227 -90.5l-46 -120q87 -2 137.5 -42.5t50.5 -116.5t-54.5 -121.5t-144.5 -45.5q-64 0 -107 16v44q40 -17 105 -17
q68 0 111 34.5t43 88.5q0 57 -39.5 87.5t-114.5 30.5h-36v33l50 130q-175 10 -273.5 151.5t-98.5 388.5q0 255 106 398.5t291 143.5q143 0 240 -88.5t119 -236.5z" />
    <glyph glyph-name="egrave" unicode="&#xe8;" horiz-adv-x="909" 
d="M460 1023q-151 0 -243 -122.5t-100 -332.5h678q0 206 -91.5 330.5t-243.5 124.5zM783 292h50q-24 -141 -120 -224t-246 -83q-188 0 -294 140t-106 401q0 252 106 397t287 145q176 0 280 -136.5t104 -369.5v-39h-728v-1q0 -236 94 -364t258 -128q129 0 211.5 72t103.5 190
zM497 1211h-50l-205 302h56z" />
    <glyph glyph-name="eacute" unicode="&#xe9;" horiz-adv-x="909" 
d="M460 1023q-151 0 -243 -122.5t-100 -332.5h678q0 206 -91.5 330.5t-243.5 124.5zM783 292h50q-24 -141 -120 -224t-246 -83q-188 0 -294 140t-106 401q0 252 106 397t287 145q176 0 280 -136.5t104 -369.5v-39h-728v-1q0 -236 94 -364t258 -128q129 0 211.5 72t103.5 190
zM469 1211h-50l199 302h56z" />
    <glyph glyph-name="ecircumflex" unicode="&#xea;" horiz-adv-x="909" 
d="M460 1023q-151 0 -243 -122.5t-100 -332.5h678q0 206 -91.5 330.5t-243.5 124.5zM783 292h50q-24 -141 -120 -224t-246 -83q-188 0 -294 140t-106 401q0 252 106 397t287 145q176 0 280 -136.5t104 -369.5v-39h-728v-1q0 -236 94 -364t258 -128q129 0 211.5 72t103.5 190
zM480 1513l226 -302h-53l-193 259h-2l-194 -259h-53l226 302h43z" />
    <glyph glyph-name="edieresis" unicode="&#xeb;" horiz-adv-x="909" 
d="M460 1023q-151 0 -243 -122.5t-100 -332.5h678q0 206 -91.5 330.5t-243.5 124.5zM783 292h50q-24 -141 -120 -224t-246 -83q-188 0 -294 140t-106 401q0 252 106 397t287 145q176 0 280 -136.5t104 -369.5v-39h-728v-1q0 -236 94 -364t258 -128q129 0 211.5 72t103.5 190
zM334 1245q-21 0 -36 15t-15 36q0 22 15 37t36 15t36 -15t15 -37q0 -21 -15 -36t-36 -15zM583 1245q-21 0 -36.5 15t-15.5 36q0 22 15.5 37t36.5 15t36 -15t15 -37q0 -21 -15 -36t-36 -15z" />
    <glyph glyph-name="igrave" unicode="&#xec;" horiz-adv-x="284" 
d="M118 0v1053h49v-1053h-49zM181 1211h-50l-205 302h57z" />
    <glyph glyph-name="iacute" unicode="&#xed;" horiz-adv-x="284" 
d="M118 0v1053h49v-1053h-49zM153 1211h-50l199 302h57z" />
    <glyph glyph-name="icircumflex" unicode="&#xee;" horiz-adv-x="284" 
d="M118 0v1053h49v-1053h-49zM165 1513l225 -302h-52l-194 259h-2l-194 -259h-52l225 302h44z" />
    <glyph glyph-name="idieresis" unicode="&#xef;" horiz-adv-x="284" 
d="M118 0v1053h49v-1053h-49zM19 1245q-21 0 -36.5 15t-15.5 36q0 22 15.5 37t36.5 15t36 -15t15 -37q0 -21 -15.5 -36t-35.5 -15zM267 1245q-21 0 -36 15t-15 36q0 22 15 37t36 15t36 -15t15 -37q0 -21 -15 -36t-36 -15z" />
    <glyph glyph-name="eth" unicode="&#xf0;" horiz-adv-x="927" 
d="M462 -16q-179 0 -287.5 148t-108.5 394q0 225 109 365t282 140q114 0 199 -58t133 -168h5q-51 275 -203 445l-247 -119l-16 37l235 114q-73 74 -207 151h74q107 -62 174 -132l234 113l16 -36l-222 -108q224 -260 224 -725q0 -261 -105 -411t-289 -150zM460 985
q-153 0 -248.5 -127t-95.5 -332q0 -225 95 -360.5t251 -135.5t251 133.5t95 351.5t-93 344t-255 126z" />
    <glyph glyph-name="ntilde" unicode="&#xf1;" horiz-adv-x="931" 
d="M112 0v1053h46v-218h3q30 104 118 168.5t206 64.5q156 0 248 -96.5t92 -265.5v-706h-49v703q0 151 -80.5 235.5t-217.5 84.5q-143 0 -230 -103t-87 -263v-657h-49zM591 1225q-32 0 -60.5 17t-49 40.5t-40.5 47.5t-43.5 41t-48.5 17q-84 0 -82 -154h-44q0 93 32.5 145
t94.5 52q33 0 61.5 -17t49 -41t40 -48t43 -41t48.5 -17q82 0 82 155h43q0 -93 -32 -145t-94 -52z" />
    <glyph glyph-name="ograve" unicode="&#xf2;" horiz-adv-x="938" 
d="M469 -15q-185 0 -293.5 143.5t-108.5 397.5q0 255 108.5 398.5t293.5 143.5t293.5 -143.5t108.5 -398.5q0 -254 -108.5 -397.5t-293.5 -143.5zM469 30q162 0 257.5 132.5t95.5 363.5t-95.5 364t-257.5 133t-257.5 -133t-95.5 -364t95.5 -363.5t257.5 -132.5zM507 1210
h-50l-205 302h56z" />
    <glyph glyph-name="oacute" unicode="&#xf3;" horiz-adv-x="938" 
d="M469 -15q-185 0 -293.5 143.5t-108.5 397.5q0 255 108.5 398.5t293.5 143.5t293.5 -143.5t108.5 -398.5q0 -254 -108.5 -397.5t-293.5 -143.5zM469 30q162 0 257.5 132.5t95.5 363.5t-95.5 364t-257.5 133t-257.5 -133t-95.5 -364t95.5 -363.5t257.5 -132.5zM479 1210
h-50l199 302h56z" />
    <glyph glyph-name="ocircumflex" unicode="&#xf4;" horiz-adv-x="938" 
d="M469 -15q-185 0 -293.5 143.5t-108.5 397.5q0 255 108.5 398.5t293.5 143.5t293.5 -143.5t108.5 -398.5q0 -254 -108.5 -397.5t-293.5 -143.5zM469 30q162 0 257.5 132.5t95.5 363.5t-95.5 364t-257.5 133t-257.5 -133t-95.5 -364t95.5 -363.5t257.5 -132.5zM490 1512
l226 -302h-53l-193 260h-2l-194 -260h-53l226 302h43z" />
    <glyph glyph-name="otilde" unicode="&#xf5;" horiz-adv-x="938" 
d="M469 -15q-185 0 -293.5 143.5t-108.5 397.5q0 255 108.5 398.5t293.5 143.5t293.5 -143.5t108.5 -398.5q0 -254 -108.5 -397.5t-293.5 -143.5zM469 30q162 0 257.5 132.5t95.5 363.5t-95.5 364t-257.5 133t-257.5 -133t-95.5 -364t95.5 -363.5t257.5 -132.5zM589 1224
q-32 0 -60.5 17t-49 41t-40.5 47.5t-43.5 40.5t-48.5 17q-82 0 -82 -154h-43q0 93 32 145t94 52q33 0 61.5 -17t49 -41t40 -48t43 -41t48.5 -17q82 0 82 155h43q0 -93 -32 -145t-94 -52z" />
    <glyph glyph-name="odieresis" unicode="&#xf6;" horiz-adv-x="938" 
d="M469 -15q-185 0 -293.5 143.5t-108.5 397.5q0 255 108.5 398.5t293.5 143.5t293.5 -143.5t108.5 -398.5q0 -254 -108.5 -397.5t-293.5 -143.5zM469 30q162 0 257.5 132.5t95.5 363.5t-95.5 364t-257.5 133t-257.5 -133t-95.5 -364t95.5 -363.5t257.5 -132.5zM344 1244
q-21 0 -36 15t-15 37q0 21 15 36t36 15t36 -15t15 -36q0 -22 -15 -37t-36 -15zM593 1244q-21 0 -36.5 15t-15.5 37q0 21 15.5 36t36.5 15t36 -15t15 -36q0 -22 -15 -37t-36 -15z" />
    <glyph glyph-name="divide" unicode="&#xf7;" horiz-adv-x="1038" 
d="M520 898q-21 0 -36 15t-15 36t14.5 36t36.5 15q21 0 36 -15t15 -36t-15 -36t-36 -15zM520 155q-21 0 -36 15t-15 36t14.5 36t36.5 15q21 0 36 -15t15 -36t-15 -36t-36 -15zM920 555h-803v45h803v-45z" />
    <glyph glyph-name="oslash" unicode="&#xf8;" horiz-adv-x="938" 
d="M734 880l-490 -756q89 -94 225 -94q162 0 257.5 132.5t95.5 363.5q0 220 -88 354zM216 156l491 759q-93 108 -238 108q-162 0 -257.5 -133t-95.5 -364q0 -236 100 -370zM860 1075l-98 -151q109 -143 109 -398q0 -254 -108.5 -397.5t-293.5 -143.5q-150 0 -252 97
l-92 -142l-38 16l101 157q-121 145 -121 413q0 255 108.5 398.5t293.5 143.5q163 0 266 -111l86 134z" />
    <glyph glyph-name="ugrave" unicode="&#xf9;" horiz-adv-x="930" 
d="M818 1053v-1053h-46v211h-3q-29 -100 -120.5 -163t-207.5 -63q-154 0 -244.5 92.5t-90.5 259.5v716h49v-711q0 -150 79 -231t214 -81q141 0 231 98.5t91 257.5v667h48zM503 1210h-50l-205 302h56z" />
    <glyph glyph-name="uacute" unicode="&#xfa;" horiz-adv-x="930" 
d="M818 1053v-1053h-46v211h-3q-29 -100 -120.5 -163t-207.5 -63q-154 0 -244.5 92.5t-90.5 259.5v716h49v-711q0 -150 79 -231t214 -81q141 0 231 98.5t91 257.5v667h48zM475 1210h-50l199 302h56z" />
    <glyph glyph-name="ucircumflex" unicode="&#xfb;" horiz-adv-x="930" 
d="M818 1053v-1053h-46v211h-3q-29 -100 -120.5 -163t-207.5 -63q-154 0 -244.5 92.5t-90.5 259.5v716h49v-711q0 -150 79 -231t214 -81q141 0 231 98.5t91 257.5v667h48zM486 1512l226 -302h-53l-193 260h-2l-194 -260h-53l226 302h43z" />
    <glyph glyph-name="udieresis" unicode="&#xfc;" horiz-adv-x="930" 
d="M818 1053v-1053h-46v211h-3q-29 -100 -120.5 -163t-207.5 -63q-154 0 -244.5 92.5t-90.5 259.5v716h49v-711q0 -150 79 -231t214 -81q141 0 231 98.5t91 257.5v667h48zM340 1244q-21 0 -36 15t-15 37q0 21 15 36t36 15t36 -15t15 -36q0 -22 -15 -37t-36 -15zM589 1244
q-21 0 -36.5 15t-15.5 37q0 21 15.5 36t36.5 15t36 -15t15 -36q0 -22 -15 -37t-36 -15z" />
    <glyph glyph-name="yacute" unicode="&#xfd;" horiz-adv-x="785" 
d="M158 -346q-23 0 -47 8v46q20 -8 48 -8q63 0 102 43.5t77 155.5l29 79l-359 1075h53l331 -1000h2l330 1000h53l-367 -1105q-59 -173 -110 -233.5t-142 -60.5zM403 1210h-50l199 302h57z" />
    <glyph glyph-name="thorn" unicode="&#xfe;" horiz-adv-x="966" 
d="M515 1068q177 0 281.5 -145t104.5 -396q0 -252 -105 -397t-281 -145q-122 0 -214 74t-130 209h-4v-630h-49v1805h47v-665h5q37 138 129 214t216 76zM511 30q155 0 248 135t93 361t-93 361.5t-248 135.5q-153 0 -248.5 -132.5t-95.5 -364.5q0 -231 96 -363.5t248 -132.5z
" />
    <glyph glyph-name="ydieresis" unicode="&#xff;" horiz-adv-x="785" 
d="M158 -346q-23 0 -47 8v46q20 -8 48 -8q63 0 102 43.5t77 155.5l29 79l-359 1075h53l331 -1000h2l330 1000h53l-367 -1105q-59 -173 -110 -233.5t-142 -60.5zM268 1244q-20 0 -35.5 15t-15.5 37q0 21 15.5 36t35.5 15q21 0 36.5 -15t15.5 -36q0 -22 -15.5 -37t-36.5 -15z
M517 1244q-21 0 -36 15t-15 37q0 21 15 36t36 15t36 -15t15 -36q0 -22 -15 -37t-36 -15z" />
    <glyph glyph-name="Amacron" unicode="&#x100;" horiz-adv-x="1074" 
d="M994 0l-162 484h-591l-161 -484h-55l485 1443h53l485 -1443h-54zM534 1370l-278 -840h561l-279 840h-4zM786 1659v-43h-498v43h498z" />
    <glyph glyph-name="amacron" unicode="&#x101;" horiz-adv-x="884" 
d="M393 30q140 0 238.5 97.5t98.5 235.5v205l-289 -31q-157 -21 -235.5 -84.5t-78.5 -179.5q0 -110 76.5 -176.5t189.5 -66.5zM388 -15q-136 0 -223 78.5t-87 208.5q0 136 88 210t266 98l298 31v111q0 145 -72.5 223t-200.5 78t-206 -69t-93 -205h-47q13 153 105 236t242 83
t235 -90t85 -253v-725h-48v211h-2q-33 -99 -126.5 -162.5t-213.5 -63.5zM668 1323v-43h-430v43h430z" />
    <glyph glyph-name="Abreve" unicode="&#x102;" horiz-adv-x="1074" 
d="M994 0l-162 484h-591l-161 -484h-55l485 1443h53l485 -1443h-54zM534 1370l-278 -840h561l-279 840h-4zM308 1771h43q1 -77 51.5 -126t134.5 -49t134.5 49t51.5 126h42q0 -101 -63 -159.5t-165 -58.5t-165 58.5t-64 159.5z" />
    <glyph glyph-name="abreve" unicode="&#x103;" horiz-adv-x="884" 
d="M393 30q140 0 238.5 97.5t98.5 235.5v205l-289 -31q-157 -21 -235.5 -84.5t-78.5 -179.5q0 -110 76.5 -176.5t189.5 -66.5zM388 -15q-136 0 -223 78.5t-87 208.5q0 136 88 210t266 98l298 31v111q0 145 -72.5 223t-200.5 78t-206 -69t-93 -205h-47q13 153 105 236t242 83
t235 -90t85 -253v-725h-48v211h-2q-33 -99 -126.5 -162.5t-213.5 -63.5zM228 1465h43q0 -90 50 -142t136 -52t136 52t50 142h43q0 -113 -62.5 -174.5t-166.5 -61.5q-103 0 -166 61.5t-63 174.5z" />
    <glyph glyph-name="Aogonek" unicode="&#x104;" horiz-adv-x="1074" 
d="M534 1370l-278 -840h561l-279 840h-4zM1036 -373q-23 -10 -69 -10q-77 0 -126 47t-49 120q0 71 50.5 131t146.5 100l-157 469h-591l-161 -484h-55l485 1443h53l485 -1443l-7 -3q-201 -77 -201 -208q0 -57 37 -92.5t96 -35.5q44 0 63 8v-42z" />
    <glyph glyph-name="aogonek" unicode="&#x105;" horiz-adv-x="881" 
d="M393 30q142 0 237.5 95.5t95.5 234.5v213l-281 -27q-318 -39 -318 -269q0 -110 75 -178.5t191 -68.5zM775 -365q-23 -10 -66 -10q-74 0 -121.5 46t-47.5 118q0 137 187 227v190h-2q-32 -99 -125 -160t-212 -61q-137 0 -223.5 80t-86.5 212q0 267 358 312l290 27v102
q0 148 -70 226t-200 78q-129 0 -205.5 -70t-92.5 -206h-47q13 153 104.5 237.5t240.5 84.5q153 0 236 -90t83 -257v-721l-8 -4q-180 -86 -180 -202q0 -56 35.5 -90.5t91.5 -34.5q42 0 61 8v-42z" />
    <glyph glyph-name="Cacute" unicode="&#x106;" horiz-adv-x="1124" 
d="M598 -20q-247 0 -388.5 201t-141.5 551q0 345 140.5 538t389.5 193q189 0 321.5 -137t149.5 -348h-48q-17 189 -136 314t-287 125q-225 0 -352.5 -182.5t-127.5 -502.5q0 -329 128 -517.5t352 -188.5q175 0 291 113.5t132 301.5h48q-16 -207 -144.5 -334t-326.5 -127z
M618 1554h-54l256 287h62z" />
    <glyph glyph-name="cacute" unicode="&#x107;" horiz-adv-x="880" 
d="M821 743h-49q-22 126 -105.5 203t-204.5 77q-162 0 -254.5 -133t-92.5 -364t92 -363.5t255 -132.5q122 0 205 74t103 196h50q-22 -146 -118 -230.5t-240 -84.5q-186 0 -291.5 142.5t-105.5 398.5q0 255 106 398.5t291 143.5q143 0 240 -88.5t119 -236.5zM472 1211h-50
l199 302h57z" />
    <glyph glyph-name="Ccircumflex" unicode="&#x108;" horiz-adv-x="1124" 
d="M598 -20q-247 0 -388.5 201t-141.5 551q0 345 140.5 538t389.5 193q189 0 321.5 -137t149.5 -348h-48q-17 189 -136 314t-287 125q-225 0 -352.5 -182.5t-127.5 -502.5q0 -329 128 -517.5t352 -188.5q175 0 291 113.5t132 301.5h48q-16 -207 -144.5 -334t-326.5 -127z
M577 1840h44l234 -287h-54l-201 249h-2l-201 -249h-53z" />
    <glyph glyph-name="ccircumflex" unicode="&#x109;" horiz-adv-x="880" 
d="M821 743h-49q-22 126 -105.5 203t-204.5 77q-162 0 -254.5 -133t-92.5 -364t92 -363.5t255 -132.5q122 0 205 74t103 196h50q-22 -146 -118 -230.5t-240 -84.5q-186 0 -291.5 142.5t-105.5 398.5q0 255 106 398.5t291 143.5q143 0 240 -88.5t119 -236.5zM483 1513
l226 -302h-52l-194 259h-2l-194 -259h-52l225 302h43z" />
    <glyph glyph-name="Cdotaccent" unicode="&#x10a;" horiz-adv-x="1124" 
d="M598 -20q-247 0 -388.5 201t-141.5 551q0 345 140.5 538t389.5 193q189 0 321.5 -137t149.5 -348h-48q-17 189 -136 314t-287 125q-225 0 -352.5 -182.5t-127.5 -502.5q0 -329 128 -517.5t352 -188.5q175 0 291 113.5t132 301.5h48q-16 -207 -144.5 -334t-326.5 -127z
M599 1597q-24 0 -41 16.5t-17 40.5q0 25 17 41.5t41 16.5q25 0 42 -16.5t17 -41.5q0 -24 -17 -40.5t-42 -16.5z" />
    <glyph glyph-name="cdotaccent" unicode="&#x10b;" horiz-adv-x="880" 
d="M821 743h-49q-22 126 -105.5 203t-204.5 77q-162 0 -254.5 -133t-92.5 -364t92 -363.5t255 -132.5q122 0 205 74t103 196h50q-22 -146 -118 -230.5t-240 -84.5q-186 0 -291.5 142.5t-105.5 398.5q0 255 106 398.5t291 143.5q143 0 240 -88.5t119 -236.5zM462 1247
q-25 0 -42 17t-17 41t17 41t42 17q24 0 41 -17t17 -41t-17 -41t-41 -17z" />
    <glyph glyph-name="Ccaron" unicode="&#x10c;" horiz-adv-x="1124" 
d="M598 -20q-247 0 -388.5 201t-141.5 551q0 345 140.5 538t389.5 193q189 0 321.5 -137t149.5 -348h-48q-17 189 -136 314t-287 125q-225 0 -352.5 -182.5t-127.5 -502.5q0 -329 128 -517.5t352 -188.5q175 0 291 113.5t132 301.5h48q-16 -207 -144.5 -334t-326.5 -127z
M577 1554l-233 287h55l199 -249h2l200 249h55l-234 -287h-44z" />
    <glyph glyph-name="ccaron" unicode="&#x10d;" horiz-adv-x="880" 
d="M821 743h-49q-22 126 -105.5 203t-204.5 77q-162 0 -254.5 -133t-92.5 -364t92 -363.5t255 -132.5q122 0 205 74t103 196h50q-22 -146 -118 -230.5t-240 -84.5q-186 0 -291.5 142.5t-105.5 398.5q0 255 106 398.5t291 143.5q143 0 240 -88.5t119 -236.5zM483 1229h-43
l-233 304h54l199 -264h2l200 264h54z" />
    <glyph glyph-name="Dcaron" unicode="&#x10e;" horiz-adv-x="1148" 
d="M119 1443h353q292 0 449.5 -185.5t157.5 -535.5q0 -351 -157.5 -536.5t-449.5 -185.5h-353v1443zM169 1396v-1349h301q271 0 415 173.5t144 501.5t-144 501t-415 173h-301zM463 1554l-233 287h55l199 -249h2l200 249h55l-234 -287h-44z" />
    <glyph glyph-name="dcaron" unicode="&#x10f;" horiz-adv-x="1030" 
d="M1019 1458h48l-12 -363h-36v363zM455 -15q-177 0 -283.5 145.5t-106.5 396.5t106 396t283 145q130 0 224 -79.5t124 -213.5h3v668h49v-1443h-47v281h-2q-29 -131 -125.5 -213.5t-224.5 -82.5zM458 1023q-154 0 -248.5 -135t-94.5 -361t94.5 -361.5t248.5 -135.5
q153 0 250 132.5t97 363.5q0 232 -97 364.5t-250 132.5z" />
    <glyph glyph-name="Dcroat" unicode="&#x110;" horiz-adv-x="1160" 
d="M182 47h301q271 0 415 173.5t144 501.5t-144.5 501t-414.5 173h-301v-633h319v-46h-319v-670zM132 1443h352q293 0 450.5 -185.5t157.5 -535.5q0 -351 -157.5 -536.5t-450.5 -185.5h-352v717h-117v46h117v680z" />
    <glyph glyph-name="dcroat" unicode="&#x111;" horiz-adv-x="986" 
d="M458 30q153 0 250 132.5t97 363.5t-97 363.5t-250 132.5q-154 0 -248.5 -135t-94.5 -360q0 -226 94.5 -361.5t248.5 -135.5zM979 1286v-43h-125v-1243h-47v281h-2q-29 -131 -125.5 -213.5t-224.5 -82.5q-177 0 -283.5 145.5t-106.5 396.5q0 250 106.5 395.5t282.5 145.5
q130 0 224 -79.5t124 -213.5h3v468h-249v43h249v157h49v-157h125z" />
    <glyph glyph-name="Emacron" unicode="&#x112;" horiz-adv-x="937" 
d="M847 46v-46h-728v1443h728v-46h-678v-633h647v-46h-647v-672h678zM734 1659v-43h-498v43h498z" />
    <glyph glyph-name="emacron" unicode="&#x113;" horiz-adv-x="909" 
d="M460 1023q-151 0 -243 -122.5t-100 -332.5h678q0 206 -91.5 330.5t-243.5 124.5zM783 292h50q-24 -141 -120 -224t-246 -83q-188 0 -294 140t-106 401q0 252 106 397t287 145q176 0 280 -136.5t104 -369.5v-39h-728v-1q0 -236 94 -364t258 -128q129 0 211.5 72t103.5 190
zM669 1323v-43h-430v43h430z" />
    <glyph glyph-name="Ebreve" unicode="&#x114;" horiz-adv-x="937" 
d="M847 46v-46h-728v1443h728v-46h-678v-633h647v-46h-647v-672h678zM256 1771h43q0 -77 51 -126t135 -49t134.5 49t50.5 126h43q-1 -101 -63.5 -159.5t-164.5 -58.5t-165 58.5t-64 159.5z" />
    <glyph glyph-name="ebreve" unicode="&#x115;" horiz-adv-x="909" 
d="M460 1023q-151 0 -243 -122.5t-100 -332.5h678q0 206 -91.5 330.5t-243.5 124.5zM783 292h50q-24 -141 -120 -224t-246 -83q-188 0 -294 140t-106 401q0 252 106 397t287 145q176 0 280 -136.5t104 -369.5v-39h-728v-1q0 -236 94 -364t258 -128q129 0 211.5 72t103.5 190
zM229 1465h43q0 -90 50 -142t136 -52t136.5 52t50.5 142h42q0 -113 -62.5 -174.5t-166.5 -61.5q-103 0 -166 61.5t-63 174.5z" />
    <glyph glyph-name="Edotaccent" unicode="&#x116;" horiz-adv-x="937" 
d="M847 46v-46h-728v1443h728v-46h-678v-633h647v-46h-647v-672h678zM485 1596q-25 0 -42 17t-17 41t17 41t42 17q24 0 41 -17t17 -41t-17 -41t-41 -17z" />
    <glyph glyph-name="edotaccent" unicode="&#x117;" horiz-adv-x="909" 
d="M460 1023q-151 0 -243 -122.5t-100 -332.5h678q0 206 -91.5 330.5t-243.5 124.5zM783 292h50q-24 -141 -120 -224t-246 -83q-188 0 -294 140t-106 401q0 252 106 397t287 145q176 0 280 -136.5t104 -369.5v-39h-728v-1q0 -236 94 -364t258 -128q129 0 211.5 72t103.5 190
zM458 1247q-24 0 -41 17t-17 41t17 41t41 17q25 0 42 -17t17 -41t-17 -41t-42 -17z" />
    <glyph glyph-name="Eogonek" unicode="&#x118;" horiz-adv-x="937" 
d="M119 0v1443h728v-46h-678v-633h647v-46h-647v-672h678v-44l-12 -4q-95 -37 -148 -91t-53 -118q0 -57 35.5 -92.5t92.5 -35.5q41 0 62 7v-42q-23 -9 -66 -9q-76 0 -123.5 46.5t-47.5 120.5q0 66 42 122t116 90v4h-626z" />
    <glyph glyph-name="eogonek" unicode="&#x119;" horiz-adv-x="903" 
d="M635 -375q-75 0 -122.5 47t-47.5 122q0 122 122 216l-1 3q-49 -28 -121 -28q-188 0 -294 140t-106 401q0 252 106 397t287 145q176 0 279.5 -136.5t103.5 -369.5v-39h-726v-1q0 -235 94 -363.5t257 -128.5q129 0 211.5 73t102.5 190h50q-24 -153 -152 -251
q-88 -65 -127 -121.5t-39 -121.5q0 -58 36 -94t93 -36q42 0 61 8v-42q-25 -10 -67 -10zM458 1023q-150 0 -242.5 -123t-100.5 -332h677q-1 206 -91.5 330.5t-242.5 124.5z" />
    <glyph glyph-name="Ecaron" unicode="&#x11a;" horiz-adv-x="937" 
d="M847 46v-46h-728v1443h728v-46h-678v-633h647v-46h-647v-672h678zM463 1554l-234 287h55l200 -249h2l199 249h55l-233 -287h-44z" />
    <glyph glyph-name="ecaron" unicode="&#x11b;" horiz-adv-x="909" 
d="M460 1023q-151 0 -243 -122.5t-100 -332.5h678q0 206 -91.5 330.5t-243.5 124.5zM783 292h50q-24 -141 -120 -224t-246 -83q-188 0 -294 140t-106 401q0 252 106 397t287 145q176 0 280 -136.5t104 -369.5v-39h-728v-1q0 -236 94 -364t258 -128q129 0 211.5 72t103.5 190
zM480 1229h-43l-233 304h54l199 -264h2l200 264h53z" />
    <glyph glyph-name="Gcircumflex" unicode="&#x11c;" horiz-adv-x="1157" 
d="M1085 563q0 -274 -128 -428.5t-358 -154.5q-242 0 -386.5 205t-144.5 546q0 337 143.5 534.5t387.5 197.5q187 0 315 -115t163 -312h-49q-36 176 -150 278.5t-279 102.5q-221 0 -351 -186t-130 -500q0 -320 130.5 -512.5t350.5 -192.5q207 0 322 141.5t115 394.5v100
h-447v46h496v-145zM576 1840h44l233 -287h-54l-200 249h-3l-200 -249h-54z" />
    <glyph glyph-name="gcircumflex" unicode="&#x11d;" horiz-adv-x="960" 
d="M455 35q153 0 248.5 131.5t95.5 361.5q0 231 -95.5 363t-248.5 132q-154 0 -247 -135.5t-93 -360.5q0 -224 93 -358t247 -134zM477 -360q-147 0 -242.5 69.5t-117.5 186.5h51q25 -97 105.5 -154t204.5 -57q149 0 235 88.5t86 252.5v255h-2q-30 -130 -123.5 -211
t-221.5 -81q-176 0 -281.5 144t-105.5 394q0 251 105.5 396t281.5 145q128 0 221.5 -80.5t125.5 -215.5h3v281h47v-1029q0 -185 -100.5 -284.5t-271.5 -99.5zM504 1513l225 -302h-52l-194 259h-2l-194 -259h-52l225 302h44z" />
    <glyph glyph-name="Gbreve" unicode="&#x11e;" horiz-adv-x="1157" 
d="M1085 563q0 -274 -128 -428.5t-358 -154.5q-242 0 -386.5 205t-144.5 546q0 337 143.5 534.5t387.5 197.5q187 0 315 -115t163 -312h-49q-36 176 -150 278.5t-279 102.5q-221 0 -351 -186t-130 -500q0 -320 130.5 -512.5t350.5 -192.5q207 0 322 141.5t115 394.5v100
h-447v46h496v-145zM369 1771h43q0 -77 51 -126t135 -49t134.5 49t50.5 126h43q-1 -101 -63.5 -159.5t-164.5 -58.5t-165 58.5t-64 159.5z" />
    <glyph glyph-name="gbreve" unicode="&#x11f;" horiz-adv-x="960" 
d="M455 35q153 0 248.5 131.5t95.5 361.5q0 231 -95.5 363t-248.5 132q-154 0 -247 -135.5t-93 -360.5q0 -224 93 -358t247 -134zM477 -360q-147 0 -242.5 69.5t-117.5 186.5h51q25 -97 105.5 -154t204.5 -57q149 0 235 88.5t86 252.5v255h-2q-30 -130 -123.5 -211
t-221.5 -81q-176 0 -281.5 144t-105.5 394q0 251 105.5 396t281.5 145q128 0 221.5 -80.5t125.5 -215.5h3v281h47v-1029q0 -185 -100.5 -284.5t-271.5 -99.5zM253 1465h42q0 -90 50.5 -142t136.5 -52t136 52t50 142h43q0 -113 -63 -174.5t-166 -61.5q-104 0 -166.5 61.5
t-62.5 174.5z" />
    <glyph glyph-name="Gdotaccent" unicode="&#x120;" horiz-adv-x="1157" 
d="M1085 563q0 -274 -128 -428.5t-358 -154.5q-242 0 -386.5 205t-144.5 546q0 337 143.5 534.5t387.5 197.5q187 0 315 -115t163 -312h-49q-36 176 -150 278.5t-279 102.5q-221 0 -351 -186t-130 -500q0 -320 130.5 -512.5t350.5 -192.5q207 0 322 141.5t115 394.5v100
h-447v46h496v-145zM598 1596q-25 0 -42 17t-17 41t17 41t42 17q24 0 41 -17t17 -41t-17 -41t-41 -17z" />
    <glyph glyph-name="gdotaccent" unicode="&#x121;" horiz-adv-x="960" 
d="M455 35q153 0 248.5 131.5t95.5 361.5q0 231 -95.5 363t-248.5 132q-154 0 -247 -135.5t-93 -360.5q0 -224 93 -358t247 -134zM477 -360q-147 0 -242.5 69.5t-117.5 186.5h51q25 -97 105.5 -154t204.5 -57q149 0 235 88.5t86 252.5v255h-2q-30 -130 -123.5 -211
t-221.5 -81q-176 0 -281.5 144t-105.5 394q0 251 105.5 396t281.5 145q128 0 221.5 -80.5t125.5 -215.5h3v281h47v-1029q0 -185 -100.5 -284.5t-271.5 -99.5zM482 1247q-24 0 -41.5 17t-17.5 41t17.5 41t41.5 17t41 -17t17 -41t-17 -41t-41 -17z" />
    <glyph glyph-name="Gcommaaccent" unicode="&#x122;" horiz-adv-x="1157" 
d="M1085 563q0 -274 -128 -428.5t-358 -154.5q-242 0 -386.5 205t-144.5 546q0 337 143.5 534.5t387.5 197.5q187 0 315 -115t163 -312h-49q-36 176 -150 278.5t-279 102.5q-221 0 -351 -186t-130 -500q0 -320 130.5 -512.5t350.5 -192.5q207 0 322 141.5t115 394.5v100
h-447v46h496v-145zM534 -463h-44l90 337h55z" />
    <glyph glyph-name="gcommaaccent" unicode="&#x123;" horiz-adv-x="960" 
d="M455 35q153 0 248.5 131.5t95.5 361.5q0 231 -95.5 363t-248.5 132q-154 0 -247 -135.5t-93 -360.5q0 -224 93 -358t247 -134zM477 -360q-147 0 -242.5 69.5t-117.5 186.5h51q25 -97 105.5 -154t204.5 -57q149 0 235 88.5t86 252.5v255h-2q-30 -130 -123.5 -211
t-221.5 -81q-176 0 -281.5 144t-105.5 394q0 251 105.5 396t281.5 145q128 0 221.5 -80.5t125.5 -215.5h3v281h47v-1029q0 -185 -100.5 -284.5t-271.5 -99.5zM546 1515h43l-90 -337h-54z" />
    <glyph glyph-name="Hcircumflex" unicode="&#x124;" horiz-adv-x="1154" 
d="M1035 0h-50v718h-816v-718h-50v1443h50v-678h816v678h50v-1443zM555 1840h44l234 -287h-54l-201 249h-2l-201 -249h-54z" />
    <glyph glyph-name="hcircumflex" unicode="&#x125;" horiz-adv-x="934" 
d="M118 0v1443h49v-608h3q29 104 117.5 168.5t206.5 64.5q155 0 246.5 -96.5t91.5 -265.5v-706h-49v703q0 150 -79.5 235t-216.5 85q-143 0 -231.5 -103.5t-88.5 -262.5v-657h-49zM121 1840h44l234 -287h-55l-200 249h-2l-201 -249h-54z" />
    <glyph glyph-name="Hbar" unicode="&#x126;" horiz-adv-x="1182" 
d="M999 765v371h-817v-371h817zM1160 1180v-44h-111v-1136h-50v718h-817v-718h-49v1136h-111v44h111v263h49v-263h817v263h50v-263h111z" />
    <glyph glyph-name="hbar" unicode="&#x127;" horiz-adv-x="948" 
d="M181 835h2q30 104 118 168.5t206 64.5q156 0 247 -96.5t91 -265.5v-706h-49v703q0 150 -79.5 235t-216.5 85q-143 0 -231 -103t-88 -263v-657h-49v1243h-124v43h124v157h49v-157h252v-43h-252v-408z" />
    <glyph glyph-name="Itilde" unicode="&#x128;" horiz-adv-x="288" 
d="M169 0h-50v1443h50v-1443zM265 1574q-32 0 -60.5 17t-49 41t-40.5 47.5t-43.5 40.5t-48.5 17q-84 0 -82 -154h-44q0 93 32.5 145t94.5 52q33 0 61.5 -17t49 -41t40 -48t43 -41t48.5 -17q82 0 82 155h43q0 -93 -32 -145t-94 -52z" />
    <glyph glyph-name="itilde" unicode="&#x129;" horiz-adv-x="284" 
d="M118 0v1053h49v-1053h-49zM263 1225q-32 0 -60.5 17t-49 40.5t-40 47.5t-43 41t-48.5 17q-83 0 -83 -154h-43q0 93 32 145t95 52q32 0 60.5 -17t49 -41t40.5 -48t43 -41t48 -17q83 0 83 155h43q0 -93 -32.5 -145t-94.5 -52z" />
    <glyph glyph-name="Imacron" unicode="&#x12a;" horiz-adv-x="288" 
d="M169 0h-50v1443h50v-1443zM393 1659v-43h-498v43h498z" />
    <glyph glyph-name="imacron" unicode="&#x12b;" horiz-adv-x="284" 
d="M118 0v1053h49v-1053h-49zM332 1323v-43h-388v43h388z" />
    <glyph glyph-name="Ibreve" unicode="&#x12c;" horiz-adv-x="288" 
d="M169 0h-50v1443h50v-1443zM-85 1771h43q1 -77 51.5 -126t134.5 -49t134.5 49t51.5 126h42q0 -101 -63 -159.5t-165 -58.5t-165 58.5t-64 159.5z" />
    <glyph glyph-name="ibreve" unicode="&#x12d;" horiz-adv-x="284" 
d="M118 0v1053h49v-1053h-49zM-86 1465h42q0 -90 50.5 -142t136.5 -52t136 52t50 142h43q0 -113 -63 -174.5t-166 -61.5q-104 0 -166.5 61.5t-62.5 174.5z" />
    <glyph glyph-name="Iogonek" unicode="&#x12e;" horiz-adv-x="288" 
d="M119 16v1427h50v-1443l-8 -4q-148 -78 -148 -205q0 -58 37 -94t96 -36q44 0 63 8v-42q-25 -10 -69 -10q-76 0 -125 47t-49 122q0 70 39.5 130t113.5 100z" />
    <glyph glyph-name="iogonek" unicode="&#x12f;" horiz-adv-x="284" 
d="M142 1312q-20 0 -34 13.5t-14 33.5t14 33.5t34 13.5t34 -13.5t14 -33.5t-14 -33.5t-34 -13.5zM118 14v1039h49v-1053l-9 -5q-139 -79 -139 -201q0 -56 35.5 -90.5t92.5 -34.5q41 0 60 8v-42q-23 -10 -66 -10q-74 0 -121.5 46t-47.5 118q0 139 146 225z" />
    <glyph glyph-name="Idotaccent" unicode="&#x130;" horiz-adv-x="288" 
d="M169 0h-50v1443h50v-1443zM144 1596q-24 0 -41.5 17t-17.5 41t17.5 41t41.5 17t41 -17t17 -41t-17 -41t-41 -17z" />
    <glyph glyph-name="dotlessi" unicode="&#x131;" horiz-adv-x="284" 
d="M118 0v1053h49v-1053h-49z" />
    <glyph glyph-name="IJ" unicode="&#x132;" horiz-adv-x="1134" 
d="M169 0h-50v1443h50v-1443zM330 317h48q7 -133 87 -212t207 -79q143 0 220.5 91.5t77.5 265.5v1060h50v-1064q0 -190 -91.5 -295t-256.5 -105q-149 0 -243.5 93t-98.5 245z" />
    <glyph glyph-name="ij" unicode="&#x133;" horiz-adv-x="582" 
d="M433 1314q-20 0 -34 13.5t-14 33.5t14 33.5t34 13.5t34 -13.5t14 -33.5t-14 -33.5t-34 -13.5zM458 1053v-1150q0 -129 -56.5 -187t-172.5 -58h-28v45h25q96 0 139.5 47t43.5 152v1151h49zM142 1314q-20 0 -33.5 13.5t-13.5 33.5t13.5 33.5t33.5 13.5t34 -13.5t14 -33.5
t-14 -33.5t-34 -13.5zM118 0v1053h49v-1053h-49z" />
    <glyph glyph-name="Jcircumflex" unicode="&#x134;" horiz-adv-x="847" 
d="M42 317h49q6 -133 86 -212t207 -79q144 0 221 91.5t77 265.5v1060h50v-1064q0 -190 -91 -295t-257 -105q-148 0 -243 93t-99 245zM685 1840h44l234 -287h-54l-201 249h-2l-201 -249h-53z" />
    <glyph glyph-name="jcircumflex" unicode="&#x135;" horiz-adv-x="284" 
d="M165 1513l225 -302h-52l-194 259h-2l-194 -259h-52l225 302h44zM167 1053v-1150q0 -127 -55.5 -186.5t-173.5 -59.5q-27 0 -28 1v45h25q97 0 140 47t43 152v1151h49z" />
    <glyph glyph-name="Kcommaaccent" unicode="&#x136;" horiz-adv-x="993" 
d="M169 0h-50v1443h50v-838h4l684 838h60l-520 -639l582 -804h-62l-554 764l-194 -238v-526zM411 -463h-44l90 337h55z" />
    <glyph glyph-name="kcommaaccent" unicode="&#x137;" horiz-adv-x="799" 
d="M168 495l552 558h64l-443 -452l446 -601h-61l-423 568l-136 -137v-431h-49v1443h49v-948h1zM349 -463h-43l90 337h54z" />
    <glyph glyph-name="Lacute" unicode="&#x139;" horiz-adv-x="882" 
d="M832 46v-46h-713v1443h50v-1397h663zM163 1554h-54l256 287h62z" />
    <glyph glyph-name="lacute" unicode="&#x13a;" horiz-adv-x="284" 
d="M118 0v1443h49v-1443h-49zM161 1554h-54l256 287h62z" />
    <glyph glyph-name="Lcommaaccent" unicode="&#x13b;" horiz-adv-x="882" 
d="M832 46v-46h-713v1443h50v-1397h663zM419 -463h-44l90 337h55z" />
    <glyph glyph-name="lcommaaccent" unicode="&#x13c;" horiz-adv-x="284" 
d="M118 0v1443h49v-1443h-49zM78 -463h-43l90 337h54z" />
    <glyph glyph-name="Lcaron" unicode="&#x13d;" horiz-adv-x="882" 
d="M511 1443h49l-11 -427h-38v427zM832 46v-46h-713v1443h50v-1397h663z" />
    <glyph glyph-name="lcaron" unicode="&#x13e;" horiz-adv-x="325" 
d="M315 1458h47l-12 -362h-35v362zM118 0v1443h49v-1443h-49z" />
    <glyph glyph-name="Lslash" unicode="&#x141;" horiz-adv-x="899" 
d="M186 46h664v-46h-713v690l-122 -76v48l122 76v705h49v-674l333 208v-48l-333 -208v-675z" />
    <glyph glyph-name="lslash" unicode="&#x142;" horiz-adv-x="286" 
d="M278 891v-49l-111 -76v-766h-49v732l-109 -75v50l109 75v661h49v-628z" />
    <glyph glyph-name="Nacute" unicode="&#x143;" horiz-adv-x="1169" 
d="M167 0h-48v1443h60l818 -1351h5v1351h48v-1443h-54l-824 1358h-5v-1358zM604 1554h-55l257 287h62z" />
    <glyph glyph-name="nacute" unicode="&#x144;" horiz-adv-x="931" 
d="M112 0v1053h46v-218h3q30 104 118 168.5t206 64.5q156 0 248 -96.5t92 -265.5v-706h-49v703q0 151 -80.5 235.5t-217.5 84.5q-143 0 -230 -103t-87 -263v-657h-49zM481 1211h-50l198 302h57z" />
    <glyph glyph-name="Ncommaaccent" unicode="&#x145;" horiz-adv-x="1169" 
d="M167 0h-48v1443h60l818 -1351h5v1351h48v-1443h-54l-824 1358h-5v-1358zM521 -463h-44l90 337h55z" />
    <glyph glyph-name="ncommaaccent" unicode="&#x146;" horiz-adv-x="931" 
d="M112 0v1053h46v-218h3q30 104 118 168.5t206 64.5q156 0 248 -96.5t92 -265.5v-706h-49v703q0 151 -80.5 235.5t-217.5 84.5q-143 0 -230 -103t-87 -263v-657h-49zM392 -463h-43l89 337h55z" />
    <glyph glyph-name="Ncaron" unicode="&#x147;" horiz-adv-x="1169" 
d="M167 0h-48v1443h60l818 -1351h5v1351h48v-1443h-54l-824 1358h-5v-1358zM563 1554l-234 287h55l199 -249h3l199 249h55l-234 -287h-43z" />
    <glyph glyph-name="ncaron" unicode="&#x148;" horiz-adv-x="931" 
d="M112 0v1053h46v-218h3q30 104 118 168.5t206 64.5q156 0 248 -96.5t92 -265.5v-706h-49v703q0 151 -80.5 235.5t-217.5 84.5q-143 0 -230 -103t-87 -263v-657h-49zM491 1229h-42l-233 304h54l199 -264h2l199 264h54z" />
    <glyph glyph-name="Omacron" unicode="&#x14c;" horiz-adv-x="1211" 
d="M605 1463q251 0 394 -196.5t143 -544.5t-142.5 -545t-394.5 -197q-251 0 -394 197t-143 545q0 347 143.5 544t393.5 197zM605 1417q-227 0 -357 -186t-130 -509t130.5 -509.5t356.5 -186.5t356.5 186.5t130.5 509.5t-130.5 509t-356.5 186zM854 1659v-43h-497v43h497z
" />
    <glyph glyph-name="omacron" unicode="&#x14d;" horiz-adv-x="938" 
d="M469 -15q-185 0 -293.5 143.5t-108.5 397.5q0 255 108.5 398.5t293.5 143.5t293.5 -143.5t108.5 -398.5q0 -254 -108.5 -397.5t-293.5 -143.5zM469 30q162 0 257.5 132.5t95.5 363.5t-95.5 364t-257.5 133t-257.5 -133t-95.5 -364t95.5 -363.5t257.5 -132.5zM679 1323
v-44h-430v44h430z" />
    <glyph glyph-name="Obreve" unicode="&#x14e;" horiz-adv-x="1211" 
d="M605 1463q251 0 394 -196.5t143 -544.5t-142.5 -545t-394.5 -197q-251 0 -394 197t-143 545q0 347 143.5 544t393.5 197zM605 1417q-227 0 -357 -186t-130 -509t130.5 -509.5t356.5 -186.5t356.5 186.5t130.5 509.5t-130.5 509t-356.5 186zM377 1771h43q0 -77 50.5 -126
t134.5 -49t135 49t51 126h43q-1 -101 -64 -159.5t-165 -58.5t-164.5 58.5t-63.5 159.5z" />
    <glyph glyph-name="obreve" unicode="&#x14f;" horiz-adv-x="938" 
d="M469 -15q-185 0 -293.5 143.5t-108.5 397.5q0 255 108.5 398.5t293.5 143.5t293.5 -143.5t108.5 -398.5q0 -254 -108.5 -397.5t-293.5 -143.5zM469 30q162 0 257.5 132.5t95.5 363.5t-95.5 364t-257.5 133t-257.5 -133t-95.5 -364t95.5 -363.5t257.5 -132.5zM239 1464h43
q0 -90 50 -142t136 -52t136.5 52t50.5 142h42q0 -113 -62.5 -174.5t-166.5 -61.5q-103 0 -166 61.5t-63 174.5z" />
    <glyph glyph-name="Ohungarumlaut" unicode="&#x150;" horiz-adv-x="1211" 
d="M605 1463q251 0 394 -196.5t143 -544.5t-142.5 -545t-394.5 -197q-251 0 -394 197t-143 545q0 347 143.5 544t393.5 197zM605 1417q-227 0 -357 -186t-130 -509t130.5 -509.5t356.5 -186.5t356.5 186.5t130.5 509.5t-130.5 509t-356.5 186zM753 1554h-53l255 287h62z
M527 1554h-54l255 287h63z" />
    <glyph glyph-name="ohungarumlaut" unicode="&#x151;" horiz-adv-x="938" 
d="M469 -15q-185 0 -293.5 143.5t-108.5 397.5q0 255 108.5 398.5t293.5 143.5t293.5 -143.5t108.5 -398.5q0 -254 -108.5 -397.5t-293.5 -143.5zM469 30q162 0 257.5 132.5t95.5 363.5t-95.5 364t-257.5 133t-257.5 -133t-95.5 -364t95.5 -363.5t257.5 -132.5zM543 1210
l205 302h56l-212 -302h-49zM343 1210l205 302h56l-212 -302h-49z" />
    <glyph glyph-name="OE" unicode="&#x152;" horiz-adv-x="1873" 
d="M609 1417q-228 0 -359.5 -186.5t-131.5 -508.5t131.5 -509t359.5 -187t359.5 187t131.5 509t-131.5 508.5t-359.5 186.5zM1101 0v386h-1q-55 -197 -181.5 -301.5t-309.5 -104.5q-255 0 -398 196t-143 546t143.5 545.5t397.5 195.5q183 0 309.5 -104t181.5 -300h1v384h705
v-46h-656v-633h625v-46h-625v-672h656v-46h-705z" />
    <glyph glyph-name="oe" unicode="&#x153;" horiz-adv-x="1659" 
d="M1221 -15q-148 0 -249 93.5t-125 251.5h-5q-26 -160 -126.5 -254t-249.5 -94q-186 0 -293.5 143.5t-107.5 398.5t108 399t293 144q148 0 249 -94t128 -253h4q24 158 123.5 253t242.5 95q177 0 280.5 -136t103.5 -370v-39h-727v-2q0 -228 94 -359.5t257 -131.5
q129 0 211.5 72.5t103.5 190.5h50q-24 -141 -119.5 -224.5t-245.5 -83.5zM1548 568q0 205 -92 330t-243 125q-149 0 -242.5 -123t-100.5 -332h678zM115 524q0 -231 95 -363.5t257 -132.5t257.5 133t95.5 363q0 231 -95.5 364t-257.5 133t-257 -133t-95 -364z" />
    <glyph glyph-name="Racute" unicode="&#x154;" horiz-adv-x="1008" 
d="M169 1397v-714h332q176 0 274 95t98 265q0 171 -99.5 262.5t-278.5 91.5h-326zM169 637v-637h-50v1443h378q201 0 313.5 -104.5t112.5 -295.5q0 -160 -82.5 -264.5t-227.5 -131.5l341 -647h-56l-336 639q-11 -2 -51 -2h-342zM456 1554h-55l257 287h62z" />
    <glyph glyph-name="racute" unicode="&#x155;" horiz-adv-x="541" 
d="M112 0v1053h46v-201h3q28 106 93 161t159 55q55 0 95 -20v-51q-42 24 -101 24q-115 0 -180.5 -101.5t-65.5 -265.5v-654h-49zM310 1211h-50l199 302h57z" />
    <glyph glyph-name="Rcommaaccent" unicode="&#x156;" horiz-adv-x="1008" 
d="M169 1397v-714h332q176 0 274 95t98 265q0 171 -99.5 262.5t-278.5 91.5h-326zM169 637v-637h-50v1443h378q201 0 313.5 -104.5t112.5 -295.5q0 -160 -82.5 -264.5t-227.5 -131.5l341 -647h-56l-336 639q-11 -2 -51 -2h-342zM373 -463h-44l90 337h55z" />
    <glyph glyph-name="rcommaaccent" unicode="&#x157;" horiz-adv-x="541" 
d="M112 0v1053h46v-201h3q28 106 93 161t159 55q55 0 95 -20v-51q-42 24 -101 24q-115 0 -180.5 -101.5t-65.5 -265.5v-654h-49zM73 -463h-44l90 337h54z" />
    <glyph glyph-name="Rcaron" unicode="&#x158;" horiz-adv-x="1008" 
d="M169 1397v-714h332q176 0 274 95t98 265q0 171 -99.5 262.5t-278.5 91.5h-326zM169 637v-637h-50v1443h378q201 0 313.5 -104.5t112.5 -295.5q0 -160 -82.5 -264.5t-227.5 -131.5l341 -647h-56l-336 639q-11 -2 -51 -2h-342zM415 1554l-234 287h55l199 -249h3l199 249h55
l-233 -287h-44z" />
    <glyph glyph-name="rcaron" unicode="&#x159;" horiz-adv-x="541" 
d="M112 0v1053h46v-201h3q28 106 93 161t159 55q55 0 95 -20v-51q-42 24 -101 24q-115 0 -180.5 -101.5t-65.5 -265.5v-654h-49zM321 1229h-43l-233 304h54l200 -264h1l200 264h54z" />
    <glyph glyph-name="Sacute" unicode="&#x15a;" horiz-adv-x="993" 
d="M58 398h49q7 -171 118 -271.5t288 -100.5q165 0 269 95t104 243q0 121 -71.5 197t-239.5 133l-140 46q-178 60 -260 144t-82 215q0 160 115 262t287 102q181 0 295.5 -103t120.5 -274h-48q-7 151 -108 241t-260 90q-151 0 -251.5 -88.5t-100.5 -229.5q0 -114 75 -187
t237 -128l138 -45q182 -62 262.5 -149t80.5 -225q0 -169 -118 -277t-307 -108q-199 0 -322.5 112.5t-130.5 305.5zM515 1554h-55l257 287h62z" />
    <glyph glyph-name="sacute" unicode="&#x15b;" horiz-adv-x="805" 
d="M89 796q0 121 88.5 196.5t225.5 75.5q145 0 231.5 -82.5t99.5 -235.5h-48q-14 132 -88 202.5t-196 70.5q-114 0 -189 -62.5t-75 -162.5q0 -85 55 -135.5t175 -86.5l115 -33q140 -42 202.5 -105t62.5 -172q0 -126 -94.5 -203.5t-241.5 -77.5q-152 0 -248.5 85.5
t-105.5 224.5h49q11 -120 94.5 -193t210.5 -73q125 0 206 64.5t81 169.5q0 92 -55.5 146.5t-176.5 89.5l-118 34q-133 38 -196.5 100t-63.5 163zM415 1211h-50l199 302h57z" />
    <glyph glyph-name="Scircumflex" unicode="&#x15c;" horiz-adv-x="993" 
d="M58 398h49q7 -171 118 -271.5t288 -100.5q165 0 269 95t104 243q0 121 -71.5 197t-239.5 133l-140 46q-178 60 -260 144t-82 215q0 160 115 262t287 102q181 0 295.5 -103t120.5 -274h-48q-7 151 -108 241t-260 90q-151 0 -251.5 -88.5t-100.5 -229.5q0 -114 75 -187
t237 -128l138 -45q182 -62 262.5 -149t80.5 -225q0 -169 -118 -277t-307 -108q-199 0 -322.5 112.5t-130.5 305.5zM474 1840h44l233 -287h-54l-200 249h-2l-201 -249h-54z" />
    <glyph glyph-name="scircumflex" unicode="&#x15d;" horiz-adv-x="805" 
d="M89 796q0 121 88.5 196.5t225.5 75.5q145 0 231.5 -82.5t99.5 -235.5h-48q-14 132 -88 202.5t-196 70.5q-114 0 -189 -62.5t-75 -162.5q0 -85 55 -135.5t175 -86.5l115 -33q140 -42 202.5 -105t62.5 -172q0 -126 -94.5 -203.5t-241.5 -77.5q-152 0 -248.5 85.5
t-105.5 224.5h49q11 -120 94.5 -193t210.5 -73q125 0 206 64.5t81 169.5q0 92 -55.5 146.5t-176.5 89.5l-118 34q-133 38 -196.5 100t-63.5 163zM426 1513l226 -302h-52l-194 259h-2l-194 -259h-52l225 302h43z" />
    <glyph glyph-name="Scedilla" unicode="&#x15e;" horiz-adv-x="993" 
d="M455 784l138 -45q182 -62 262.5 -149t80.5 -225q0 -166 -113.5 -273.5t-297.5 -111.5l-44 -115q88 -2 138.5 -42.5t50.5 -116.5t-54.5 -121.5t-144.5 -45.5q-64 0 -107 16v44q40 -17 105 -17q68 0 111 34.5t43 88.5q0 57 -39.5 87.5t-114.5 30.5h-36v33l48 125
q-187 8 -301.5 119.5t-121.5 297.5h49q7 -171 118 -271.5t288 -100.5q165 0 269 95t104 243q0 121 -71.5 197t-239.5 133l-140 46q-178 60 -260 144t-82 215q0 160 115 262t287 102q181 0 295.5 -103t120.5 -274h-48q-7 151 -108 241t-260 90q-151 0 -251.5 -88.5
t-100.5 -229.5q0 -114 75 -187t237 -128z" />
    <glyph glyph-name="scedilla" unicode="&#x15f;" horiz-adv-x="805" 
d="M368 576l115 -33q140 -42 202.5 -105t62.5 -172q0 -123 -90 -199.5t-232 -81.5l-45 -120q87 -2 137.5 -42.5t50.5 -116.5t-54.5 -121.5t-144.5 -45.5q-64 0 -107 16v44q40 -17 105 -17q68 0 111 34.5t43 88.5q0 57 -39.5 87.5t-114.5 30.5h-36v33l50 130q-140 9 -228 93
t-96 216h49q11 -120 94.5 -193t210.5 -73q125 0 206 64.5t81 169.5q0 92 -55.5 146.5t-176.5 89.5l-118 34q-133 38 -196.5 100t-63.5 163q0 121 88.5 196.5t225.5 75.5q145 0 231.5 -82.5t99.5 -235.5h-48q-14 132 -88 202.5t-196 70.5q-114 0 -189 -62.5t-75 -162.5
q0 -85 55 -135.5t175 -86.5z" />
    <glyph glyph-name="Scaron" unicode="&#x160;" horiz-adv-x="993" 
d="M58 398h49q7 -171 118 -271.5t288 -100.5q165 0 269 95t104 243q0 121 -71.5 197t-239.5 133l-140 46q-178 60 -260 144t-82 215q0 160 115 262t287 102q181 0 295.5 -103t120.5 -274h-48q-7 151 -108 241t-260 90q-151 0 -251.5 -88.5t-100.5 -229.5q0 -114 75 -187
t237 -128l138 -45q182 -62 262.5 -149t80.5 -225q0 -169 -118 -277t-307 -108q-199 0 -322.5 112.5t-130.5 305.5zM474 1554l-234 287h55l200 -249h2l199 249h55l-233 -287h-44z" />
    <glyph glyph-name="scaron" unicode="&#x161;" horiz-adv-x="805" 
d="M89 796q0 121 88.5 196.5t225.5 75.5q145 0 231.5 -82.5t99.5 -235.5h-48q-14 132 -88 202.5t-196 70.5q-114 0 -189 -62.5t-75 -162.5q0 -85 55 -135.5t175 -86.5l115 -33q140 -42 202.5 -105t62.5 -172q0 -126 -94.5 -203.5t-241.5 -77.5q-152 0 -248.5 85.5
t-105.5 224.5h49q11 -120 94.5 -193t210.5 -73q125 0 206 64.5t81 169.5q0 92 -55.5 146.5t-176.5 89.5l-118 34q-133 38 -196.5 100t-63.5 163zM426 1229h-43l-233 304h54l199 -264h2l200 264h54z" />
    <glyph glyph-name="Tcedilla" unicode="&#x162;" horiz-adv-x="999" 
d="M525 0l-52 -135q87 -2 137.5 -42.5t50.5 -116.5t-54.5 -121.5t-144.5 -45.5q-64 0 -107 16v44q40 -17 105 -17q68 0 111 34.5t43 88.5q0 57 -39.5 87.5t-114.5 30.5h-36v33l56 144h-5v1397h-454v46h958v-46h-454v-1397z" />
    <glyph glyph-name="tcedilla" unicode="&#x163;" horiz-adv-x="467" 
d="M340 -1l-52 -134q87 -2 137.5 -42.5t50.5 -116.5t-54.5 -121.5t-144.5 -45.5q-64 0 -107 16v44q40 -17 105 -17q68 0 111 34.5t43 88.5q0 57 -39.5 87.5t-114.5 30.5h-36v33l57 147q-71 13 -102.5 66.5t-31.5 160.5v777h-141v46h141v282h49v-282h194v-46h-194v-777
q0 -100 33.5 -142.5t109.5 -42.5q66 0 68 1v-46l-71 -1h-11z" />
    <glyph glyph-name="Tcaron" unicode="&#x164;" horiz-adv-x="999" 
d="M525 0h-50v1397h-454v46h958v-46h-454v-1397zM478 1554l-234 287h55l200 -249h2l199 249h55l-233 -287h-44z" />
    <glyph glyph-name="tcaron" unicode="&#x165;" horiz-adv-x="537" 
d="M162 1335h49v-282h194v-46h-194v-777q0 -100 33.5 -142.5t109.5 -42.5q66 0 68 1v-46l-71 -1q-101 0 -145 53t-44 178v777h-141v46h141v282zM340 1566h48l-12 -362h-36v362z" />
    <glyph glyph-name="Tbar" unicode="&#x166;" horiz-adv-x="999" 
d="M979 1397h-454v-618h286v-45h-286v-734h-50v734h-287v45h287v618h-454v46h958v-46z" />
    <glyph glyph-name="tbar" unicode="&#x167;" horiz-adv-x="468" 
d="M211 595v-365q0 -100 33.5 -142.5t109.5 -42.5q66 0 68 1v-46l-71 -1q-101 0 -145 53t-44 178v365h-141v44h141v368h-141v46h141v282h49v-282h194v-46h-194v-368h205v-44h-205z" />
    <glyph glyph-name="Utilde" unicode="&#x168;" horiz-adv-x="1145" 
d="M165 1443v-950q0 -221 108 -344t300 -123t300 123t108 344v950h50v-951q0 -240 -121 -376t-337 -136t-336.5 136t-120.5 376v951h49zM693 1574q-32 0 -60.5 17t-49 41t-40 47.5t-43 40.5t-48.5 17q-83 0 -83 -154h-43q0 93 32 145t95 52q32 0 60.5 -17t49 -41t40.5 -48
t43 -41t48 -17q83 0 83 155h43q0 -93 -32.5 -145t-94.5 -52z" />
    <glyph glyph-name="utilde" unicode="&#x169;" horiz-adv-x="930" 
d="M818 1053v-1053h-46v211h-3q-29 -100 -120.5 -163t-207.5 -63q-154 0 -244.5 92.5t-90.5 259.5v716h49v-711q0 -150 79 -231t214 -81q141 0 231 98.5t91 257.5v667h48zM585 1224q-32 0 -60.5 17t-49 41t-40.5 47.5t-43.5 40.5t-48.5 17q-82 0 -82 -154h-43q0 93 32 145
t94 52q33 0 61.5 -17t49 -41t40 -48t43 -41t48.5 -17q82 0 82 155h43q0 -93 -32 -145t-94 -52z" />
    <glyph glyph-name="Umacron" unicode="&#x16a;" horiz-adv-x="1145" 
d="M165 1443v-950q0 -221 108 -344t300 -123t300 123t108 344v950h50v-951q0 -240 -121 -376t-337 -136t-336.5 136t-120.5 376v951h49zM821 1659v-43h-498v43h498z" />
    <glyph glyph-name="umacron" unicode="&#x16b;" horiz-adv-x="930" 
d="M818 1053v-1053h-46v211h-3q-29 -100 -120.5 -163t-207.5 -63q-154 0 -244.5 92.5t-90.5 259.5v716h49v-711q0 -150 79 -231t214 -81q141 0 231 98.5t91 257.5v667h48zM675 1323v-44h-430v44h430z" />
    <glyph glyph-name="Ubreve" unicode="&#x16c;" horiz-adv-x="1145" 
d="M165 1443v-950q0 -221 108 -344t300 -123t300 123t108 344v950h50v-951q0 -240 -121 -376t-337 -136t-336.5 136t-120.5 376v951h49zM344 1771h43q0 -77 50.5 -126t134.5 -49t135 49t51 126h43q-1 -101 -64 -159.5t-165 -58.5t-164.5 58.5t-63.5 159.5z" />
    <glyph glyph-name="ubreve" unicode="&#x16d;" horiz-adv-x="930" 
d="M818 1053v-1053h-46v211h-3q-29 -100 -120.5 -163t-207.5 -63q-154 0 -244.5 92.5t-90.5 259.5v716h49v-711q0 -150 79 -231t214 -81q141 0 231 98.5t91 257.5v667h48zM235 1464h43q0 -90 50 -142t136 -52t136.5 52t50.5 142h42q0 -113 -62.5 -174.5t-166.5 -61.5
q-103 0 -166 61.5t-63 174.5z" />
    <glyph glyph-name="Uring" unicode="&#x16e;" horiz-adv-x="1145" 
d="M165 1443v-950q0 -221 108 -344t300 -123t300 123t108 344v950h50v-951q0 -240 -121 -376t-337 -136t-336.5 136t-120.5 376v951h49zM572 1510q-64 0 -109.5 47t-45.5 115t45.5 115t109.5 47t110 -47t46 -115t-46 -115t-110 -47zM572 1548q49 0 82.5 35.5t33.5 88.5
t-33.5 88.5t-82.5 35.5t-82 -35.5t-33 -88.5t33 -88.5t82 -35.5z" />
    <glyph glyph-name="uring" unicode="&#x16f;" horiz-adv-x="930" 
d="M818 1053v-1053h-46v211h-3q-29 -100 -120.5 -163t-207.5 -63q-154 0 -244.5 92.5t-90.5 259.5v716h49v-711q0 -150 79 -231t214 -81q141 0 231 98.5t91 257.5v667h48zM465 1218q-65 0 -110.5 47.5t-45.5 115.5q0 69 45.5 116.5t110.5 47.5t110 -47.5t45 -116.5
q0 -68 -45 -115.5t-110 -47.5zM465 1256q49 0 82.5 36t33.5 89q0 54 -33 89.5t-83 35.5t-83.5 -35.5t-33.5 -89.5q0 -53 33.5 -89t83.5 -36z" />
    <glyph glyph-name="Uhungarumlaut" unicode="&#x170;" horiz-adv-x="1145" 
d="M165 1443v-950q0 -221 108 -344t300 -123t300 123t108 344v950h50v-951q0 -240 -121 -376t-337 -136t-336.5 136t-120.5 376v951h49zM720 1554h-53l255 287h62zM494 1554h-54l255 287h63z" />
    <glyph glyph-name="uhungarumlaut" unicode="&#x171;" horiz-adv-x="930" 
d="M818 1053v-1053h-46v211h-3q-29 -100 -120.5 -163t-207.5 -63q-154 0 -244.5 92.5t-90.5 259.5v716h49v-711q0 -150 79 -231t214 -81q141 0 231 98.5t91 257.5v667h48zM539 1210l205 302h56l-212 -302h-49zM339 1210l205 302h56l-212 -302h-49z" />
    <glyph glyph-name="Uogonek" unicode="&#x172;" horiz-adv-x="1146" 
d="M771 -383q-76 0 -125 47.5t-49 123.5q0 125 130 219v3q-72 -30 -154 -30q-215 0 -336 136t-121 376v951h49v-950q0 -221 108 -343.5t300 -122.5t300 122.5t108 343.5v950h50v-951q0 -298 -196 -442q-98 -69 -144.5 -129.5t-46.5 -128.5q0 -58 37.5 -94.5t95.5 -36.5
q44 0 63 8v-42q-23 -10 -69 -10z" />
    <glyph glyph-name="uogonek" unicode="&#x173;" horiz-adv-x="933" 
d="M821 -365q-23 -10 -66 -10q-74 0 -121.5 46t-47.5 118q0 138 186 228v197h-3q-29 -100 -120.5 -164.5t-207.5 -64.5q-154 0 -244.5 92.5t-90.5 259.5v716h49v-711q0 -150 79 -231t214 -81q141 0 231.5 98.5t90.5 257.5v667h48v-1053l-7 -4q-178 -84 -178 -202
q0 -56 35.5 -90.5t92.5 -34.5q41 0 60 8v-42z" />
    <glyph glyph-name="Wcircumflex" unicode="&#x174;" horiz-adv-x="1574" 
d="M784 1351l-343 -1351h-52l-348 1443h51l323 -1355h4l341 1355h52l342 -1355h4l324 1355h51l-349 -1443h-53l-343 1351h-4zM765 1840h44l234 -287h-54l-201 249h-2l-201 -249h-54z" />
    <glyph glyph-name="wcircumflex" unicode="&#x175;" horiz-adv-x="1244" 
d="M1232 1053l-272 -1053h-69l-268 994h-2l-268 -994h-69l-272 1053h53l252 -999h2l270 999h67l269 -999h2l252 999h53zM644 1513l225 -302h-52l-194 259h-2l-194 -259h-52l226 302h43z" />
    <glyph glyph-name="Ycircumflex" unicode="&#x176;" horiz-adv-x="1024" 
d="M538 0h-50v631l-464 812h58l429 -755h4l428 755h56l-461 -812v-631zM490 1840h44l234 -287h-55l-200 249h-2l-201 -249h-54z" />
    <glyph glyph-name="ycircumflex" unicode="&#x177;" horiz-adv-x="785" 
d="M158 -346q-23 0 -47 8v46q20 -8 48 -8q63 0 102 43.5t77 155.5l29 79l-359 1075h53l331 -1000h2l330 1000h53l-367 -1105q-59 -173 -110 -233.5t-142 -60.5zM415 1512l225 -302h-52l-194 260h-2l-194 -260h-52l225 302h44z" />
    <glyph glyph-name="Ydieresis" unicode="&#x178;" horiz-adv-x="1024" 
d="M538 0h-50v631l-464 812h58l429 -755h4l428 755h56l-461 -812v-631zM388 1595q-21 0 -36.5 15t-15.5 36t15.5 36t36.5 15t36 -15t15 -36t-15.5 -36t-35.5 -15zM636 1595q-21 0 -36 15t-15 36q0 22 15 36.5t36 14.5t36.5 -15t15.5 -36t-15.5 -36t-36.5 -15z" />
    <glyph glyph-name="Zacute" unicode="&#x179;" horiz-adv-x="1026" 
d="M64 0v39l835 1357v1h-810v46h871v-40l-834 -1356v-1h836v-46h-898zM532 1554h-54l256 287h62z" />
    <glyph glyph-name="zacute" unicode="&#x17a;" horiz-adv-x="805" 
d="M58 0v45l631 960v2h-631v46h689v-45l-632 -960v-3h632v-45h-689zM413 1210h-50l198 302h57z" />
    <glyph glyph-name="Zdotaccent" unicode="&#x17b;" horiz-adv-x="1026" 
d="M64 0v39l835 1357v1h-810v46h871v-40l-834 -1356v-1h836v-46h-898zM513 1596q-24 0 -41.5 17t-17.5 41t17.5 41t41.5 17t41 -17t17 -41t-17 -41t-41 -17z" />
    <glyph glyph-name="zdotaccent" unicode="&#x17c;" horiz-adv-x="805" 
d="M58 0v45l631 960v2h-631v46h689v-45l-632 -960v-3h632v-45h-689zM402 1246q-24 0 -41 17t-17 41t17 41t41 17t41.5 -17t17.5 -41t-17.5 -41t-41.5 -17z" />
    <glyph glyph-name="Zcaron" unicode="&#x17d;" horiz-adv-x="1026" 
d="M64 0v39l835 1357v1h-810v46h871v-40l-834 -1356v-1h836v-46h-898zM491 1554l-234 287h56l199 -249h2l199 249h56l-234 -287h-44z" />
    <glyph glyph-name="zcaron" unicode="&#x17e;" horiz-adv-x="805" 
d="M58 0v45l631 960v2h-631v46h689v-45l-632 -960v-3h632v-45h-689zM423 1228h-42l-233 304h54l199 -264h2l199 264h54z" />
    <glyph glyph-name="florin" unicode="&#x192;" horiz-adv-x="1038" 
d="M998 1430v-49q-20 16 -59.5 26t-80.5 10q-110 0 -170.5 -70.5t-84.5 -229.5l-46 -308h376v-46h-383l-67 -441q-27 -178 -98.5 -259.5t-201.5 -81.5q-39 0 -80 10t-63 25v48q23 -16 63.5 -26.5t76.5 -10.5q110 0 170 71t84 230l66 435h-361v46h368l47 313q27 179 99 260
t202 81q41 0 82 -9.5t61 -23.5z" />
    <glyph glyph-name="Ohorn" unicode="&#x1a0;" horiz-adv-x="1211" 
d="M605 -20q-251 0 -394 197t-143 545q0 347 143.5 544t393.5 197q52 0 145 -10.5t180 -10.5q102 0 138 27.5t36 106.5v108h47v-119q0 -92 -47.5 -129.5t-163.5 -37.5h-84v-5q139 -81 212.5 -253.5t73.5 -417.5q0 -348 -142.5 -545t-394.5 -197zM605 27q226 0 356.5 186.5
t130.5 508.5t-130.5 508t-356.5 186q-227 0 -357 -186t-130 -508t130.5 -508.5t356.5 -186.5z" />
    <glyph glyph-name="ohorn" unicode="&#x1a1;" horiz-adv-x="941" 
d="M467 30q163 0 258 133.5t95 362.5t-95.5 363t-257.5 134q-163 0 -257.5 -133.5t-94.5 -363.5t94.5 -363t257.5 -133zM870 526q0 -253 -108.5 -397t-294.5 -144t-294 144t-108 397q0 254 108 398t294 144q52 0 132 -9t122 -9q64 0 88 22.5t24 82.5v121h47v-134
q0 -71 -34.5 -103t-111.5 -32h-66v-4q95 -52 148.5 -177.5t53.5 -299.5z" />
    <glyph glyph-name="Uhorn" unicode="&#x1af;" horiz-adv-x="1253" 
d="M573 -20q-215 0 -336 136t-121 376v951h49v-950q0 -217 109.5 -341.5t298.5 -124.5t298.5 124.5t109.5 341.5v950h112q54 0 79.5 25.5t25.5 80.5v156h48v-168q0 -67 -37.5 -102.5t-107.5 -35.5h-70v-907q0 -240 -121.5 -376t-336.5 -136z" />
    <glyph glyph-name="uhorn" unicode="&#x1b0;" horiz-adv-x="1029" 
d="M769 214q-29 -100 -120.5 -164.5t-207.5 -64.5q-154 0 -244.5 92.5t-90.5 259.5v716h49v-711q0 -150 79 -231t214 -81q141 0 231 98.5t91 257.5v667h107q102 0 102 103v122h47v-134q0 -65 -36.5 -100t-106.5 -35h-65v-1009h-46v214h-3z" />
    <glyph glyph-name="uni01C4" unicode="&#x1c4;" horiz-adv-x="2174" 
d="M119 1443h353q292 0 449.5 -185.5t157.5 -535.5q0 -351 -157.5 -536.5t-449.5 -185.5h-353v1443zM169 1396v-1349h301q271 0 415 173.5t144 501.5t-144 501t-415 173h-301zM1212 0v39l835 1357v1h-809v46h870v-40l-834 -1356v-1h836v-46h-898zM1639 1554l-234 287h56
l199 -249h2l200 249h55l-234 -287h-44z" />
    <glyph glyph-name="uni01C5" unicode="&#x1c5;" horiz-adv-x="1972" 
d="M119 1443h353q292 0 449.5 -185.5t157.5 -535.5q0 -351 -157.5 -536.5t-449.5 -185.5h-353v1443zM169 1396v-1349h301q271 0 415 173.5t144 501.5t-144 501t-415 173h-301zM1206 0v45l632 960v2h-632v46h689v-45l-632 -960v-3h632v-45h-689zM1572 1228h-43l-233 304h54
l199 -264h2l200 264h53z" />
    <glyph glyph-name="uni01C6" unicode="&#x1c6;" horiz-adv-x="1820" 
d="M455 -15q-177 0 -283.5 145.5t-106.5 396.5t106 396t283 145q130 0 224 -79.5t124 -213.5h3v668h49v-1443h-47v281h-2q-29 -131 -125.5 -213.5t-224.5 -82.5zM458 1023q-154 0 -248.5 -135t-94.5 -361t94.5 -361.5t248.5 -135.5q153 0 250 132.5t97 363.5
q0 232 -97 364.5t-250 132.5zM1054 0v45l632 960v2h-632v46h689v-45l-632 -960v-3h632v-45h-689zM1420 1228h-43l-233 304h54l200 -264h1l200 264h54z" />
    <glyph glyph-name="uni01C7" unicode="&#x1c7;" horiz-adv-x="1723" 
d="M832 46v-46h-713v1443h50v-1397h663zM918 317h49q7 -133 87 -212t207 -79q143 0 220.5 91.5t77.5 265.5v1060h49v-1064q0 -190 -91 -295t-256 -105q-149 0 -244 93t-99 245z" />
    <glyph glyph-name="uni01C8" unicode="&#x1c8;" horiz-adv-x="1167" 
d="M1018 1314q-20 0 -34 13.5t-14 33.5t14 33.5t34 13.5t34 -13.5t14 -33.5t-14 -33.5t-34 -13.5zM1043 1053v-1150q0 -129 -56.5 -187t-172.5 -58h-27v45h24q97 0 140 46.5t43 152.5v1151h49zM832 46v-46h-713v1443h50v-1397h663z" />
    <glyph glyph-name="uni01C9" unicode="&#x1c9;" horiz-adv-x="582" 
d="M433 1314q-20 0 -34 13.5t-14 33.5t14 33.5t34 13.5t34 -13.5t14 -33.5t-14 -33.5t-34 -13.5zM458 1053v-1150q0 -129 -56.5 -187t-172.5 -58h-28v45h25q96 0 139.5 47t43.5 152v1151h49zM118 0v1443h49v-1443h-49z" />
    <glyph glyph-name="uni01CA" unicode="&#x1ca;" horiz-adv-x="2016" 
d="M167 0h-48v1443h60l818 -1351h5v1351h48v-1443h-54l-824 1358h-5v-1358zM1211 317h49q6 -133 86 -212t207 -79q144 0 221 91.5t77 265.5v1060h50v-1064q0 -190 -91 -295t-257 -105q-148 0 -243 93t-99 245z" />
    <glyph glyph-name="uni01CB" unicode="&#x1cb;" horiz-adv-x="1460" 
d="M1311 1314q-20 0 -34 13.5t-14 33.5t14 33.5t34 13.5t34 -13.5t14 -33.5t-14 -33.5t-34 -13.5zM1336 1053v-1150q0 -129 -56.5 -187t-172.5 -58h-28v45h25q96 0 139.5 47t43.5 152v1151h49zM167 0h-48v1443h60l818 -1351h5v1351h48v-1443h-54l-824 1358h-5v-1358z" />
    <glyph glyph-name="uni01CC" unicode="&#x1cc;" horiz-adv-x="1244" 
d="M1096 1314q-20 0 -34.5 13.5t-14.5 33.5t14.5 33.5t34.5 13.5t33.5 -13.5t13.5 -33.5t-13.5 -33.5t-33.5 -13.5zM1120 1053v-1150q0 -129 -56.5 -187t-172.5 -58h-27v45h24q97 0 140 46.5t43 152.5v1151h49zM112 0v1053h46v-218h3q30 104 118 168.5t206 64.5
q156 0 248 -96.5t92 -265.5v-706h-49v703q0 151 -80.5 235.5t-217.5 84.5q-143 0 -230 -103t-87 -263v-657h-49z" />
    <glyph glyph-name="Acaron" unicode="&#x1cd;" horiz-adv-x="1074" 
d="M994 0l-162 484h-591l-161 -484h-55l485 1443h53l485 -1443h-54zM534 1370l-278 -840h561l-279 840h-4zM515 1554l-234 287h55l200 -249h2l199 249h56l-234 -287h-44z" />
    <glyph glyph-name="acaron" unicode="&#x1ce;" horiz-adv-x="884" 
d="M393 30q140 0 238.5 97.5t98.5 235.5v205l-289 -31q-157 -21 -235.5 -84.5t-78.5 -179.5q0 -110 76.5 -176.5t189.5 -66.5zM388 -15q-136 0 -223 78.5t-87 208.5q0 136 88 210t266 98l298 31v111q0 145 -72.5 223t-200.5 78t-206 -69t-93 -205h-47q13 153 105 236t242 83
t235 -90t85 -253v-725h-48v211h-2q-33 -99 -126.5 -162.5t-213.5 -63.5zM478 1229h-42l-233 304h54l199 -264h2l199 264h54z" />
    <glyph glyph-name="Icaron" unicode="&#x1cf;" horiz-adv-x="288" 
d="M169 0h-50v1443h50v-1443zM122 1554l-234 287h55l200 -249h2l199 249h55l-233 -287h-44z" />
    <glyph glyph-name="icaron" unicode="&#x1d0;" horiz-adv-x="284" 
d="M118 0v1053h49v-1053h-49zM164 1229h-43l-233 304h54l200 -264h2l199 264h54z" />
    <glyph glyph-name="Ocaron" unicode="&#x1d1;" horiz-adv-x="1211" 
d="M605 1463q251 0 394 -196.5t143 -544.5t-142.5 -545t-394.5 -197q-251 0 -394 197t-143 545q0 347 143.5 544t393.5 197zM605 1417q-227 0 -357 -186t-130 -509t130.5 -509.5t356.5 -186.5t356.5 186.5t130.5 509.5t-130.5 509t-356.5 186zM583 1554l-233 287h55
l199 -249h2l200 249h55l-234 -287h-44z" />
    <glyph glyph-name="ocaron" unicode="&#x1d2;" horiz-adv-x="938" 
d="M469 -15q-185 0 -293.5 143.5t-108.5 397.5q0 255 108.5 398.5t293.5 143.5t293.5 -143.5t108.5 -398.5q0 -254 -108.5 -397.5t-293.5 -143.5zM469 30q162 0 257.5 132.5t95.5 363.5t-95.5 364t-257.5 133t-257.5 -133t-95.5 -364t95.5 -363.5t257.5 -132.5zM490 1228
h-43l-233 304h54l199 -264h2l200 264h53z" />
    <glyph glyph-name="Ucaron" unicode="&#x1d3;" horiz-adv-x="1145" 
d="M165 1443v-950q0 -221 108 -344t300 -123t300 123t108 344v950h50v-951q0 -240 -121 -376t-337 -136t-336.5 136t-120.5 376v951h49zM550 1554l-233 287h55l199 -249h2l200 249h55l-234 -287h-44z" />
    <glyph glyph-name="ucaron" unicode="&#x1d4;" horiz-adv-x="930" 
d="M818 1053v-1053h-46v211h-3q-29 -100 -120.5 -163t-207.5 -63q-154 0 -244.5 92.5t-90.5 259.5v716h49v-711q0 -150 79 -231t214 -81q141 0 231 98.5t91 257.5v667h48zM486 1228h-43l-233 304h54l199 -264h2l200 264h53z" />
    <glyph glyph-name="Udieresismacron" unicode="&#x1d5;" horiz-adv-x="1145" 
d="M165 1443v-950q0 -221 108 -344t300 -123t300 123t108 344v950h50v-951q0 -240 -121 -376t-337 -136t-336.5 136t-120.5 376v951h49zM449 1663q20 0 35.5 -15t15.5 -36t-15.5 -36t-35.5 -15q-21 0 -36 15t-15 36t15 36t36 15zM323 1888h498v-43h-498v43zM696 1663
q21 0 36 -15t15 -36t-15 -36t-36 -15t-36 15t-15 36t15 36t36 15z" />
    <glyph glyph-name="udieresismacron" unicode="&#x1d6;" horiz-adv-x="930" 
d="M818 1053v-1053h-46v211h-3q-29 -100 -120.5 -163t-207.5 -63q-154 0 -244.5 92.5t-90.5 259.5v716h49v-711q0 -150 79 -231t214 -81q141 0 231 98.5t91 257.5v667h48zM340 1235q-21 0 -36.5 15t-15.5 37q0 21 15.5 36t36.5 15t36 -15t15 -36q0 -22 -15 -37t-36 -15z
M589 1235q-21 0 -36.5 15t-15.5 37q0 21 15.5 36t36.5 15t36 -15t15 -36q0 -22 -15 -37t-36 -15zM675 1600v-44h-430v44h430z" />
    <glyph glyph-name="Udieresisacute" unicode="&#x1d7;" horiz-adv-x="1145" 
d="M165 1443v-950q0 -221 108 -344t300 -123t300 123t108 344v950h50v-951q0 -240 -121 -376t-337 -136t-336.5 136t-120.5 376v951h49zM532 1754l186 203h60l-193 -203h-53zM449 1561q-21 0 -36 15t-15 36t15 36t36 15q20 0 35.5 -15t15.5 -36t-15.5 -36t-35.5 -15z
M696 1561q-21 0 -36 15t-15 36t15 36t36 15t36 -15t15 -36t-15 -36t-36 -15z" />
    <glyph glyph-name="udieresisacute" unicode="&#x1d8;" horiz-adv-x="930" 
d="M818 1053v-1053h-46v211h-3q-29 -100 -120.5 -163t-207.5 -63q-154 0 -244.5 92.5t-90.5 259.5v716h49v-711q0 -150 79 -231t214 -81q141 0 231 98.5t91 257.5v667h48zM420 1481l216 303h58l-225 -303h-49zM340 1242q-21 0 -36 15t-15 36q0 22 15 36.5t36 14.5t36 -14.5
t15 -36.5q0 -21 -15 -36t-36 -15zM589 1242q-21 0 -36.5 15t-15.5 36t15.5 36t36.5 15t36 -14.5t15 -36.5q0 -21 -15 -36t-36 -15z" />
    <glyph glyph-name="Udieresiscaron" unicode="&#x1d9;" horiz-adv-x="1145" 
d="M165 1443v-950q0 -221 108 -344t300 -123t300 123t108 344v950h50v-951q0 -240 -121 -376t-337 -136t-336.5 136t-120.5 376v951h49zM550 1753l-233 204h63l191 -169h3l191 169h63l-233 -204h-45zM449 1663q20 0 35.5 -15t15.5 -36t-15.5 -36t-35.5 -15q-21 0 -36 15
t-15 36t15 36t36 15zM696 1663q21 0 36 -15t15 -36t-15 -36t-36 -15t-36 15t-15 36t15 36t36 15z" />
    <glyph glyph-name="udieresiscaron" unicode="&#x1da;" horiz-adv-x="930" 
d="M818 1053v-1053h-46v211h-3q-29 -100 -120.5 -163t-207.5 -63q-154 0 -244.5 92.5t-90.5 259.5v716h49v-711q0 -150 79 -231t214 -81q141 0 231 98.5t91 257.5v667h48zM340 1235q-21 0 -36.5 15t-15.5 37q0 21 15.5 36t36.5 15t36 -15t15 -36q0 -22 -15 -37t-36 -15z
M589 1235q-21 0 -36.5 15t-15.5 37q0 21 15.5 36t36.5 15t36 -15t15 -36q0 -22 -15 -37t-36 -15zM487 1484h-45l-232 292h53l200 -253h3l199 253h54z" />
    <glyph glyph-name="Udieresisgrave" unicode="&#x1db;" horiz-adv-x="1145" 
d="M165 1443v-950q0 -221 108 -344t300 -123t300 123t108 344v950h50v-951q0 -240 -121 -376t-337 -136t-336.5 136t-120.5 376v951h49zM612 1754h-53l-193 203h60zM449 1561q-21 0 -36 15t-15 36t15 36t36 15q20 0 35.5 -15t15.5 -36t-15.5 -36t-35.5 -15zM696 1561
q-21 0 -36 15t-15 36t15 36t36 15t36 -15t15 -36t-15 -36t-36 -15z" />
    <glyph glyph-name="udieresisgrave" unicode="&#x1dc;" horiz-adv-x="930" 
d="M818 1053v-1053h-46v211h-3q-29 -100 -120.5 -163t-207.5 -63q-154 0 -244.5 92.5t-90.5 259.5v716h49v-711q0 -150 79 -231t214 -81q141 0 231 98.5t91 257.5v667h48zM509 1481h-49l-225 303h58zM340 1242q-21 0 -36 15t-15 36q0 22 15 36.5t36 14.5t36 -14.5t15 -36.5
q0 -21 -15 -36t-36 -15zM589 1242q-21 0 -36.5 15t-15.5 36t15.5 36t36.5 15t36 -14.5t15 -36.5q0 -21 -15 -36t-36 -15z" />
    <glyph glyph-name="Adieresismacron" unicode="&#x1de;" horiz-adv-x="1074" 
d="M994 0l-162 484h-591l-161 -484h-55l485 1443h53l485 -1443h-54zM534 1370l-278 -840h561l-279 840h-4zM413 1663q21 0 36 -15t15 -36t-15 -36t-36 -15t-36 15t-15 36t15 36t36 15zM288 1888h498v-43h-498v43zM661 1663q20 0 35.5 -15t15.5 -36t-15.5 -36t-35.5 -15
q-21 0 -36 15t-15 36t15 36t36 15z" />
    <glyph glyph-name="adieresismacron" unicode="&#x1df;" horiz-adv-x="884" 
d="M393 30q140 0 238.5 97.5t98.5 235.5v205l-289 -31q-157 -21 -235.5 -84.5t-78.5 -179.5q0 -110 76.5 -176.5t189.5 -66.5zM388 -15q-136 0 -223 78.5t-87 208.5q0 136 88 210t266 98l298 31v111q0 145 -72.5 223t-200.5 78t-206 -69t-93 -205h-47q13 153 105 236t242 83
t235 -90t85 -253v-725h-48v211h-2q-33 -99 -126.5 -162.5t-213.5 -63.5zM333 1236q-21 0 -36.5 15t-15.5 36q0 22 15.5 37t36.5 15t36 -15t15 -37q0 -21 -15 -36t-36 -15zM582 1236q-21 0 -36.5 15t-15.5 36q0 22 15.5 37t36.5 15t36 -15t15 -37q0 -21 -15 -36t-36 -15z
M668 1601v-44h-430v44h430z" />
    <glyph glyph-name="Adotmacron" unicode="&#x1e0;" horiz-adv-x="1074" 
d="M994 0l-162 484h-591l-161 -484h-55l485 1443h53l485 -1443h-54zM534 1370l-278 -840h561l-279 840h-4zM537 1557q-25 0 -43.5 18t-18.5 43t18.5 43.5t43.5 18.5t43 -18.5t18 -43.5t-18 -43t-43 -18zM786 1888v-43h-498v43h498z" />
    <glyph glyph-name="adotmacron" unicode="&#x1e1;" horiz-adv-x="884" 
d="M393 30q140 0 238.5 97.5t98.5 235.5v205l-289 -31q-157 -21 -235.5 -84.5t-78.5 -179.5q0 -110 76.5 -176.5t189.5 -66.5zM388 -15q-136 0 -223 78.5t-87 208.5q0 136 88 210t266 98l298 31v111q0 145 -72.5 223t-200.5 78t-206 -69t-93 -205h-47q13 153 105 236t242 83
t235 -90t85 -253v-725h-48v211h-2q-33 -99 -126.5 -162.5t-213.5 -63.5zM457 1230q-25 0 -43.5 18.5t-18.5 43.5t18.5 43t43.5 18t43.5 -18t18.5 -43t-18.5 -43.5t-43.5 -18.5zM668 1601v-44h-430v44h430z" />
    <glyph glyph-name="AEmacron" unicode="&#x1e2;" horiz-adv-x="1656" 
d="M713 1397l-395 -882h563v882h-168zM881 0v468h-583l-199 -468h-54l638 1443h875v-46h-629v-634h597v-46h-597v-671h629v-46h-677zM1367 1659v-43h-497v43h497z" />
    <glyph glyph-name="aemacron" unicode="&#x1e3;" horiz-adv-x="1571" 
d="M1129 -15q-137 0 -232 81.5t-135 235.5h-4q-31 -148 -131.5 -232.5t-239.5 -84.5q-140 0 -224.5 77t-84.5 208q0 270 373 295l275 17v132q0 149 -73 229t-205 80q-126 0 -205 -72.5t-95 -204.5h-48q14 150 107 236t240 86q141 0 226.5 -77.5t90.5 -216.5h5
q34 131 127.5 212.5t229.5 81.5q177 0 278.5 -133t101.5 -362v-39h-731v-10q0 -224 96 -359t258 -135q127 0 208.5 72t103.5 190h50q-24 -138 -120 -222.5t-242 -84.5zM1124 1023q-152 0 -246 -121.5t-102 -323.5h680q0 203 -89.5 324t-242.5 121zM388 30q144 0 241 105
t97 261v143l-267 -17q-332 -22 -332 -251q0 -110 72 -175.5t189 -65.5zM1003 1323v-43h-430v43h430z" />
    <glyph glyph-name="Gcaron" unicode="&#x1e6;" horiz-adv-x="1157" 
d="M1085 563q0 -274 -128 -428.5t-358 -154.5q-242 0 -386.5 205t-144.5 546q0 337 143.5 534.5t387.5 197.5q187 0 315 -115t163 -312h-49q-36 176 -150 278.5t-279 102.5q-221 0 -351 -186t-130 -500q0 -320 130.5 -512.5t350.5 -192.5q207 0 322 141.5t115 394.5v100
h-447v46h496v-145zM576 1554l-234 287h55l199 -249h3l199 249h55l-233 -287h-44z" />
    <glyph glyph-name="gcaron" unicode="&#x1e7;" horiz-adv-x="960" 
d="M455 35q153 0 248.5 131.5t95.5 361.5q0 231 -95.5 363t-248.5 132q-154 0 -247 -135.5t-93 -360.5q0 -224 93 -358t247 -134zM477 -360q-147 0 -242.5 69.5t-117.5 186.5h51q25 -97 105.5 -154t204.5 -57q149 0 235 88.5t86 252.5v255h-2q-30 -130 -123.5 -211
t-221.5 -81q-176 0 -281.5 144t-105.5 394q0 251 105.5 396t281.5 145q128 0 221.5 -80.5t125.5 -215.5h3v281h47v-1029q0 -185 -100.5 -284.5t-271.5 -99.5zM503 1229h-43l-233 304h54l200 -264h2l199 264h54z" />
    <glyph glyph-name="Kcaron" unicode="&#x1e8;" horiz-adv-x="993" 
d="M169 0h-50v1443h50v-838h4l684 838h60l-520 -639l582 -804h-62l-554 764l-194 -238v-526zM452 1554l-233 287h55l199 -249h3l199 249h55l-234 -287h-44z" />
    <glyph glyph-name="kcaron" unicode="&#x1e9;" horiz-adv-x="799" 
d="M168 495l552 558h64l-443 -452l446 -601h-61l-423 568l-136 -137v-431h-49v1443h49v-948h1zM121 1554l-234 287h55l200 -249h2l199 249h56l-234 -287h-44z" />
    <glyph glyph-name="Oogonek" unicode="&#x1ea;" horiz-adv-x="1211" 
d="M799 -383q-76 0 -125 47.5t-49 123.5q0 125 128 216v3q-63 -27 -148 -27q-251 0 -394 197t-143 545q0 347 143.5 544t393.5 197q251 0 394 -196.5t143 -544.5q0 -484 -274 -674q-107 -73 -151.5 -130.5t-44.5 -125.5q0 -58 37.5 -94.5t95.5 -36.5q44 0 63 8v-42
q-23 -10 -69 -10zM605 1416q-227 0 -357 -186t-130 -508t130.5 -508.5t356.5 -186.5t356.5 186.5t130.5 508.5t-130.5 508t-356.5 186z" />
    <glyph glyph-name="oogonek" unicode="&#x1eb;" horiz-adv-x="934" 
d="M616 -375q-74 0 -122.5 47.5t-48.5 121.5q0 120 126 210l-1 3q-47 -22 -103 -22q-185 0 -293.5 143.5t-108.5 397.5q0 255 108.5 398.5t293.5 143.5t294 -143.5t109 -398.5q0 -337 -203 -485q-92 -67 -133 -123.5t-41 -118.5q0 -58 36 -94t93 -36q42 0 60 8v-42
q-23 -10 -66 -10zM467 30q162 0 257.5 133t95.5 363q0 231 -95.5 364t-257.5 133t-257 -133t-95 -364t95 -363.5t257 -132.5z" />
    <glyph glyph-name="Oogonekmacron" unicode="&#x1ec;" horiz-adv-x="1211" 
d="M799 -383q-76 0 -125 47.5t-49 123.5q0 125 128 216v3q-63 -27 -148 -27q-251 0 -394 197t-143 545q0 347 143.5 544t393.5 197q251 0 394 -196.5t143 -544.5q0 -484 -274 -674q-107 -73 -151.5 -130.5t-44.5 -125.5q0 -58 37.5 -94.5t95.5 -36.5q44 0 63 8v-42
q-23 -10 -69 -10zM605 1416q-227 0 -357 -186t-130 -508t130.5 -508.5t356.5 -186.5t356.5 186.5t130.5 508.5t-130.5 508t-356.5 186zM854 1659v-43h-497v43h497z" />
    <glyph glyph-name="oogonekmacron" unicode="&#x1ed;" horiz-adv-x="934" 
d="M616 -375q-74 0 -122.5 47.5t-48.5 121.5q0 120 126 210l-1 3q-47 -22 -103 -22q-185 0 -293.5 143.5t-108.5 397.5q0 255 108.5 398.5t293.5 143.5t294 -143.5t109 -398.5q0 -337 -203 -485q-92 -67 -133 -123.5t-41 -118.5q0 -58 36 -94t93 -36q42 0 60 8v-42
q-23 -10 -66 -10zM467 30q162 0 257.5 133t95.5 363q0 231 -95.5 364t-257.5 133t-257 -133t-95 -364t95 -363.5t257 -132.5zM677 1323v-43h-430v43h430z" />
    <glyph glyph-name="uni01F1" unicode="&#x1f1;" horiz-adv-x="2174" 
d="M119 1443h353q292 0 449.5 -185.5t157.5 -535.5q0 -351 -157.5 -536.5t-449.5 -185.5h-353v1443zM169 1396v-1349h301q271 0 415 173.5t144 501.5t-144 501t-415 173h-301zM1212 0v39l835 1357v1h-809v46h870v-40l-834 -1356v-1h836v-46h-898z" />
    <glyph glyph-name="uni01F2" unicode="&#x1f2;" horiz-adv-x="1972" 
d="M119 1443h353q292 0 449.5 -185.5t157.5 -535.5q0 -351 -157.5 -536.5t-449.5 -185.5h-353v1443zM169 1396v-1349h301q271 0 415 173.5t144 501.5t-144 501t-415 173h-301zM1206 0v45l632 960v2h-632v46h689v-45l-632 -960v-3h632v-45h-689z" />
    <glyph glyph-name="uni01F3" unicode="&#x1f3;" horiz-adv-x="1820" 
d="M455 -15q-177 0 -283.5 145.5t-106.5 396.5t106 396t283 145q130 0 224 -79.5t124 -213.5h3v668h49v-1443h-47v281h-2q-29 -131 -125.5 -213.5t-224.5 -82.5zM458 1023q-154 0 -248.5 -135t-94.5 -361t94.5 -361.5t248.5 -135.5q153 0 250 132.5t97 363.5
q0 232 -97 364.5t-250 132.5zM1054 0v45l632 960v2h-632v46h689v-45l-632 -960v-3h632v-45h-689z" />
    <glyph glyph-name="Gacute" unicode="&#x1f4;" horiz-adv-x="1157" 
d="M1085 563q0 -274 -128 -428.5t-358 -154.5q-242 0 -386.5 205t-144.5 546q0 337 143.5 534.5t387.5 197.5q187 0 315 -115t163 -312h-49q-36 176 -150 278.5t-279 102.5q-221 0 -351 -186t-130 -500q0 -320 130.5 -512.5t350.5 -192.5q207 0 322 141.5t115 394.5v100
h-447v46h496v-145zM617 1554h-55l257 287h62z" />
    <glyph glyph-name="gacute" unicode="&#x1f5;" horiz-adv-x="960" 
d="M455 35q153 0 248.5 131.5t95.5 361.5q0 231 -95.5 363t-248.5 132q-154 0 -247 -135.5t-93 -360.5q0 -224 93 -358t247 -134zM477 -360q-147 0 -242.5 69.5t-117.5 186.5h51q25 -97 105.5 -154t204.5 -57q149 0 235 88.5t86 252.5v255h-2q-30 -130 -123.5 -211
t-221.5 -81q-176 0 -281.5 144t-105.5 394q0 251 105.5 396t281.5 145q128 0 221.5 -80.5t125.5 -215.5h3v281h47v-1029q0 -185 -100.5 -284.5t-271.5 -99.5zM492 1211h-50l199 302h57z" />
    <glyph glyph-name="Ngrave" unicode="&#x1f8;" horiz-adv-x="1169" 
d="M167 0h-48v1443h60l818 -1351h5v1351h48v-1443h-54l-824 1358h-5v-1358zM565 1554l-263 287h61l257 -287h-55z" />
    <glyph glyph-name="ngrave" unicode="&#x1f9;" horiz-adv-x="931" 
d="M112 0v1053h46v-218h3q30 104 118 168.5t206 64.5q156 0 248 -96.5t92 -265.5v-706h-49v703q0 151 -80.5 235.5t-217.5 84.5q-143 0 -230 -103t-87 -263v-657h-49zM509 1211h-51l-204 302h56z" />
    <glyph glyph-name="Aringacute" unicode="&#x1fa;" horiz-adv-x="1074" 
d="M994 0l-162 484h-591l-161 -484h-55l485 1443h53l485 -1443h-54zM534 1370l-278 -840h561l-279 840h-4zM537 1509q-64 0 -109.5 47t-45.5 115t45.5 115t109.5 47t109.5 -47t45.5 -115t-45.5 -115t-109.5 -47zM537 1547q49 0 82 35.5t33 88.5t-33 88.5t-82 35.5
t-82.5 -35.5t-33.5 -88.5t33.5 -88.5t82.5 -35.5zM640 2083h58l-142 -164h-50z" />
    <glyph glyph-name="aringacute" unicode="&#x1fb;" horiz-adv-x="884" 
d="M393 30q140 0 238.5 97.5t98.5 235.5v205l-289 -31q-157 -21 -235.5 -84.5t-78.5 -179.5q0 -110 76.5 -176.5t189.5 -66.5zM388 -15q-136 0 -223 78.5t-87 208.5q0 136 88 210t266 98l298 31v111q0 145 -72.5 223t-200.5 78t-206 -69t-93 -205h-47q13 153 105 236t242 83
t235 -90t85 -253v-725h-48v211h-2q-33 -99 -126.5 -162.5t-213.5 -63.5zM457 1207q-65 0 -110 47t-45 116t45 116t110 47t110.5 -47t45.5 -116t-45.5 -116t-110.5 -47zM341 1370q0 -53 33.5 -89t82.5 -36q50 0 83.5 36t33.5 89t-33.5 89t-83.5 36q-49 0 -82.5 -36t-33.5 -89
zM427 1624l134 164h56l-141 -164h-49z" />
    <glyph glyph-name="AEacute" unicode="&#x1fc;" horiz-adv-x="1656" 
d="M713 1397l-395 -882h563v882h-168zM881 0v468h-583l-199 -468h-54l638 1443h875v-46h-629v-634h597v-46h-597v-671h629v-46h-677zM1056 1554h-54l256 287h62z" />
    <glyph glyph-name="aeacute" unicode="&#x1fd;" horiz-adv-x="1571" 
d="M1129 -15q-137 0 -232 81.5t-135 235.5h-4q-31 -148 -131.5 -232.5t-239.5 -84.5q-140 0 -224.5 77t-84.5 208q0 270 373 295l275 17v132q0 149 -73 229t-205 80q-126 0 -205 -72.5t-95 -204.5h-48q14 150 107 236t240 86q141 0 226.5 -77.5t90.5 -216.5h5
q34 131 127.5 212.5t229.5 81.5q177 0 278.5 -133t101.5 -362v-39h-731v-10q0 -224 96 -359t258 -135q127 0 208.5 72t103.5 190h50q-24 -138 -120 -222.5t-242 -84.5zM1124 1023q-152 0 -246 -121.5t-102 -323.5h680q0 203 -89.5 324t-242.5 121zM388 30q144 0 241 105
t97 261v143l-267 -17q-332 -22 -332 -251q0 -110 72 -175.5t189 -65.5zM803 1211h-50l199 302h57z" />
    <glyph glyph-name="Oslashacute" unicode="&#x1fe;" horiz-adv-x="1211" 
d="M918 1841l-264 -287h-54l256 287h62zM974 1213l-696 -1039q126 -148 327 -148q226 0 356.5 186.5t130.5 509.5q0 306 -118 491zM250 210l697 1040q-128 167 -342 167q-227 0 -357 -186t-130 -509q0 -324 132 -512zM1134 1453l-130 -194q138 -197 138 -537
q0 -348 -142.5 -545t-394.5 -197q-217 0 -356 151l-129 -193l-41 17l141 210q-152 199 -152 557q0 347 143.5 544t393.5 197q232 0 372 -168l117 174z" />
    <glyph glyph-name="oslashacute" unicode="&#x1ff;" horiz-adv-x="938" 
d="M685 1513l-205 -303h-51l199 303h57zM734 880l-490 -756q89 -94 225 -94q162 0 257.5 132.5t95.5 363.5q0 220 -88 354zM216 156l491 759q-93 108 -238 108q-162 0 -257.5 -133t-95.5 -364q0 -236 100 -370zM860 1075l-98 -151q109 -143 109 -398q0 -254 -108.5 -397.5
t-293.5 -143.5q-150 0 -252 97l-92 -142l-38 16l101 157q-121 145 -121 413q0 255 108.5 398.5t293.5 143.5q163 0 266 -111l86 134z" />
    <glyph glyph-name="Adblgrave" unicode="&#x200;" horiz-adv-x="1074" 
d="M994 0l-162 484h-591l-161 -484h-55l485 1443h53l485 -1443h-54zM534 1370l-278 -840h561l-279 840h-4zM615 1554l-264 287h63l254 -287h-53zM388 1554l-264 287h63l255 -287h-54z" />
    <glyph glyph-name="adblgrave" unicode="&#x201;" horiz-adv-x="884" 
d="M393 30q140 0 238.5 97.5t98.5 235.5v205l-289 -31q-157 -21 -235.5 -84.5t-78.5 -179.5q0 -110 76.5 -176.5t189.5 -66.5zM388 -15q-136 0 -223 78.5t-87 208.5q0 136 88 210t266 98l298 31v111q0 145 -72.5 223t-200.5 78t-206 -69t-93 -205h-47q13 153 105 236t242 83
t235 -90t85 -253v-725h-48v211h-2q-33 -99 -126.5 -162.5t-213.5 -63.5zM385 1211h-50l-207 302h57zM581 1211h-49l-203 302h56z" />
    <glyph glyph-name="Ainvertedbreve" unicode="&#x202;" horiz-adv-x="1074" 
d="M994 0l-162 484h-591l-161 -484h-55l485 1443h53l485 -1443h-54zM534 1370l-278 -840h561l-279 840h-4zM308 1553q1 101 64 159.5t165 58.5t165 -58.5t63 -159.5h-42q-1 77 -51.5 126t-134.5 49t-134.5 -49t-51.5 -126h-43z" />
    <glyph glyph-name="ainvertedbreve" unicode="&#x203;" horiz-adv-x="884" 
d="M393 30q140 0 238.5 97.5t98.5 235.5v205l-289 -31q-157 -21 -235.5 -84.5t-78.5 -179.5q0 -110 76.5 -176.5t189.5 -66.5zM388 -15q-136 0 -223 78.5t-87 208.5q0 136 88 210t266 98l298 31v111q0 145 -72.5 223t-200.5 78t-206 -69t-93 -205h-47q13 153 105 236t242 83
t235 -90t85 -253v-725h-48v211h-2q-33 -99 -126.5 -162.5t-213.5 -63.5zM228 1229q0 113 63 175t166 62q104 0 166.5 -61.5t62.5 -175.5h-43q0 90 -50 142t-136 52t-136 -52t-50 -142h-43z" />
    <glyph glyph-name="Edblgrave" unicode="&#x204;" horiz-adv-x="937" 
d="M847 46v-46h-728v1443h728v-46h-678v-633h647v-46h-647v-672h678zM563 1554l-264 287h62l255 -287h-53zM336 1554l-264 287h63l255 -287h-54z" />
    <glyph glyph-name="edblgrave" unicode="&#x205;" horiz-adv-x="909" 
d="M460 1023q-151 0 -243 -122.5t-100 -332.5h678q0 206 -91.5 330.5t-243.5 124.5zM783 292h50q-24 -141 -120 -224t-246 -83q-188 0 -294 140t-106 401q0 252 106 397t287 145q176 0 280 -136.5t104 -369.5v-39h-728v-1q0 -236 94 -364t258 -128q129 0 211.5 72t103.5 190
zM386 1211h-50l-207 302h57zM583 1211h-50l-203 302h57z" />
    <glyph glyph-name="Einvertedbreve" unicode="&#x206;" horiz-adv-x="937" 
d="M847 46v-46h-728v1443h728v-46h-678v-633h647v-46h-647v-672h678zM256 1553q1 101 64 159.5t165 58.5t164.5 -58.5t63.5 -159.5h-43q0 77 -50.5 126t-134.5 49t-135 -49t-51 -126h-43z" />
    <glyph glyph-name="einvertedbreve" unicode="&#x207;" horiz-adv-x="909" 
d="M460 1023q-151 0 -243 -122.5t-100 -332.5h678q0 206 -91.5 330.5t-243.5 124.5zM783 292h50q-24 -141 -120 -224t-246 -83q-188 0 -294 140t-106 401q0 252 106 397t287 145q176 0 280 -136.5t104 -369.5v-39h-728v-1q0 -236 94 -364t258 -128q129 0 211.5 72t103.5 190
zM229 1229q0 113 63 175t166 62q104 0 166.5 -61.5t62.5 -175.5h-42q0 90 -50.5 142t-136.5 52t-136 -52t-50 -142h-43z" />
    <glyph glyph-name="Idblgrave" unicode="&#x208;" horiz-adv-x="288" 
d="M169 0h-50v1443h50v-1443zM222 1554l-264 287h63l254 -287h-53zM-5 1554l-264 287h63l255 -287h-54z" />
    <glyph glyph-name="idblgrave" unicode="&#x209;" horiz-adv-x="284" 
d="M118 0v1053h49v-1053h-49zM70 1211h-49l-207 302h57zM267 1211h-50l-203 302h57z" />
    <glyph glyph-name="Iinvertedbreve" unicode="&#x20a;" horiz-adv-x="288" 
d="M169 0h-50v1443h50v-1443zM-85 1553q1 101 64 159.5t165 58.5t165 -58.5t63 -159.5h-42q-1 77 -51.5 126t-134.5 49t-134.5 -49t-51.5 -126h-43z" />
    <glyph glyph-name="iinvertedbreve" unicode="&#x20b;" horiz-adv-x="284" 
d="M118 0v1053h49v-1053h-49zM-86 1229q0 114 62.5 175.5t166.5 61.5q103 0 166 -62t63 -175h-43q0 90 -50 142t-136 52t-136 -52t-50 -142h-43z" />
    <glyph glyph-name="Odblgrave" unicode="&#x20c;" horiz-adv-x="1211" 
d="M605 1463q251 0 394 -196.5t143 -544.5t-142.5 -545t-394.5 -197q-251 0 -394 197t-143 545q0 347 143.5 544t393.5 197zM605 1417q-227 0 -357 -186t-130 -509t130.5 -509.5t356.5 -186.5t356.5 186.5t130.5 509.5t-130.5 509t-356.5 186zM683 1554l-263 287h62
l255 -287h-54zM457 1554l-264 287h63l255 -287h-54z" />
    <glyph glyph-name="odblgrave" unicode="&#x20d;" horiz-adv-x="938" 
d="M469 -15q-185 0 -293.5 143.5t-108.5 397.5q0 255 108.5 398.5t293.5 143.5t293.5 -143.5t108.5 -398.5q0 -254 -108.5 -397.5t-293.5 -143.5zM469 30q162 0 257.5 132.5t95.5 363.5t-95.5 364t-257.5 133t-257.5 -133t-95.5 -364t95.5 -363.5t257.5 -132.5zM396 1210
h-50l-206 302h56zM593 1210h-50l-203 302h57z" />
    <glyph glyph-name="Oinvertedbreve" unicode="&#x20e;" horiz-adv-x="1211" 
d="M605 1463q251 0 394 -196.5t143 -544.5t-142.5 -545t-394.5 -197q-251 0 -394 197t-143 545q0 347 143.5 544t393.5 197zM605 1417q-227 0 -357 -186t-130 -509t130.5 -509.5t356.5 -186.5t356.5 186.5t130.5 509.5t-130.5 509t-356.5 186zM377 1553q1 101 63.5 159.5
t164.5 58.5t165 -58.5t64 -159.5h-43q0 77 -51 126t-135 49t-134.5 -49t-50.5 -126h-43z" />
    <glyph glyph-name="oinvertedbreve" unicode="&#x20f;" horiz-adv-x="938" 
d="M469 -15q-185 0 -293.5 143.5t-108.5 397.5q0 255 108.5 398.5t293.5 143.5t293.5 -143.5t108.5 -398.5q0 -254 -108.5 -397.5t-293.5 -143.5zM469 30q162 0 257.5 132.5t95.5 363.5t-95.5 364t-257.5 133t-257.5 -133t-95.5 -364t95.5 -363.5t257.5 -132.5zM239 1228
q0 113 63 175t166 62q104 0 166.5 -61.5t62.5 -175.5h-42q0 90 -50.5 142t-136.5 52t-136 -52t-50 -142h-43z" />
    <glyph glyph-name="Rdblgrave" unicode="&#x210;" horiz-adv-x="1008" 
d="M169 1397v-714h332q176 0 274 95t98 265q0 171 -99.5 262.5t-278.5 91.5h-326zM169 637v-637h-50v1443h378q201 0 313.5 -104.5t112.5 -295.5q0 -160 -82.5 -264.5t-227.5 -131.5l341 -647h-56l-336 639q-11 -2 -51 -2h-342zM514 1554l-263 287h62l255 -287h-54z
M288 1554l-264 287h63l255 -287h-54z" />
    <glyph glyph-name="rdblgrave" unicode="&#x211;" horiz-adv-x="541" 
d="M112 0v1053h46v-201h3q28 106 93 161t159 55q55 0 95 -20v-51q-42 24 -101 24q-115 0 -180.5 -101.5t-65.5 -265.5v-654h-49zM227 1211h-50l-206 302h57zM424 1211h-50l-203 302h57z" />
    <glyph glyph-name="Rinvertedbreve" unicode="&#x212;" horiz-adv-x="1008" 
d="M169 1397v-714h332q176 0 274 95t98 265q0 171 -99.5 262.5t-278.5 91.5h-326zM169 637v-637h-50v1443h378q201 0 313.5 -104.5t112.5 -295.5q0 -160 -82.5 -264.5t-227.5 -131.5l341 -647h-56l-336 639q-11 -2 -51 -2h-342zM208 1553q1 101 64 159.5t165 58.5
t164.5 -58.5t63.5 -159.5h-43q0 77 -50.5 126t-134.5 49t-135 -49t-51 -126h-43z" />
    <glyph glyph-name="rinvertedbreve" unicode="&#x213;" horiz-adv-x="541" 
d="M112 0v1053h46v-201h3q28 106 93 161t159 55q55 0 95 -20v-51q-42 24 -101 24q-115 0 -180.5 -101.5t-65.5 -265.5v-654h-49zM71 1229q0 114 62.5 175.5t166.5 61.5q103 0 166 -62t63 -175h-43q0 90 -50 142t-136 52t-136.5 -52t-50.5 -142h-42z" />
    <glyph glyph-name="Udblgrave" unicode="&#x214;" horiz-adv-x="1145" 
d="M165 1443v-950q0 -221 108 -344t300 -123t300 123t108 344v950h50v-951q0 -240 -121 -376t-337 -136t-336.5 136t-120.5 376v951h49zM650 1554l-263 287h62l255 -287h-54zM424 1554l-264 287h63l255 -287h-54z" />
    <glyph glyph-name="udblgrave" unicode="&#x215;" horiz-adv-x="930" 
d="M818 1053v-1053h-46v211h-3q-29 -100 -120.5 -163t-207.5 -63q-154 0 -244.5 92.5t-90.5 259.5v716h49v-711q0 -150 79 -231t214 -81q141 0 231 98.5t91 257.5v667h48zM392 1210h-50l-206 302h56zM589 1210h-50l-203 302h57z" />
    <glyph glyph-name="Uinvertedbreve" unicode="&#x216;" horiz-adv-x="1145" 
d="M165 1443v-950q0 -221 108 -344t300 -123t300 123t108 344v950h50v-951q0 -240 -121 -376t-337 -136t-336.5 136t-120.5 376v951h49zM344 1553q1 101 63.5 159.5t164.5 58.5t165 -58.5t64 -159.5h-43q0 77 -51 126t-135 49t-134.5 -49t-50.5 -126h-43z" />
    <glyph glyph-name="uinvertedbreve" unicode="&#x217;" horiz-adv-x="930" 
d="M818 1053v-1053h-46v211h-3q-29 -100 -120.5 -163t-207.5 -63q-154 0 -244.5 92.5t-90.5 259.5v716h49v-711q0 -150 79 -231t214 -81q141 0 231 98.5t91 257.5v667h48zM235 1228q0 113 63 175t166 62q104 0 166.5 -61.5t62.5 -175.5h-42q0 90 -50.5 142t-136.5 52
t-136 -52t-50 -142h-43z" />
    <glyph glyph-name="Scommaaccent" unicode="&#x218;" horiz-adv-x="993" 
d="M58 398h49q7 -171 118 -271.5t288 -100.5q165 0 269 95t104 243q0 121 -71.5 197t-239.5 133l-140 46q-178 60 -260 144t-82 215q0 160 115 262t287 102q181 0 295.5 -103t120.5 -274h-48q-7 151 -108 241t-260 90q-151 0 -251.5 -88.5t-100.5 -229.5q0 -114 75 -187
t237 -128l138 -45q182 -62 262.5 -149t80.5 -225q0 -169 -118 -277t-307 -108q-199 0 -322.5 112.5t-130.5 305.5zM445 -463h-43l89 337h55z" />
    <glyph glyph-name="scommaaccent" unicode="&#x219;" horiz-adv-x="805" 
d="M89 796q0 121 88.5 196.5t225.5 75.5q145 0 231.5 -82.5t99.5 -235.5h-48q-14 132 -88 202.5t-196 70.5q-114 0 -189 -62.5t-75 -162.5q0 -85 55 -135.5t175 -86.5l115 -33q140 -42 202.5 -105t62.5 -172q0 -126 -94.5 -203.5t-241.5 -77.5q-152 0 -248.5 85.5
t-105.5 224.5h49q11 -120 94.5 -193t210.5 -73q125 0 206 64.5t81 169.5q0 92 -55.5 146.5t-176.5 89.5l-118 34q-133 38 -196.5 100t-63.5 163zM344 -463h-43l90 337h54z" />
    <glyph glyph-name="Tcommaaccent" unicode="&#x21a;" horiz-adv-x="999" 
d="M525 0h-50v1397h-454v46h958v-46h-454v-1397zM435 -463h-44l90 337h54z" />
    <glyph glyph-name="tcommaaccent" unicode="&#x21b;" horiz-adv-x="467" 
d="M251 -463h-43l90 337h54zM162 1335h49v-282h194v-46h-194v-777q0 -100 33.5 -142.5t109.5 -42.5q66 0 68 1v-46l-71 -1q-101 0 -145 53t-44 178v777h-141v46h141v282z" />
    <glyph glyph-name="Hcaron" unicode="&#x21e;" horiz-adv-x="1154" 
d="M1035 0h-50v718h-816v-718h-50v1443h50v-678h816v678h50v-1443zM555 1554l-234 287h56l199 -249h2l199 249h56l-234 -287h-44z" />
    <glyph glyph-name="hcaron" unicode="&#x21f;" horiz-adv-x="934" 
d="M118 0v1443h49v-608h3q29 104 117.5 168.5t206.5 64.5q155 0 246.5 -96.5t91.5 -265.5v-706h-49v703q0 150 -79.5 235t-216.5 85q-143 0 -231.5 -103.5t-88.5 -262.5v-657h-49zM121 1554l-234 287h56l199 -249h2l199 249h56l-234 -287h-44z" />
    <glyph glyph-name="Adotaccent" unicode="&#x226;" horiz-adv-x="1074" 
d="M994 0l-162 484h-591l-161 -484h-55l485 1443h53l485 -1443h-54zM534 1370l-278 -840h561l-279 840h-4zM537 1596q-24 0 -41.5 17t-17.5 41t17.5 41t41.5 17t41 -17t17 -41t-17 -41t-41 -17z" />
    <glyph glyph-name="adotaccent" unicode="&#x227;" horiz-adv-x="884" 
d="M393 30q140 0 238.5 97.5t98.5 235.5v205l-289 -31q-157 -21 -235.5 -84.5t-78.5 -179.5q0 -110 76.5 -176.5t189.5 -66.5zM388 -15q-136 0 -223 78.5t-87 208.5q0 136 88 210t266 98l298 31v111q0 145 -72.5 223t-200.5 78t-206 -69t-93 -205h-47q13 153 105 236t242 83
t235 -90t85 -253v-725h-48v211h-2q-33 -99 -126.5 -162.5t-213.5 -63.5zM457 1247q-24 0 -41 17t-17 41t17 41t41 17t41.5 -17t17.5 -41t-17.5 -41t-41.5 -17z" />
    <glyph glyph-name="Ecedilla" unicode="&#x228;" horiz-adv-x="937" 
d="M847 1397h-678v-633h647v-46h-647v-672h678v-46h-339l-52 -135q87 -2 137.5 -42.5t50.5 -116.5t-54.5 -121.5t-144.5 -45.5q-64 0 -107 16v44q40 -17 105 -17q68 0 111 34.5t43 88.5q0 57 -39.5 87.5t-113.5 30.5h-37v33l56 144h-344v1443h728v-46z" />
    <glyph glyph-name="ecedilla" unicode="&#x229;" horiz-adv-x="909" 
d="M117 568h678q0 206 -91.5 330.5t-243.5 124.5q-151 0 -243 -122.5t-100 -332.5zM844 523h-728v-1q0 -236 94 -364t258 -128q129 0 211.5 72t103.5 190h50q-23 -136 -114 -218.5t-234 -88.5l-46 -120q88 -2 138.5 -42.5t50.5 -116.5t-55 -121.5t-144 -45.5q-64 0 -107 16
v44q40 -17 105 -17q68 0 111 34.5t43 88.5q0 57 -39.5 87.5t-114.5 30.5h-37v33l50 130q-176 10 -274.5 149.5t-98.5 390.5q0 252 106 397t287 145q176 0 280 -136.5t104 -369.5v-39z" />
    <glyph glyph-name="Odieresismacron" unicode="&#x22a;" horiz-adv-x="1211" 
d="M605 1463q251 0 394 -196.5t143 -544.5t-142.5 -545t-394.5 -197q-251 0 -394 197t-143 545q0 347 143.5 544t393.5 197zM605 1417q-227 0 -357 -186t-130 -509t130.5 -509.5t356.5 -186.5t356.5 186.5t130.5 509.5t-130.5 509t-356.5 186zM482 1663q20 0 35.5 -15
t15.5 -36t-15.5 -36t-35.5 -15q-21 0 -36 15t-15 36t15 36t36 15zM357 1888h497v-43h-497v43zM729 1663q21 0 36 -15t15 -36t-15 -36t-36 -15t-36 15t-15 36t15 36t36 15z" />
    <glyph glyph-name="odieresismacron" unicode="&#x22b;" horiz-adv-x="938" 
d="M469 -15q-185 0 -293.5 143.5t-108.5 397.5q0 255 108.5 398.5t293.5 143.5t293.5 -143.5t108.5 -398.5q0 -254 -108.5 -397.5t-293.5 -143.5zM469 30q162 0 257.5 132.5t95.5 363.5t-95.5 364t-257.5 133t-257.5 -133t-95.5 -364t95.5 -363.5t257.5 -132.5zM344 1235
q-21 0 -36.5 15t-15.5 37q0 21 15.5 36t36.5 15t36 -15t15 -36q0 -22 -15 -37t-36 -15zM593 1235q-21 0 -36.5 15t-15.5 37q0 21 15.5 36t36.5 15t36 -15t15 -36q0 -22 -15 -37t-36 -15zM679 1600v-44h-430v44h430z" />
    <glyph glyph-name="Otildemacron" unicode="&#x22c;" horiz-adv-x="1211" 
d="M605 1463q251 0 394 -196.5t143 -544.5t-142.5 -545t-394.5 -197q-251 0 -394 197t-143 545q0 347 143.5 544t393.5 197zM605 1417q-227 0 -357 -186t-130 -509t130.5 -509.5t356.5 -186.5t356.5 186.5t130.5 509.5t-130.5 509t-356.5 186zM710 1552q-37 0 -67 23.5
t-47 51t-42 51t-53 23.5q-81 0 -81 -130h-42q0 78 32 125.5t91 47.5q37 0 66.5 -23.5t46.5 -51t42.5 -51t53.5 -23.5q80 0 80 130h43q0 -78 -32 -125.5t-91 -47.5zM854 1888v-43h-497v43h497z" />
    <glyph glyph-name="otildemacron" unicode="&#x22d;" horiz-adv-x="938" 
d="M469 -15q-185 0 -293.5 143.5t-108.5 397.5q0 255 108.5 398.5t293.5 143.5t293.5 -143.5t108.5 -398.5q0 -254 -108.5 -397.5t-293.5 -143.5zM469 30q162 0 257.5 132.5t95.5 363.5t-95.5 364t-257.5 133t-257.5 -133t-95.5 -364t95.5 -363.5t257.5 -132.5zM595 1203
q-32 0 -60.5 17t-49 40.5t-40 47.5t-43 41t-48.5 17q-83 0 -83 -154h-43q0 93 32 145t94 52q33 0 61.5 -17t49 -41t40 -48t43 -41t48.5 -17q82 0 82 155h44q0 -93 -32.5 -145t-94.5 -52zM684 1599v-43h-429v43h429z" />
    <glyph glyph-name="Odotaccent" unicode="&#x22e;" horiz-adv-x="1211" 
d="M605 1463q251 0 394 -196.5t143 -544.5t-142.5 -545t-394.5 -197q-251 0 -394 197t-143 545q0 347 143.5 544t393.5 197zM605 1417q-227 0 -357 -186t-130 -509t130.5 -509.5t356.5 -186.5t356.5 186.5t130.5 509.5t-130.5 509t-356.5 186zM605 1596q-24 0 -41 17t-17 41
t17 41t41 17q25 0 42 -17t17 -41t-17 -41t-42 -17z" />
    <glyph glyph-name="odotaccent" unicode="&#x22f;" horiz-adv-x="938" 
d="M469 -15q-185 0 -293.5 143.5t-108.5 397.5q0 255 108.5 398.5t293.5 143.5t293.5 -143.5t108.5 -398.5q0 -254 -108.5 -397.5t-293.5 -143.5zM469 30q162 0 257.5 132.5t95.5 363.5t-95.5 364t-257.5 133t-257.5 -133t-95.5 -364t95.5 -363.5t257.5 -132.5zM468 1246
q-24 0 -41 17t-17 41t17 41t41 17q25 0 42 -17t17 -41t-17 -41t-42 -17z" />
    <glyph glyph-name="Odotaccentmacron" unicode="&#x230;" horiz-adv-x="1211" 
d="M605 1463q251 0 394 -196.5t143 -544.5t-142.5 -545t-394.5 -197q-251 0 -394 197t-143 545q0 347 143.5 544t393.5 197zM605 1417q-227 0 -357 -186t-130 -509t130.5 -509.5t356.5 -186.5t356.5 186.5t130.5 509.5t-130.5 509t-356.5 186zM605 1557q-25 0 -43 18t-18 43
t18 43.5t43 18.5t43.5 -18.5t18.5 -43.5t-18.5 -43t-43.5 -18zM854 1888v-43h-497v43h497z" />
    <glyph glyph-name="odotaccentmacron" unicode="&#x231;" horiz-adv-x="938" 
d="M469 -15q-185 0 -293.5 143.5t-108.5 397.5q0 255 108.5 398.5t293.5 143.5t293.5 -143.5t108.5 -398.5q0 -254 -108.5 -397.5t-293.5 -143.5zM469 30q162 0 257.5 132.5t95.5 363.5t-95.5 364t-257.5 133t-257.5 -133t-95.5 -364t95.5 -363.5t257.5 -132.5zM468 1230
q-25 0 -43 18t-18 43t18 43t43 18t43.5 -18t18.5 -43t-18.5 -43t-43.5 -18zM679 1600v-44h-430v44h430z" />
    <glyph glyph-name="Ymacron" unicode="&#x232;" horiz-adv-x="1024" 
d="M538 0h-50v631l-464 812h58l429 -755h4l428 755h56l-461 -812v-631zM761 1659v-43h-498v43h498z" />
    <glyph glyph-name="ymacron" unicode="&#x233;" horiz-adv-x="785" 
d="M158 -346q-23 0 -47 8v46q20 -8 48 -8q63 0 102 43.5t77 155.5l29 79l-359 1075h53l331 -1000h2l330 1000h53l-367 -1105q-59 -173 -110 -233.5t-142 -60.5zM603 1323v-44h-429v44h429z" />
    <glyph glyph-name="dotlessj" unicode="&#x237;" horiz-adv-x="284" 
d="M167 1053v-1150q0 -127 -55.5 -186.5t-173.5 -59.5q-27 0 -28 1v45h25q97 0 140 47t43 152v1151h49z" />
    <glyph glyph-name="quoteright" unicode="&#x2bc;" horiz-adv-x="338" 
d="M142 1010h-44l91 433h51z" />
    <glyph glyph-name="quoteright" unicode="&#x2019;" horiz-adv-x="338" 
d="M142 1010h-44l91 433h51z" />
    <glyph glyph-name="circumflex" unicode="&#x2c6;" horiz-adv-x="614" 
d="M329 1539l225 -302h-52l-194 260h-2l-194 -260h-52l225 302h44z" />
    <glyph glyph-name="caron" unicode="&#x2c7;" horiz-adv-x="614" 
d="M328 1255h-42l-233 304h54l199 -264h2l199 264h54z" />
    <glyph glyph-name="breve" unicode="&#x2d8;" horiz-adv-x="721" 
d="M132 1491h42q0 -90 50.5 -141.5t136.5 -51.5t136 51.5t50 141.5h43q0 -113 -63 -174.5t-166 -61.5q-104 0 -166.5 61.5t-62.5 174.5z" />
    <glyph glyph-name="dotaccent" unicode="&#x2d9;" horiz-adv-x="712" 
d="M356 1273q-24 0 -41 17t-17 41t17 41t41 17q25 0 42 -17t17 -41t-17 -41t-42 -17z" />
    <glyph glyph-name="ring" unicode="&#x2da;" horiz-adv-x="618" 
d="M309 1245q-65 0 -110.5 47.5t-45.5 116.5q0 68 45.5 115.5t110.5 47.5t110 -47.5t45 -115.5q0 -69 -45 -116.5t-110 -47.5zM309 1284q49 0 82.5 36t33.5 89t-33.5 89t-82.5 36q-50 0 -83.5 -36t-33.5 -89t33.5 -89t83.5 -36z" />
    <glyph glyph-name="ogonek" unicode="&#x2db;" horiz-adv-x="471" 
d="M371 -304v-43q-43 -29 -98 -29q-73 0 -116 45.5t-43 122.5q0 138 132 230l37 -7q-123 -84 -123 -212q0 -62 31.5 -98t89.5 -36q55 0 90 27z" />
    <glyph glyph-name="tilde" unicode="&#x2dc;" horiz-adv-x="614" 
d="M428 1251q-32 0 -60.5 17t-49.5 41t-40.5 48t-43 41t-48.5 17q-83 0 -83 -155h-43q0 93 32 145t95 52q33 0 61.5 -17t49 -40.5t40 -47.5t43 -41t48.5 -17q82 0 82 154h43q0 -93 -32 -145t-94 -52z" />
    <glyph glyph-name="hungarumlaut" unicode="&#x2dd;" horiz-adv-x="722" 
d="M346 1237l204 302h57l-212 -302h-49zM146 1237l204 302h57l-212 -302h-49z" />
    <glyph glyph-name="gravecmb" unicode="&#x300;" 
d="M39 1234h-51l-205 302h57z" />
    <glyph glyph-name="acutecmb" unicode="&#x301;" 
d="M11 1234h-51l199 302h57z" />
    <glyph glyph-name="circumflexcmb" unicode="&#x302;" 
d="M22 1536l225 -302h-52l-194 260h-2l-194 -260h-52l226 302h43z" />
    <glyph glyph-name="tildecmb" unicode="&#x303;" 
d="M121 1248q-32 0 -60.5 17t-49 41t-40 48t-43 41t-48.5 17q-83 0 -83 -154h-43q0 93 32 144.5t94 51.5q33 0 61.5 -17t49 -41t40 -47.5t43 -40.5t48.5 -17q82 0 82 154h44q0 -93 -32.5 -145t-94.5 -52z" />
    <glyph glyph-name="macroncmb" unicode="&#x304;" 
d="M211 1347v-43h-430v43h430z" />
    <glyph glyph-name="brevecmb" unicode="&#x306;" 
d="M-229 1488h43q0 -89 50 -141t136 -52t136 52t50 141h43q0 -113 -63 -174.5t-166 -61.5q-104 0 -166.5 61.5t-62.5 174.5z" />
    <glyph glyph-name="dotaccentcmb" unicode="&#x307;" 
d="M0 1270q-24 0 -41.5 17t-17.5 41t17.5 41t41.5 17t41.5 -17t17.5 -41t-17.5 -41t-41.5 -17z" />
    <glyph glyph-name="dieresiscmb" unicode="&#x308;" 
d="M-124 1269q-21 0 -36.5 15t-15.5 36t15.5 36t36.5 15t36 -15t15 -36t-15 -36t-36 -15zM124 1269q-21 0 -36 15t-15 36t15 36t36 15t36.5 -15t15.5 -36t-15.5 -36t-36.5 -15z" />
    <glyph glyph-name="hookabovecmb" unicode="&#x309;" 
d="M-102 1440v45q40 28 94 28q60 0 95.5 -35.5t35.5 -94.5q0 -46 -24 -83.5t-65 -57.5l-26 32q71 34 71 107q0 41 -25.5 65.5t-67.5 24.5q-50 0 -88 -31z" />
    <glyph glyph-name="ringcmb" unicode="&#x30a;" 
d="M0 1242q-65 0 -110 47.5t-45 116.5t45 116t110 47t110.5 -47t45.5 -116t-45.5 -116.5t-110.5 -47.5zM0 1281q50 0 83.5 36t33.5 89t-33.5 89t-83.5 36q-49 0 -82.5 -36t-33.5 -89t33.5 -89t82.5 -36z" />
    <glyph glyph-name="hungarumlautcmb" unicode="&#x30b;" 
d="M75 1234l204 302h57l-212 -302h-49zM-125 1234l204 302h57l-212 -302h-49z" />
    <glyph glyph-name="caroncmb" unicode="&#x30c;" 
d="M21 1253h-43l-232 303h53l200 -264h2l199 264h54z" />
    <glyph glyph-name="dblgravecmb" unicode="&#x30f;" 
d="M-73 1234h-49l-207 302h57zM124 1234h-49l-204 302h57z" />
    <glyph glyph-name="invertedbrevecmb" unicode="&#x311;" 
d="M-229 1253q0 113 63 174.5t166 61.5t166 -61.5t63 -174.5h-43q0 90 -50 141.5t-136 51.5t-136 -51.5t-50 -141.5h-43z" />
    <glyph glyph-name="horncmb" unicode="&#x31b;" 
d="M0 1041v45q4 -3 39 -3q142 0 142 160v114h47v-123q0 -98 -49 -147t-137 -49q-36 0 -42 3z" />
    <glyph glyph-name="dotbelowcmb" unicode="&#x323;" 
d="M0 -283q-24 0 -41.5 17t-17.5 41t17.5 41t41.5 17t41.5 -17t17.5 -41t-17.5 -41t-41.5 -17z" />
    <glyph glyph-name="dieresisbelowcmb" unicode="&#x324;" 
d="M-124 -268q-21 0 -36.5 15t-15.5 36t15.5 36t36.5 15t36 -14.5t15 -36.5q0 -21 -15 -36t-36 -15zM124 -268q-21 0 -36 15t-15 36q0 22 15 36.5t36 14.5t36.5 -15t15.5 -36t-15.5 -36t-36.5 -15z" />
    <glyph glyph-name="ringbelowcmb" unicode="&#x325;" 
d="M0 -451q-65 0 -110 47t-45 116t45 116.5t110 47.5t110.5 -47.5t45.5 -116.5t-45.5 -116t-110.5 -47zM0 -413q50 0 83.5 36t33.5 89t-33.5 89t-83.5 36q-49 0 -82.5 -36t-33.5 -89t33.5 -89t82.5 -36z" />
    <glyph glyph-name="commabelowcmb" unicode="&#x326;" 
d="M-64 -463h-43l89 337h55z" />
    <glyph glyph-name="cedillacmb" unicode="&#x327;" 
d="M-76 -177v33l58 150h42v-6l-52 -135q88 -2 138.5 -42.5t50.5 -116.5t-54.5 -121.5t-144.5 -45.5q-64 0 -107 16v44q40 -17 105 -17q68 0 111 34.5t43 88.5q0 57 -39.5 87.5t-114.5 30.5h-36z" />
    <glyph glyph-name="ogonekcmb" unicode="&#x328;" 
d="M112 -304v-43q-43 -29 -98 -29q-73 0 -116 45.5t-43 122.5q0 138 132 230l37 -7q-124 -84 -124 -212q0 -62 32 -98t90 -36q55 0 90 27z" />
    <glyph glyph-name="circumflexbelowcmb" unicode="&#x32d;" 
d="M-22 -148h44l234 -287h-54l-201 249h-2l-201 -249h-54z" />
    <glyph glyph-name="brevebelowcmb" unicode="&#x32e;" 
d="M-228 -143h42q1 -77 51.5 -126t134.5 -49t134.5 49t51.5 126h42q0 -101 -63 -159.5t-165 -58.5t-165 58.5t-63 159.5z" />
    <glyph glyph-name="tildebelowcmb" unicode="&#x330;" 
d="M121 -352q-32 0 -60.5 17t-49 41t-40.5 48t-43.5 41t-48.5 17q-82 0 -82 -155h-43q0 94 32 145.5t94 51.5q33 0 61.5 -17t49 -41t40 -47.5t43 -40.5t48.5 -17q82 0 82 154h43q0 -93 -32 -145t-94 -52z" />
    <glyph glyph-name="macronbelowcmb" unicode="&#x331;" 
d="M249 -215v-43h-498v43h498z" />
    <glyph glyph-name="greekquestionmark" unicode="&#x37e;" horiz-adv-x="441" 
d="M221 808q-21 0 -36 15t-15 36q0 22 14.5 37t36.5 15q21 0 36 -15t15 -37q0 -21 -15 -36t-36 -15zM168 -238h-40l75 412h54z" />
    <glyph glyph-name="tonosgreek" unicode="&#x384;" horiz-adv-x="476" 
d="M156 1219l78 306h59l-93 -306h-44z" />
    <glyph glyph-name="dieresistonosgreek" unicode="&#x385;" horiz-adv-x="700" 
d="M195 1258q-21 0 -36 15t-15 37q0 21 15 36t36 15t36 -15t15 -36q0 -22 -15 -37t-36 -15zM505 1258q-21 0 -36 15t-15 37q0 21 15 36t36 15t36.5 -15t15.5 -36q0 -22 -15.5 -37t-36.5 -15zM315 1244l45 313h60l-61 -313h-44z" />
    <glyph glyph-name="Alphatonosgreek" unicode="&#x386;" horiz-adv-x="1071" 
d="M992 0l-162 484h-591l-161 -484h-54l485 1443h52l486 -1443h-55zM532 1370l-277 -840h560l-279 840h-4zM140 1137l77 306h60l-93 -306h-44z" />
    <glyph glyph-name="anoteleia" unicode="&#x387;" horiz-adv-x="441" 
d="M221 798q-21 0 -36 15t-15 36t15 36.5t36 15.5t36 -15.5t15 -36.5t-15 -36t-36 -15z" />
    <glyph glyph-name="Epsilontonosgreek" unicode="&#x388;" horiz-adv-x="1093" 
d="M37 1137l77 306h60l-93 -306h-44zM1021 46v-46h-728v1443h728v-46h-679v-633h647v-46h-647v-672h679z" />
    <glyph glyph-name="Etatonosgreek" unicode="&#x389;" horiz-adv-x="1328" 
d="M37 1135l77 306h60l-93 -306h-44zM1209 0h-50v718h-817v-718h-49v1443h49v-678h817v678h50v-1443z" />
    <glyph glyph-name="Iotatonosgreek" unicode="&#x38a;" horiz-adv-x="461" 
d="M37 1135l77 306h60l-93 -306h-44zM342 0h-49v1443h49v-1443z" />
    <glyph glyph-name="Omicrontonosgreek" unicode="&#x38c;" horiz-adv-x="1300" 
d="M36 1135l77 306h60l-93 -306h-44zM695 1463q251 0 393.5 -196.5t142.5 -544.5q0 -349 -142.5 -545.5t-393.5 -196.5q-252 0 -394.5 197t-142.5 545q0 347 143 544t394 197zM695 1417q-227 0 -357 -186t-130 -509t130 -509.5t357 -186.5q226 0 356.5 186.5t130.5 509.5
t-130.5 509t-356.5 186z" />
    <glyph glyph-name="Upsilontonosgreek" unicode="&#x38e;" horiz-adv-x="1260" 
d="M36 1136l77 305h60l-93 -305h-44zM775 0h-50v631l-463 812h57l429 -755h4l428 755h57l-462 -812v-631z" />
    <glyph glyph-name="Omegatonosgreek" unicode="&#x38f;" horiz-adv-x="1389" 
d="M37 1135l78 306h59l-93 -306h-44zM1246 765q0 290 -142.5 471t-375.5 181q-234 0 -377 -180t-143 -472q0 -242 100 -409.5t314 -285.5v-70h-456v46h402v5q-207 118 -308.5 292t-101.5 423q0 314 156 505.5t414 191.5q257 0 412.5 -192.5t155.5 -504.5q0 -248 -101 -422
t-309 -293v-5h402v-46h-456v70q215 118 314.5 286.5t99.5 408.5z" />
    <glyph glyph-name="iotadieresistonosgreek" unicode="&#x390;" horiz-adv-x="401" 
d="M112 1053h49v-839q0 -94 31 -136.5t113 -42.5q39 0 70 11l6 -45q-32 -12 -80 -12q-99 0 -144 50t-45 169v845zM5 1258q-21 0 -36 15t-15 37q0 21 15 36t36 15t36.5 -15t15.5 -36q0 -22 -15.5 -37t-36.5 -15zM316 1258q-21 0 -36.5 15t-15.5 37q0 21 15.5 36t36.5 15
t36 -15t15 -36q0 -22 -15 -37t-36 -15zM125 1244l46 313h60l-62 -313h-44z" />
    <glyph glyph-name="Alphagreek" unicode="&#x391;" horiz-adv-x="1074" 
d="M994 0l-162 484h-591l-161 -484h-55l485 1443h53l485 -1443h-54zM534 1370l-278 -840h561l-279 840h-4z" />
    <glyph glyph-name="Betagreek" unicode="&#x392;" horiz-adv-x="1022" 
d="M518 0h-399v1443h390q177 0 285.5 -94t108.5 -253q0 -134 -74.5 -226t-198.5 -118v-5q147 -19 242 -113t95 -251q0 -176 -121 -279.5t-328 -103.5zM169 1397v-629h329q158 0 256.5 88.5t98.5 238.5q0 138 -96 220t-253 82h-335zM169 46h346q185 0 294 91.5t109 245.5
q0 158 -113 248.5t-306 90.5h-330v-676z" />
    <glyph glyph-name="Gammagreek" unicode="&#x393;" horiz-adv-x="881" 
d="M169 0h-50v1443h700v-46h-650v-1397z" />
    <glyph glyph-name="Deltagreek" unicode="&#x394;" horiz-adv-x="1115" 
d="M1077 0h-1039v37l493 1406h52l494 -1406v-37zM97 52v-6h920v6l-458 1317h-4z" />
    <glyph glyph-name="Epsilongreek" unicode="&#x395;" horiz-adv-x="919" 
d="M847 46v-46h-728v1443h728v-46h-678v-633h647v-46h-647v-672h678z" />
    <glyph glyph-name="Zetagreek" unicode="&#x396;" horiz-adv-x="1026" 
d="M64 0v39l835 1357v1h-810v46h871v-40l-834 -1356v-1h836v-46h-898z" />
    <glyph glyph-name="Etagreek" unicode="&#x397;" horiz-adv-x="1154" 
d="M1035 0h-50v718h-816v-718h-50v1443h50v-678h816v678h50v-1443z" />
    <glyph glyph-name="Thetagreek" unicode="&#x398;" horiz-adv-x="1218" 
d="M906 707h-594v46h594v-46zM609 1463q253 0 396.5 -199t143.5 -542q0 -346 -144 -544t-396 -198t-396.5 198t-144.5 544q0 343 144 542t397 199zM609 1417q-229 0 -360 -186t-131 -509q0 -320 131.5 -508t359.5 -188t359.5 188t131.5 508q0 323 -131.5 509t-359.5 186z
" />
    <glyph glyph-name="Iotagreek" unicode="&#x399;" horiz-adv-x="288" 
d="M169 0h-50v1443h50v-1443z" />
    <glyph glyph-name="Kappagreek" unicode="&#x39a;" horiz-adv-x="993" 
d="M169 0h-50v1443h50v-838h4l684 838h60l-520 -639l582 -804h-62l-554 764l-194 -238v-526z" />
    <glyph glyph-name="Lambdagreek" unicode="&#x39b;" horiz-adv-x="1048" 
d="M968 0l-443 1365h-4l-441 -1365h-55l472 1443h53l472 -1443h-54z" />
    <glyph glyph-name="Mugreek" unicode="&#x39c;" horiz-adv-x="1408" 
d="M1289 0h-48v1341h-4l-505 -1341h-55l-506 1341h-4v-1341h-48v1443h63l521 -1376h3l518 1376h65v-1443z" />
    <glyph glyph-name="Nugreek" unicode="&#x39d;" horiz-adv-x="1169" 
d="M167 0h-48v1443h60l818 -1351h5v1351h48v-1443h-54l-824 1358h-5v-1358z" />
    <glyph glyph-name="Xigreek" unicode="&#x39e;" horiz-adv-x="1048" 
d="M72 1443h904v-49h-904v49zM924 719h-800v49h800v-49zM72 49h904v-49h-904v49z" />
    <glyph glyph-name="Omicrongreek" unicode="&#x39f;" horiz-adv-x="1211" 
d="M605 1463q251 0 394 -196.5t143 -544.5t-142.5 -545t-394.5 -197q-251 0 -394 197t-143 545q0 347 143.5 544t393.5 197zM605 1417q-227 0 -357 -186t-130 -509t130.5 -509.5t356.5 -186.5t356.5 186.5t130.5 509.5t-130.5 509t-356.5 186z" />
    <glyph glyph-name="Pigreek" unicode="&#x3a0;" horiz-adv-x="1134" 
d="M1015 0h-50v1397h-796v-1397h-50v1443h896v-1443z" />
    <glyph glyph-name="Rhogreek" unicode="&#x3a1;" horiz-adv-x="974" 
d="M119 1443h377q196 0 311 -113t115 -308t-115 -308t-311 -113h-327v-601h-50v1443zM169 1397v-749h322q176 0 278.5 99.5t102.5 274.5t-102.5 275t-278.5 100h-322z" />
    <glyph glyph-name="Sigmagreek" unicode="&#x3a3;" horiz-adv-x="1012" 
d="M126 51v-5h822v-46h-884v39l423 703l-404 658v43h856v-46h-791v-5l395 -647v-4z" />
    <glyph glyph-name="Taugreek" unicode="&#x3a4;" horiz-adv-x="999" 
d="M525 0h-50v1397h-454v46h958v-46h-454v-1397z" />
    <glyph glyph-name="Upsilongreek" unicode="&#x3a5;" horiz-adv-x="1024" 
d="M538 0h-50v631l-464 812h58l429 -755h4l428 755h56l-461 -812v-631z" />
    <glyph glyph-name="Phigreek" unicode="&#x3a6;" horiz-adv-x="1352" 
d="M1248 724q0 291 -143 451.5t-406 161.5v-1227q263 1 406 161.5t143 452.5zM100 724q0 -292 143 -452.5t406 -161.5v1227q-263 -1 -406 -161t-143 -452zM699 -59h-50v123q-288 3 -443.5 174t-155.5 486t155.5 485.5t443.5 174.5v106h50v-106q288 -4 444 -174.5t156 -485.5
t-156 -486t-444 -174v-123z" />
    <glyph glyph-name="Chigreek" unicode="&#x3a7;" horiz-adv-x="1052" 
d="M39 0l458 722v1l-457 720h57l430 -676l429 676h56l-456 -722l455 -721h-57l-428 676h-1l-430 -676h-56z" />
    <glyph glyph-name="Psigreek" unicode="&#x3a8;" horiz-adv-x="1253" 
d="M651 0h-49v357q-253 2 -376 136t-123 405v545h49v-545q0 -494 450 -495v1040h49v-1040q450 1 450 495v545h49v-545q0 -271 -123 -405t-376 -136v-357z" />
    <glyph glyph-name="Omegagreek" unicode="&#x3a9;" horiz-adv-x="1325" 
d="M1181 765q0 290 -142.5 471t-375.5 181q-154 0 -272.5 -81.5t-183 -230t-64.5 -340.5q0 -242 100 -409.5t315 -285.5v-70h-457v46h403v5q-208 117 -309 291t-101 424q0 314 156 505.5t413 191.5q258 0 413 -192.5t155 -504.5q0 -248 -101 -422t-309 -293v-5h403v-46h-457
v70q215 118 314.5 286.5t99.5 408.5z" />
    <glyph glyph-name="Iotadieresisgreek" unicode="&#x3aa;" horiz-adv-x="320" 
d="M201 0h-50v1443h50v-1443zM52 1595q-21 0 -36.5 15t-15.5 36t15.5 36t36.5 15t36 -15t15 -36t-15.5 -36t-35.5 -15zM300 1595q-21 0 -36 15t-15 36q0 22 15 36.5t36 14.5t36 -14.5t15 -36.5q0 -21 -15 -36t-36 -15z" />
    <glyph glyph-name="Upsilondieresisgreek" unicode="&#x3ab;" horiz-adv-x="1062" 
d="M577 0h-50v631l-463 812h57l429 -755h4l428 755h57l-462 -812v-631zM427 1595q-21 0 -36 15t-15 36q0 22 15 36.5t36 14.5t36 -14.5t15 -36.5q0 -21 -15 -36t-36 -15zM675 1595q-20 0 -35.5 15t-15.5 36t15 36t36 15t36.5 -15t15.5 -36t-15.5 -36t-36.5 -15z" />
    <glyph glyph-name="alphatonosgreek" unicode="&#x3ac;" horiz-adv-x="1039" 
d="M455 30q147 0 240.5 138t93.5 358q0 219 -95 358t-242 139q-101 0 -178.5 -66.5t-118 -179t-40.5 -251.5q0 -224 94 -360t246 -136zM452 -15q-174 0 -280.5 146t-106.5 396q0 241 104.5 391t280.5 150q118 0 215 -84t124 -218h2v287h47v-871q0 -77 23 -112t77 -35
q30 0 55 9l7 -45q-25 -10 -67 -10q-70 0 -106.5 41.5t-37.5 137.5v116h-2q-24 -122 -118 -210.5t-217 -88.5zM438 1218l78 306h59l-93 -306h-44z" />
    <glyph glyph-name="epsilontonosgreek" unicode="&#x3ad;" horiz-adv-x="872" 
d="M422 -15q-166 0 -260 77.5t-94 214.5q0 105 55 173.5t152 89.5v2q-86 14 -137 76t-51 164q0 130 93.5 208t252.5 78q156 0 254.5 -87t116.5 -237h-48q-13 128 -102 203.5t-223 75.5q-136 0 -215.5 -68t-79.5 -173q0 -109 65.5 -162t202.5 -53h131v-47h-132
q-137 0 -211.5 -64t-74.5 -178q0 -117 80 -182.5t223 -65.5q135 0 228.5 73.5t117.5 196.5h50q-24 -143 -131.5 -229t-262.5 -86zM413 1218l77 306h60l-93 -306h-44z" />
    <glyph glyph-name="etatonosgreek" unicode="&#x3ae;" horiz-adv-x="1043" 
d="M420 1218l77 306h60l-93 -306h-44zM938 -336h-49v1042q0 150 -79.5 233.5t-208.5 83.5q-147 0 -234 -99.5t-87 -263.5v-660h-49v872q0 74 -23.5 110t-76.5 36q-35 0 -63 -10v46q32 10 69 10q71 0 105 -44t35 -141l1 -42h2q35 109 123.5 170t205.5 61q146 0 237.5 -93
t91.5 -257v-1054z" />
    <glyph glyph-name="iotatonosgreek" unicode="&#x3af;" horiz-adv-x="401" 
d="M112 1053h49v-839q0 -94 31 -136.5t113 -42.5q39 0 70 11l6 -45q-32 -12 -80 -12q-99 0 -144 50t-45 169v845zM118 1218l77 306h59l-92 -306h-44z" />
    <glyph glyph-name="upsilondieresistonosgreek" unicode="&#x3b0;" horiz-adv-x="897" 
d="M444 -15q-169 0 -253.5 100t-84.5 279v689h49v-686q0 -164 73.5 -250.5t216.5 -86.5q158 0 238.5 126.5t80.5 350.5q-2 352 -74 546h51q72 -199 72 -544q0 -246 -92.5 -385t-276.5 -139zM291 1258q-21 0 -36 15t-15 37q0 21 15 36t36 15t36.5 -15t15.5 -36
q0 -22 -15.5 -37t-36.5 -15zM601 1258q-21 0 -36 15t-15 37q0 21 15 36t36 15t36.5 -15t15.5 -36q0 -22 -15.5 -37t-36.5 -15zM411 1244l45 313h61l-62 -313h-44z" />
    <glyph glyph-name="alphagreek" unicode="&#x3b1;" horiz-adv-x="1039" 
d="M455 30q147 0 240.5 138t93.5 358q0 219 -95 358t-242 139q-101 0 -178.5 -66.5t-118 -179t-40.5 -251.5q0 -224 94 -360t246 -136zM452 -15q-174 0 -280.5 146t-106.5 396q0 241 104.5 391t280.5 150q118 0 215 -84t124 -218h2v287h47v-871q0 -77 23 -112t77 -35
q30 0 55 9l7 -45q-25 -10 -67 -10q-70 0 -106.5 41.5t-37.5 136.5v117h-2q-24 -122 -118 -210.5t-217 -88.5z" />
    <glyph glyph-name="betagreek" unicode="&#x3b2;" horiz-adv-x="960" 
d="M353 756v47h125q128 0 205 83t77 222q0 142 -76.5 223.5t-208.5 81.5q-314 0 -314 -406v-478q0 -225 95 -362t265 -137q148 0 236 100t88 262q0 180 -100 272t-278 92h-114zM112 1025q0 212 93.5 323t267.5 111q158 0 246 -93t88 -256q0 -124 -58.5 -211.5t-168.5 -114.5
v-3q155 -25 235 -123t80 -262q0 -189 -101 -300t-269 -111q-138 0 -234.5 78.5t-127.5 220.5h-2v-620h-49v1361z" />
    <glyph glyph-name="gammagreek" unicode="&#x3b3;" horiz-adv-x="855" 
d="M418 -326h-49v315l-342 1064h52l318 -997h3q126 198 191 325t97 251t32 267q0 82 -12 154h51q10 -71 10 -154q0 -155 -35 -286t-105 -265.5t-211 -352.5v-321z" />
    <glyph glyph-name="deltagreek" unicode="&#x3b4;" horiz-adv-x="909" 
d="M455 -15q-185 0 -293 136.5t-108 367.5q0 220 102.5 347.5t276.5 135.5v4q-121 54 -173.5 112.5t-52.5 143.5q0 107 78 167t218 60q162 0 261 -60l-1 -46q-110 61 -259 61q-116 0 -182 -46t-66 -135q0 -81 63.5 -136.5t220.5 -120.5q166 -72 237 -191t71 -314
q0 -215 -107.5 -350.5t-285.5 -135.5zM455 30q155 0 250 122t95 318q0 214 -99 338t-253 124q-151 0 -248 -121t-97 -332q0 -200 95 -324.5t257 -124.5z" />
    <glyph glyph-name="epsilongreek" unicode="&#x3b5;" horiz-adv-x="872" 
d="M422 -15q-166 0 -260 77.5t-94 214.5q0 105 55 173.5t152 89.5v2q-86 14 -137 76t-51 164q0 130 93.5 208t252.5 78q156 0 254.5 -87t116.5 -237h-48q-13 128 -102 203.5t-223 75.5q-136 0 -215.5 -68t-79.5 -173q0 -109 65.5 -162t202.5 -53h131v-47h-132
q-137 0 -211.5 -64t-74.5 -178q0 -117 80 -182.5t223 -65.5q135 0 228.5 73.5t117.5 196.5h50q-24 -143 -131.5 -229t-262.5 -86z" />
    <glyph glyph-name="zetagreek" unicode="&#x3b6;" horiz-adv-x="743" 
d="M652 -327l-44 11q63 86 63 183q0 66 -45.5 115t-169.5 104q-223 98 -306.5 200t-83.5 287q0 226 156 445.5t406 374.5v2h-499v48h581v-48q-274 -166 -434 -380.5t-160 -440.5q0 -89 15.5 -149t60 -112t111.5 -93t182 -94q135 -62 185 -118t50 -140q0 -105 -68 -195z" />
    <glyph glyph-name="etagreek" unicode="&#x3b7;" horiz-adv-x="1043" 
d="M938 -336h-49v1042q0 150 -79.5 233.5t-208.5 83.5q-147 0 -234 -99.5t-87 -263.5v-660h-49v872q0 74 -23.5 110t-76.5 36q-35 0 -63 -10v46q32 10 69 10q71 0 105 -44t35 -141l1 -42h2q35 109 123.5 170t205.5 61q146 0 237.5 -93t91.5 -257v-1054z" />
    <glyph glyph-name="thetagreek" unicode="&#x3b8;" horiz-adv-x="954" 
d="M477 -15q-203 0 -300 181t-97 558q0 374 98.5 554.5t298.5 180.5t298 -180.5t98 -555.5q0 -377 -96.5 -557.5t-299.5 -180.5zM477 30q347 0 347 672h-694q2 -672 347 -672zM130 748h694q-1 665 -347 665q-174 0 -259.5 -165.5t-87.5 -499.5z" />
    <glyph glyph-name="iotagreek" unicode="&#x3b9;" horiz-adv-x="401" 
d="M112 1053h49v-839q0 -94 31 -136.5t113 -42.5q39 0 70 11l6 -45q-32 -12 -80 -12q-99 0 -144 50t-45 169v845z" />
    <glyph glyph-name="kappagreek" unicode="&#x3ba;" horiz-adv-x="925" 
d="M112 0v1053h49v-651h3l458 554q51 62 88 84.5t85 22.5q42 0 65 -10v-45q-24 9 -60 9q-38 0 -68.5 -20t-76.5 -76l-221 -271l438 -650h-59l-412 611l-240 -284v-327h-49z" />
    <glyph glyph-name="lambdagreek" unicode="&#x3bb;" horiz-adv-x="962" 
d="M34 0l399 1020l-70 212q-35 104 -76 141.5t-109 37.5q-35 0 -61 -8l-4 46q34 10 68 10q86 0 135 -45t88 -165l363 -1116q18 -56 42.5 -77t66.5 -21q32 0 56 9l6 -45q-27 -10 -65 -10q-60 0 -92 27t-56 100l-269 833h-2l-368 -949h-52z" />
    <glyph glyph-name="nugreek" unicode="&#x3bd;" horiz-adv-x="854" 
d="M365 0l-338 1053h52l318 -997h3q186 292 252.5 462t66.5 383q0 77 -12 152h51q10 -74 10 -151q0 -158 -34 -289t-103.5 -263.5t-209.5 -349.5h-56z" />
    <glyph glyph-name="xigreek" unicode="&#x3be;" horiz-adv-x="770" 
d="M652 -327l-44 11q63 83 63 184q0 66 -44.5 113.5t-168.5 104.5q-158 70 -240.5 127.5t-116.5 120t-34 152.5q0 140 85 220t232 97v2q-132 37 -197 103.5t-65 177.5q0 126 85.5 204t233.5 103v2h-318v48h567v-45l-93 -10q-432 -47 -432 -302q0 -128 102 -192t280 -64h84
v-48h-82q-433 0 -433 -297q0 -60 16.5 -104t60 -85.5t109 -78.5t173.5 -86q140 -64 192.5 -120t52.5 -143q0 -107 -68 -195z" />
    <glyph glyph-name="omicrongreek" unicode="&#x3bf;" horiz-adv-x="932" 
d="M465 -15q-184 0 -291 143t-107 398t107 398.5t291 143.5q185 0 292.5 -143.5t107.5 -398.5t-107.5 -398t-292.5 -143zM465 30q160 0 255.5 133t95.5 363q0 229 -96 363t-255 134t-254 -133.5t-95 -363.5t95 -363t254 -133z" />
    <glyph glyph-name="pigreek" unicode="&#x3c0;" horiz-adv-x="1114" 
d="M264 1v1004h-206v48h988v-48h-203v-825q0 -76 23.5 -110.5t76.5 -34.5q32 0 56 9l7 -45q-26 -10 -67 -10q-74 0 -109 45t-35 142v829h-482v-1004h-49z" />
    <glyph glyph-name="rhogreek" unicode="&#x3c1;" horiz-adv-x="942" 
d="M480 30q158 0 251.5 134t93.5 365q0 223 -93 358.5t-249 135.5q-164 0 -255.5 -129t-91.5 -356q0 -232 94.5 -370t249.5 -138zM87 -336v883q0 237 104.5 379t291.5 142q179 0 285 -149t106 -395q0 -247 -105 -393t-287 -146q-125 0 -220 83t-123 215h-2v-619h-50z" />
    <glyph glyph-name="sigmafinalgreek" unicode="&#x3c2;" horiz-adv-x="879" 
d="M719 -132q0 -107 -68 -195l-44 11q63 86 63 183q0 66 -45 115t-170 104q-221 96 -305.5 204t-84.5 286q0 220 104 356t292 136q143 0 239.5 -88t119.5 -237h-49q-22 126 -105.5 203t-204.5 77q-166 0 -256 -125t-90 -322q0 -85 15.5 -144t58.5 -112t112.5 -97.5
t182.5 -96.5q135 -62 185 -118t50 -140z" />
    <glyph glyph-name="sigmagreek" unicode="&#x3c3;" horiz-adv-x="1026" 
d="M458 -15q-181 0 -287.5 143t-106.5 383q0 253 108.5 397.5t308.5 144.5h489v-48h-327v-2q103 -54 159.5 -177.5t56.5 -299.5q0 -254 -109 -397.5t-292 -143.5zM458 30q161 0 257 135t96 359q0 226 -90 353.5t-247 127.5q-169 0 -265 -130t-96 -364q0 -217 94 -349
t251 -132z" />
    <glyph glyph-name="taugreek" unicode="&#x3c4;" horiz-adv-x="843" 
d="M576 -11q-106 0 -153.5 52.5t-47.5 175.5v788h-327v48h746v-48h-371v-787q0 -96 35.5 -139.5t121.5 -43.5q42 0 77 11l6 -45q-33 -12 -87 -12z" />
    <glyph glyph-name="upsilongreek" unicode="&#x3c5;" horiz-adv-x="897" 
d="M444 -15q-169 0 -253.5 100t-84.5 279v689h49v-686q0 -164 73.5 -250.5t216.5 -86.5q158 0 238.5 126.5t80.5 350.5q-2 352 -74 546h51q72 -199 72 -544q0 -246 -92.5 -385t-276.5 -139z" />
    <glyph glyph-name="phigreek" unicode="&#x3c6;" horiz-adv-x="1192" 
d="M572 -336v319q-240 8 -376.5 151.5t-136.5 390.5q0 248 136 391t377 151v268h48v-268q241 -8 377 -151t136 -391q0 -247 -137 -390.5t-376 -151.5v-319h-48zM620 27q212 5 338 138.5t126 359.5q0 227 -125.5 360.5t-338.5 137.5v-996zM572 27v996q-212 -4 -338 -138
t-126 -360t125.5 -359.5t338.5 -138.5z" />
    <glyph glyph-name="chigreek" unicode="&#x3c7;" horiz-adv-x="988" 
d="M174 -336l324 668l-245 566q-31 70 -58 94.5t-75 24.5q-32 0 -59 -9v45q28 10 66 10q65 0 98.5 -30t67.5 -108l236 -543h2l322 671h53l-349 -723l224 -518q29 -64 55.5 -88.5t72.5 -24.5q27 0 56 9l7 -45q-27 -9 -65 -9q-62 0 -98 27.5t-70 104.5l-214 494h-2l-296 -616
h-53z" />
    <glyph glyph-name="psigreek" unicode="&#x3c8;" horiz-adv-x="1122" 
d="M535 -336v321q-206 2 -317.5 102t-111.5 298v668h49v-670q0 -164 95 -257t285 -96v1305h49v-1305q202 6 303.5 132.5t101.5 382.5q0 320 -73 508h51q72 -197 72 -504q0 -270 -114.5 -414.5t-340.5 -150.5v-320h-49z" />
    <glyph glyph-name="omegagreek" unicode="&#x3c9;" horiz-adv-x="1262" 
d="M887 -18q-98 0 -164.5 64.5t-90.5 181.5h-2q-25 -117 -90.5 -181.5t-164.5 -64.5q-142 0 -217 127t-75 368q0 176 41 330.5t105 245.5h57q-73 -101 -113.5 -251t-40.5 -325q0 -216 62.5 -332.5t181.5 -116.5q113 0 171.5 98.5t58.5 273.5v321h49v-321q0 -174 59 -273
t172 -99q119 0 181.5 116.5t62.5 332.5q0 175 -40.5 325t-112.5 251h56q64 -91 105 -245.5t41 -330.5q0 -241 -75 -368t-217 -127z" />
    <glyph glyph-name="iotadieresisgreek" unicode="&#x3ca;" horiz-adv-x="401" 
d="M112 1053h49v-839q0 -94 31 -136.5t113 -42.5q39 0 70 11l6 -45q-32 -12 -80 -12q-99 0 -144 50t-45 169v845zM25 1267q-21 0 -36.5 15t-15.5 36t15.5 36t36.5 15t36 -14.5t15 -36.5q0 -21 -15 -36t-36 -15zM273 1267q-21 0 -36 15t-15 36q0 22 15 36.5t36 14.5t36.5 -15
t15.5 -36t-15.5 -36t-36.5 -15z" />
    <glyph glyph-name="upsilondieresisgreek" unicode="&#x3cb;" horiz-adv-x="897" 
d="M444 -15q-169 0 -253.5 100t-84.5 279v689h49v-686q0 -164 73.5 -250.5t216.5 -86.5q158 0 238.5 126.5t80.5 350.5q-2 352 -74 546h51q72 -199 72 -544q0 -246 -92.5 -385t-276.5 -139zM321 1267q-21 0 -36.5 15t-15.5 36t15.5 36t36.5 15t36 -14.5t15 -36.5
q0 -21 -15 -36t-36 -15zM569 1267q-21 0 -36 15t-15 36q0 22 15 36.5t36 14.5t36.5 -15t15.5 -36t-15.5 -36t-36.5 -15z" />
    <glyph glyph-name="omicrontonosgreek" unicode="&#x3cc;" horiz-adv-x="932" 
d="M465 -15q-184 0 -291 143t-107 398t107 398.5t291 143.5q185 0 292.5 -143.5t107.5 -398.5t-107.5 -398t-292.5 -143zM465 30q160 0 255.5 133t95.5 363q0 229 -96 363t-255 134t-254 -133.5t-95 -363.5t95 -363t254 -133zM442 1218l78 306h59l-93 -306h-44z" />
    <glyph glyph-name="upsilontonosgreek" unicode="&#x3cd;" horiz-adv-x="897" 
d="M444 -15q-169 0 -253.5 100t-84.5 279v689h49v-686q0 -164 73.5 -250.5t216.5 -86.5q158 0 238.5 126.5t80.5 350.5q-2 352 -74 546h51q72 -199 72 -544q0 -246 -92.5 -385t-276.5 -139zM404 1218l77 306h60l-93 -306h-44z" />
    <glyph glyph-name="omegatonosgreek" unicode="&#x3ce;" horiz-adv-x="1262" 
d="M887 -18q-98 0 -164.5 64.5t-90.5 181.5h-2q-25 -117 -90.5 -181.5t-164.5 -64.5q-142 0 -217 127t-75 368q0 176 41 330.5t105 245.5h57q-73 -101 -113.5 -251t-40.5 -325q0 -216 62.5 -332.5t181.5 -116.5q113 0 171.5 98.5t58.5 273.5v321h49v-321q0 -174 59 -273
t172 -99q119 0 181.5 116.5t62.5 332.5q0 175 -40.5 325t-112.5 251h56q64 -91 105 -245.5t41 -330.5q0 -241 -75 -368t-217 -127zM616 1218l78 306h59l-93 -306h-44z" />
    <glyph glyph-name="uni0400" unicode="&#x400;" horiz-adv-x="936" 
d="M856 46v-46h-729v1443h729v-46h-679v-633h647v-46h-647v-672h679zM474 1554l-264 287h62l256 -287h-54z" />
    <glyph glyph-name="Iocyrillic" unicode="&#x401;" horiz-adv-x="936" 
d="M856 46v-46h-729v1443h729v-46h-679v-633h647v-46h-647v-672h679zM369 1595q-21 0 -36.5 15t-15.5 36t15.5 36t36.5 15t36 -14.5t15 -36.5q0 -21 -15 -36t-36 -15zM617 1595q-21 0 -36 15t-15 36q0 22 15 36.5t36 14.5t36.5 -15t15.5 -36t-15.5 -36t-36.5 -15z" />
    <glyph glyph-name="Djecyrillic" unicode="&#x402;" horiz-adv-x="1374" 
d="M938 -10q-63 0 -91 10v47q25 -9 89 -9q140 0 221 104t81 277q0 180 -96 282.5t-265 102.5q-104 0 -198 -42.5t-148 -108.5v-653h-49v1397h-454v46h959v-46h-456v-679h4q61 60 151 96t192 36q192 0 301 -115.5t109 -315.5q0 -197 -95.5 -313t-254.5 -116z" />
    <glyph glyph-name="Gjecyrillic" unicode="&#x403;" horiz-adv-x="897" 
d="M177 0h-50v1443h718v-47h-668v-1396zM483 1554h-54l256 287h62z" />
    <glyph glyph-name="Ecyrillic" unicode="&#x404;" horiz-adv-x="1141" 
d="M1077 429q-16 -202 -145 -325.5t-326 -123.5q-247 0 -388 201.5t-141 550.5q0 342 140 536.5t389 194.5q188 0 321.5 -133.5t149.5 -339.5h-49q-16 186 -135.5 306t-286.5 120q-219 0 -345.5 -172.5t-133.5 -478.5h641v-47h-641q3 -323 131 -507t349 -184q173 0 289 110
t132 292h49z" />
    <glyph glyph-name="Dzecyrillic" unicode="&#x405;" horiz-adv-x="1009" 
d="M67 398h49q7 -171 117.5 -271.5t288.5 -100.5q164 0 268 95t104 243q0 121 -71.5 197t-239.5 133l-140 46q-178 60 -260 144t-82 215q0 160 115 262t287 102q181 0 295.5 -103t120.5 -274h-48q-7 151 -108 241t-260 90q-151 0 -251.5 -88.5t-100.5 -229.5q0 -114 75 -187
t237 -128l139 -45q181 -62 261.5 -149t80.5 -225q0 -169 -118 -277t-307 -108q-199 0 -322 112.5t-130 305.5z" />
    <glyph glyph-name="Icyrillic" unicode="&#x406;" horiz-adv-x="304" 
d="M177 0h-50v1443h50v-1443z" />
    <glyph glyph-name="Yicyrillic" unicode="&#x407;" horiz-adv-x="304" 
d="M177 0h-50v1443h50v-1443zM28 1595q-21 0 -36.5 15t-15.5 36t15.5 36t36.5 15t36 -14.5t15 -36.5q0 -21 -15 -36t-36 -15zM276 1595q-21 0 -36 15t-15 36q0 22 15 36.5t36 14.5t36.5 -15t15.5 -36t-15.5 -36t-36.5 -15z" />
    <glyph glyph-name="Jecyrillic" unicode="&#x408;" horiz-adv-x="863" 
d="M50 317h49q7 -133 87 -212t207 -79q143 0 220.5 91.5t77.5 265.5v1060h49v-1064q0 -190 -91 -295t-256 -105q-149 0 -244 93t-99 245z" />
    <glyph glyph-name="Ljecyrillic" unicode="&#x409;" horiz-adv-x="1798" 
d="M302 450q-5 -103 -18.5 -180t-39.5 -143t-71 -100.5t-108 -34.5q-34 0 -50 8v46l7 -2q6 -2 18 -3.5t24 -1.5q48 0 83 30.5t56 89t32.5 130.5t16.5 168l52 986h680v-603h333q195 0 308 -112.5t113 -307.5t-112.5 -307.5t-308.5 -112.5h-383v1397h-583zM984 46h329
q175 0 275.5 100.5t100.5 273.5t-101 273.5t-275 100.5h-329v-748z" />
    <glyph glyph-name="Njecyrillic" unicode="&#x40a;" horiz-adv-x="1846" 
d="M177 718v-718h-50v1443h50v-678h806v678h50v-678h336q194 0 306 -100t112 -274q0 -181 -112 -286t-306 -105h-386v718h-806zM1033 46h332q173 0 272.5 92.5t99.5 252.5q0 152 -100 239.5t-272 87.5h-332v-672z" />
    <glyph glyph-name="Tshecyrillic" unicode="&#x40b;" horiz-adv-x="1389" 
d="M881 804q-102 0 -197.5 -42t-150.5 -109v-653h-50v1397h-454v46h959v-46h-455v-679h4q64 63 154 98t192 35q184 0 290.5 -117.5t106.5 -320.5v-413h-50v405q0 185 -93.5 292t-255.5 107z" />
    <glyph glyph-name="Kjecyrillic" unicode="&#x40c;" horiz-adv-x="1016" 
d="M769 1841l-264 -287h-54l256 287h62zM229 744l759 -744h-70l-737 723h-4v-723h-50v1443h50v-684h4l694 684h67z" />
    <glyph glyph-name="uni040D" unicode="&#x40d;" horiz-adv-x="1189" 
d="M1012 0v1347h-4l-832 -1347h-49v1443h50v-1347h4l832 1347h48v-1443h-49zM577 1554l-264 287h62l256 -287h-54z" />
    <glyph glyph-name="Ushortcyrillic" unicode="&#x40e;" horiz-adv-x="987" 
d="M227 -8q-42 0 -58 8v47q16 -8 58 -8q36 0 67.5 16t55 40.5t48 68.5t42.5 85.5t43 105.5l-452 1088h55l422 -1020h5l393 1020h54l-416 -1072q-25 -67 -43 -109.5t-42 -91t-46.5 -77t-50.5 -54t-61.5 -36.5t-73.5 -11zM278 1770h44q0 -83 50.5 -130t134.5 -47t134.5 47
t50.5 130h44q0 -104 -62 -160.5t-167 -56.5t-167 56.5t-62 160.5z" />
    <glyph glyph-name="Dzhecyrillic" unicode="&#x40f;" horiz-adv-x="1170" 
d="M561 0h-434v1443h50v-1397h816v1397h49v-1443h-433v-285h-48v285z" />
    <glyph glyph-name="Acyrillic" unicode="&#x410;" horiz-adv-x="1090" 
d="M1002 0l-162 484h-591l-161 -484h-54l485 1443h52l485 -1443h-54zM542 1370l-277 -840h560l-279 840h-4z" />
    <glyph glyph-name="Becyrillic" unicode="&#x411;" horiz-adv-x="997" 
d="M938 410q0 -190 -109.5 -300t-298.5 -110h-403v1443h707v-46h-657v-578h353q189 0 298.5 -109.5t109.5 -299.5zM177 46h348q169 0 266.5 97.5t97.5 266.5q0 168 -97.5 265t-266.5 97h-348v-726z" />
    <glyph glyph-name="Vecyrillic" unicode="&#x412;" horiz-adv-x="1038" 
d="M526 0h-399v1443h390q177 0 285.5 -94t108.5 -253q0 -134 -74 -226t-199 -118v-5q147 -19 242 -113t95 -251q0 -176 -121 -279.5t-328 -103.5zM177 1397v-629h329q158 0 256.5 88.5t98.5 238.5q0 138 -95.5 220t-252.5 82h-336zM177 46h346q186 0 294.5 91.5t108.5 245.5
q0 158 -113 248.5t-306 90.5h-330v-676z" />
    <glyph glyph-name="Gecyrillic" unicode="&#x413;" horiz-adv-x="897" 
d="M177 0h-50v1443h718v-47h-668v-1396z" />
    <glyph glyph-name="Decyrillic" unicode="&#x414;" horiz-adv-x="1193" 
d="M279 448q-8 -149 -31.5 -245.5t-78.5 -150.5v-6h790v1351h-630zM57 0v-286h-48v332h83q120 69 138 408l52 989h727v-1397h172v-332h-48v286h-1076z" />
    <glyph glyph-name="Iecyrillic" unicode="&#x415;" horiz-adv-x="936" 
d="M856 46v-46h-729v1443h729v-46h-679v-633h647v-46h-647v-672h679z" />
    <glyph glyph-name="Zhecyrillic" unicode="&#x416;" horiz-adv-x="1563" 
d="M858 745l684 -745h-68l-664 723h-4v-723h-49v723h-4l-664 -723h-68l683 744l-638 699h67l620 -684h4v684h49v-684h4l620 684h65z" />
    <glyph glyph-name="Zecyrillic" unicode="&#x417;" horiz-adv-x="988" 
d="M323 728v46h146q170 0 265.5 88.5t95.5 235.5q0 138 -91 229t-245 91q-144 0 -237.5 -87.5t-110.5 -226.5h-48q17 161 123.5 260.5t273.5 99.5q174 0 279.5 -103.5t105.5 -261.5q0 -137 -74 -226.5t-205 -116.5v-4q154 -14 240.5 -108t86.5 -253q0 -181 -119 -296.5
t-320 -115.5q-182 0 -302 109t-129 269h50q8 -139 115.5 -235t266.5 -96q178 0 283 102t105 263q0 164 -102.5 250.5t-306.5 86.5h-146z" />
    <glyph glyph-name="Iicyrillic" unicode="&#x418;" horiz-adv-x="1189" 
d="M1012 0v1347h-4l-832 -1347h-49v1443h50v-1347h4l832 1347h48v-1443h-49z" />
    <glyph glyph-name="Iishortcyrillic" unicode="&#x419;" horiz-adv-x="1189" 
d="M1012 0v1347h-4l-832 -1347h-49v1443h50v-1347h4l832 1347h48v-1443h-49zM365 1771h43q1 -84 51.5 -130.5t134.5 -46.5t134.5 46.5t50.5 130.5h43q0 -104 -62 -160.5t-166 -56.5q-105 0 -167 56.5t-62 160.5z" />
    <glyph glyph-name="Kacyrillic" unicode="&#x41a;" horiz-adv-x="1016" 
d="M229 744l759 -744h-70l-737 723h-4v-723h-50v1443h50v-684h4l694 684h67z" />
    <glyph glyph-name="Elcyrillic" unicode="&#x41b;" horiz-adv-x="1124" 
d="M997 0h-49v1397h-597l-49 -947q-6 -108 -20 -188t-40.5 -143t-71 -95t-105.5 -32q-18 0 -50 8v46q1 0 8 -2t18 -3.5t22 -1.5q91 0 135 106.5t54 311.5l52 986h693v-1443z" />
    <glyph glyph-name="Emcyrillic" unicode="&#x41c;" horiz-adv-x="1425" 
d="M1298 0h-49v1341h-4l-505 -1341h-55l-505 1341h-4v-1341h-49v1443h63l521 -1376h3l519 1376h65v-1443z" />
    <glyph glyph-name="Encyrillic" unicode="&#x41d;" horiz-adv-x="1170" 
d="M1043 0h-49v718h-817v-718h-50v1443h50v-678h817v678h49v-1443z" />
    <glyph glyph-name="Ocyrillic" unicode="&#x41e;" horiz-adv-x="1227" 
d="M614 1463q251 0 394 -197t143 -544q0 -348 -142.5 -545t-394.5 -197t-394.5 197t-142.5 545q0 347 143 544t394 197zM614 1417q-227 0 -357 -186t-130 -509t130.5 -509.5t356.5 -186.5t356.5 186.5t130.5 509.5t-130.5 509t-356.5 186z" />
    <glyph glyph-name="Pecyrillic" unicode="&#x41f;" horiz-adv-x="1170" 
d="M1042 0h-49v1396h-816v-1396h-50v1443h915v-1443z" />
    <glyph glyph-name="Ercyrillic" unicode="&#x420;" horiz-adv-x="990" 
d="M127 1443h377q196 0 311 -113t115 -308t-115 -308t-311 -113h-327v-601h-50v1443zM177 1397v-749h322q177 0 279.5 99.5t102.5 274.5t-102.5 275t-279.5 100h-322z" />
    <glyph glyph-name="Escyrillic" unicode="&#x421;" horiz-adv-x="1141" 
d="M607 -20q-247 0 -388.5 201t-141.5 551q0 345 140.5 538t389.5 193q188 0 320.5 -135t149.5 -341h-48q-17 185 -135.5 307.5t-286.5 122.5q-226 0 -353 -182.5t-127 -502.5q0 -329 128 -517.5t352 -188.5q173 0 289 111.5t132 295.5h49q-16 -204 -144.5 -328.5
t-325.5 -124.5z" />
    <glyph glyph-name="Tecyrillic" unicode="&#x422;" horiz-adv-x="1016" 
d="M533 0h-50v1397h-454v46h958v-46h-454v-1397z" />
    <glyph glyph-name="Ucyrillic" unicode="&#x423;" horiz-adv-x="987" 
d="M227 -8q-42 0 -58 8v47q16 -8 58 -8q36 0 67.5 16t55 40.5t48 68.5t42.5 85.5t43 105.5l-452 1088h55l422 -1020h5l393 1020h54l-416 -1072q-25 -67 -43 -109.5t-42 -91t-46.5 -77t-50.5 -54t-61.5 -36.5t-73.5 -11z" />
    <glyph glyph-name="Efcyrillic" unicode="&#x424;" horiz-adv-x="1328" 
d="M640 195v1054q-246 -1 -388.5 -142.5t-142.5 -384.5q0 -244 142.5 -385t388.5 -142zM1219 722q0 243 -142.5 384.5t-387.5 142.5v-1054q245 1 387.5 142t142.5 385zM640 149q-273 0 -427 152t-154 421q0 268 154.5 420t426.5 153v159h49v-159q272 -1 426 -153t154 -420
q0 -269 -153.5 -420.5t-426.5 -152.5v-160h-49v160z" />
    <glyph glyph-name="Xacyrillic" unicode="&#x425;" horiz-adv-x="1068" 
d="M47 0l458 722v1l-457 720h57l430 -676h1l428 676h57l-457 -722l455 -721h-57l-428 676h-1l-429 -676h-57z" />
    <glyph glyph-name="Tsecyrillic" unicode="&#x426;" horiz-adv-x="1221" 
d="M1208 -285h-48v285h-1033v1443h50v-1397h810v1397h49v-1397h172v-331z" />
    <glyph glyph-name="Checyrillic" unicode="&#x427;" horiz-adv-x="1065" 
d="M938 0h-50v719h-3q-53 -50 -144 -88t-212 -38q-201 0 -316 116t-115 319v415h49v-408q0 -187 104.5 -291t278.5 -104q127 0 221.5 46t136.5 94v663h50v-1443z" />
    <glyph glyph-name="Shacyrillic" unicode="&#x428;" horiz-adv-x="1569" 
d="M127 0v1443h50v-1397h583v1397h49v-1397h583v1397h49v-1443h-1314z" />
    <glyph glyph-name="Shchacyrillic" unicode="&#x429;" horiz-adv-x="1626" 
d="M1613 -285h-48v285h-1438v1443h50v-1397h583v1397h49v-1397h583v1397h49v-1397h172v-331z" />
    <glyph glyph-name="Hardsigncyrillic" unicode="&#x42a;" horiz-adv-x="1204" 
d="M724 0h-383v1397h-313v46h363v-603h332q196 0 309 -112t113 -308q0 -195 -113 -307.5t-308 -112.5zM391 46h328q175 0 275.5 100t100.5 274q0 173 -100.5 273.5t-275.5 100.5h-328v-748z" />
    <glyph glyph-name="Yericyrillic" unicode="&#x42b;" horiz-adv-x="1314" 
d="M127 0v1443h50v-603h332q196 0 309 -112t113 -308q0 -195 -113 -307.5t-308 -112.5h-383zM177 46h328q175 0 276 100.5t101 273.5t-101 273.5t-276 100.5h-328v-748zM1187 0h-50v1443h50v-1443z" />
    <glyph glyph-name="Softsigncyrillic" unicode="&#x42c;" horiz-adv-x="990" 
d="M127 0v1443h50v-603h332q196 0 309 -112t113 -308q0 -195 -113 -307.5t-308 -112.5h-383zM177 46h328q175 0 276 100.5t101 273.5t-101 273.5t-276 100.5h-328v-748z" />
    <glyph glyph-name="Ereversedcyrillic" unicode="&#x42d;" horiz-adv-x="1148" 
d="M548 -20q-204 0 -335 123t-150 326h50q18 -180 137.5 -291t297.5 -111q220 0 346 185.5t127 505.5h-633v47h632q-8 303 -133 477t-339 174q-169 0 -292 -120.5t-143 -305.5h-50q20 207 156.5 340t328.5 133q246 0 384.5 -196.5t138.5 -539.5q0 -353 -137.5 -550
t-385.5 -197z" />
    <glyph glyph-name="IUcyrillic" unicode="&#x42e;" horiz-adv-x="1584" 
d="M983 -21q-246 0 -384 195.5t-140 543.5h-282v-718h-50v1443h50v-678h283q10 330 147 514.5t376 184.5q247 0 385.5 -196.5t138.5 -545.5q0 -350 -138 -546.5t-386 -196.5zM983 1417q-220 0 -347 -186.5t-127 -508.5q0 -323 127 -509.5t347 -186.5t346.5 187t126.5 509
t-126.5 508.5t-346.5 186.5z" />
    <glyph glyph-name="IAcyrillic" unicode="&#x42f;" horiz-adv-x="998" 
d="M822 675v722h-329q-176 0 -274.5 -95.5t-98.5 -265.5t98.5 -265.5t275.5 -95.5h328zM465 629l-380 -629h-55l382 635q-157 23 -249 126.5t-92 274.5q0 192 110.5 299.5t308.5 107.5h381v-1443h-49v629h-357z" />
    <glyph glyph-name="acyrillic" unicode="&#x430;" horiz-adv-x="897" 
d="M399 30q141 0 239 97.5t98 235.5v205l-289 -31q-157 -21 -235 -84.5t-78 -179.5q0 -110 76 -176.5t189 -66.5zM394 -15q-135 0 -222 78.5t-87 208.5q0 136 88 210t266 98l297 31v111q0 145 -72 223t-200 78t-206 -69.5t-93 -204.5h-48q13 153 105 236t242 83t235.5 -90
t85.5 -253v-725h-48v211h-2q-33 -99 -127 -162.5t-214 -63.5z" />
    <glyph glyph-name="becyrillic" unicode="&#x431;" horiz-adv-x="953" 
d="M481 -18q-195 0 -298.5 152t-103.5 439q0 165 10 289.5t33 222.5t58 163t88.5 107.5t121.5 61.5t159 19q57 0 129 6q98 7 153 30v-43q-49 -23 -150 -32q-54 -6 -132 -6q-111 0 -185 -31.5t-124 -106t-75.5 -188.5t-37.5 -289h2q41 132 133 203.5t222 71.5
q185 0 292.5 -143t107.5 -388q0 -247 -108.5 -392.5t-294.5 -145.5zM481 28q163 0 258 133t95 359q0 223 -95 354t-258 131q-164 0 -258.5 -131t-94.5 -354q0 -227 95 -359.5t258 -132.5z" />
    <glyph glyph-name="vecyrillic" unicode="&#x432;" horiz-adv-x="846" 
d="M443 1007h-274v-440h268q116 0 182 62t66 168q0 101 -63 155.5t-179 54.5zM439 522h-270v-477h281q286 0 286 248q0 113 -78.5 171t-218.5 58zM120 0v1053h324q136 0 213 -67.5t77 -186.5q0 -98 -49.5 -164t-135.5 -86v-2q103 -13 169 -78t66 -178q0 -144 -85.5 -217.5
t-248.5 -73.5h-330z" />
    <glyph glyph-name="gecyrillic" unicode="&#x433;" horiz-adv-x="739" 
d="M695 1007h-526v-1007h-49v1053h575v-46z" />
    <glyph glyph-name="decyrillic" unicode="&#x434;" horiz-adv-x="1013" 
d="M783 45v962h-497q-12 -279 -36 -573q-13 -148 -32.5 -240.5t-62.5 -145.5v-3h628zM65 -279h-48v324h71q52 39 77.5 136.5t38.5 257.5q26 326 37 614h591v-1008h158v-324h-48v279h-877v-279z" />
    <glyph glyph-name="iecyrillic" unicode="&#x435;" horiz-adv-x="925" 
d="M468 1023q-151 0 -243 -123t-100 -332h679q-1 206 -92 330.5t-244 124.5zM791 292h50q-24 -141 -120 -224t-246 -83q-188 0 -294 140t-106 401q0 252 106 397t287 145q177 0 281 -136.5t104 -369.5v-39h-728v-1q0 -236 93.5 -364t257.5 -128q129 0 211.5 72t103.5 190z
" />
    <glyph glyph-name="zhecyrillic" unicode="&#x436;" horiz-adv-x="1198" 
d="M671 550l505 -550h-69l-483 527h-2v-527h-49v527h-2l-483 -527h-67l505 547l-480 506h66l459 -488h2v488h49v-488h2l459 488h66z" />
    <glyph glyph-name="zecyrillic" unicode="&#x437;" horiz-adv-x="822" 
d="M421 -18q-152 0 -244.5 77t-115.5 208h49q22 -106 101.5 -173t209.5 -67q131 0 207.5 67t76.5 183q0 122 -78 182t-219 60h-149v45h149q125 0 195 63t70 169q0 104 -67.5 164t-186.5 60q-123 0 -198 -69t-96 -184h-49q23 134 109 216.5t233 82.5q143 0 223.5 -72
t80.5 -199q0 -98 -56 -163.5t-146 -85.5v-3q102 -15 167.5 -80t65.5 -182q0 -142 -89 -220.5t-243 -78.5z" />
    <glyph glyph-name="iicyrillic" unicode="&#x438;" horiz-adv-x="952" 
d="M169 0h-49v1053h49v-965h3l611 965h49v-1053h-49v963h-3z" />
    <glyph glyph-name="iishortcyrillic" unicode="&#x439;" horiz-adv-x="952" 
d="M169 0h-49v1053h49v-965h3l611 965h49v-1053h-49v963h-3zM267 1487h44q0 -94 49 -145t137 -51q87 0 135.5 51.5t48.5 144.5h45q0 -112 -60.5 -174.5t-168.5 -62.5q-109 0 -169.5 62.5t-60.5 174.5z" />
    <glyph glyph-name="kacyrillic" unicode="&#x43a;" horiz-adv-x="808" 
d="M219 548l569 -548h-70l-547 527h-2v-527h-49v1053h49v-488h2l523 488h67z" />
    <glyph glyph-name="elcyrillic" unicode="&#x43b;" horiz-adv-x="945" 
d="M265 434q-5 -68 -11 -116.5t-15.5 -103.5t-23.5 -91.5t-34 -68t-49 -47t-66 -15.5q-28 0 -48 8v46q32 -8 47 -8q39 0 66.5 29t44.5 88t26 123.5t16 160.5q21 265 36 614h572v-1053h-49v1007h-478q-16 -334 -34 -573z" />
    <glyph glyph-name="emcyrillic" unicode="&#x43c;" horiz-adv-x="1195" 
d="M169 0h-49v1053h57l421 -982h3l418 982h56v-1053h-49v947h-3l-405 -945h-40l-406 945h-3v-947z" />
    <glyph glyph-name="encyrillic" unicode="&#x43d;" horiz-adv-x="942" 
d="M773 0v523h-604v-523h-49v1053h49v-486h604v486h49v-1053h-49z" />
    <glyph glyph-name="ocyrillic" unicode="&#x43e;" horiz-adv-x="954" 
d="M477 -15q-185 0 -293.5 143.5t-108.5 397.5q0 255 108.5 398.5t293.5 143.5t293.5 -143.5t108.5 -398.5q0 -254 -108.5 -397.5t-293.5 -143.5zM477 30q162 0 257.5 132.5t95.5 363.5t-95.5 364t-257.5 133t-257 -133t-95 -364t95 -363.5t257 -132.5z" />
    <glyph glyph-name="pecyrillic" unicode="&#x43f;" horiz-adv-x="933" 
d="M765 0v1007h-596v-1007h-49v1053h694v-1053h-49z" />
    <glyph glyph-name="ercyrillic" unicode="&#x440;" horiz-adv-x="976" 
d="M517 1068q176 0 281 -145t105 -396q0 -252 -105 -397t-281 -145q-128 0 -221.5 79.5t-123.5 212.5h-3v-613h-49v1389h47v-281h2q33 134 126.5 215t221.5 81zM514 30q154 0 247 135.5t93 360.5q0 226 -93 361.5t-247 135.5t-249.5 -132.5t-95.5 -364.5t95.5 -364
t249.5 -132z" />
    <glyph glyph-name="escyrillic" unicode="&#x441;" horiz-adv-x="893" 
d="M825 756h-48q-26 121 -108 194t-199 73q-162 0 -255 -133t-93 -364t92.5 -363.5t255.5 -132.5q116 0 196.5 68t107.5 183h49q-27 -138 -121 -217t-232 -79q-186 0 -291.5 142.5t-105.5 398.5q0 255 106 398.5t291 143.5q139 0 234 -84.5t121 -227.5z" />
    <glyph glyph-name="tecyrillic" unicode="&#x442;" horiz-adv-x="807" 
d="M771 1053v-46h-343v-1007h-49v1007h-343v46h735z" />
    <glyph glyph-name="ucyrillic" unicode="&#x443;" horiz-adv-x="812" 
d="M171 -346q-22 0 -46 8v46q20 -8 47 -8q63 0 102 43.5t78 155.5l28 79l-358 1075h52l331 -1000h3l330 1000h52l-366 -1105q-59 -173 -110 -233.5t-143 -60.5z" />
    <glyph glyph-name="efcyrillic" unicode="&#x444;" horiz-adv-x="1198" 
d="M575 27v993q-211 -8 -333.5 -138.5t-122.5 -358.5q0 -229 122.5 -358.5t333.5 -137.5zM1079 524q0 228 -122 358t-333 138v-993q211 8 333 138t122 359zM575 -19q-235 8 -370 149.5t-135 392.5q0 250 135 392.5t370 150.5v354h49v-354q235 -8 369.5 -150t134.5 -392
q0 -251 -135 -393t-369 -150v-323h-49v323z" />
    <glyph glyph-name="hacyrillic" unicode="&#x445;" horiz-adv-x="791" 
d="M396 492h-2l-318 -492h-57l347 537l-347 516h59l317 -476h2l317 476h58l-347 -516l347 -537h-57z" />
    <glyph glyph-name="tsecyrillic" unicode="&#x446;" horiz-adv-x="993" 
d="M971 -279h-47v279h-804v1053h49v-1008h595v1008h49v-1008h158v-324z" />
    <glyph glyph-name="checyrillic" unicode="&#x447;" horiz-adv-x="872" 
d="M752 0h-49v506h-7q-43 -43 -111.5 -71.5t-153.5 -28.5q-168 0 -255 95t-87 259v293h49v-292q0 -143 76 -226t219 -83q165 0 270 120v481h49v-1053z" />
    <glyph glyph-name="shacyrillic" unicode="&#x448;" horiz-adv-x="1378" 
d="M120 0v1053h49v-1008h495v1008h50v-1008h495v1008h49v-1053h-1138z" />
    <glyph glyph-name="shchacyrillic" unicode="&#x449;" horiz-adv-x="1438" 
d="M1416 -279h-48v279h-1248v1053h49v-1008h495v1008h49v-1008h496v1008h49v-1008h158v-324z" />
    <glyph glyph-name="hardsigncyrillic" unicode="&#x44a;" horiz-adv-x="969" 
d="M585 0h-294v1007h-255v46h304v-400h245q150 0 235.5 -86.5t85.5 -239.5q0 -152 -86 -239.5t-235 -87.5zM585 609h-245v-564h245q126 0 199 76t73 206q0 131 -73 206.5t-199 75.5z" />
    <glyph glyph-name="yericyrillic" unicode="&#x44b;" horiz-adv-x="1081" 
d="M912 0v1053h49v-1053h-49zM413 609h-244v-564h244q126 0 199.5 76t73.5 206q0 131 -73 206.5t-200 75.5zM120 0v1053h49v-400h245q148 0 234.5 -87t86.5 -239t-86.5 -239.5t-234.5 -87.5h-294z" />
    <glyph glyph-name="softsigncyrillic" unicode="&#x44c;" horiz-adv-x="798" 
d="M413 609h-244v-564h244q126 0 199.5 76t73.5 206q0 131 -73 206.5t-200 75.5zM120 0v1053h49v-400h245q148 0 234.5 -87t86.5 -239t-86.5 -239.5t-234.5 -87.5h-294z" />
    <glyph glyph-name="ereversedcyrillic" unicode="&#x44d;" horiz-adv-x="895" 
d="M121 277q26 -114 108.5 -180.5t196.5 -66.5q164 0 254.5 131t91.5 362h-499v44h498q-9 214 -99 335t-246 121q-115 0 -198.5 -72t-109.5 -191h-49q27 138 123 223t234 85q186 0 290.5 -143t104.5 -392q0 -260 -103.5 -404t-291.5 -144q-137 0 -232.5 78t-122.5 214h50z
" />
    <glyph glyph-name="iucyrillic" unicode="&#x44e;" horiz-adv-x="1283" 
d="M814 -18q-184 0 -289.5 143t-106.5 398h-249v-523h-49v1053h49v-486h251q10 235 115 367.5t279 132.5q184 0 290 -145t106 -399q0 -253 -106 -397t-290 -144zM814 28q159 0 252.5 133t93.5 362q0 231 -93.5 364.5t-252.5 133.5t-252.5 -133.5t-93.5 -364.5
q0 -230 93 -362.5t253 -132.5z" />
    <glyph glyph-name="iacyrillic" unicode="&#x44f;" horiz-adv-x="814" 
d="M389 483h256v524h-256q-125 0 -197.5 -70.5t-72.5 -192.5q0 -121 72.5 -191t197.5 -70zM645 0v438h-243l-293 -438h-59l297 441q-130 11 -203 91t-73 212q0 144 85 226.5t233 82.5h305v-1053h-49z" />
    <glyph glyph-name="uni0450" unicode="&#x450;" horiz-adv-x="925" 
d="M468 1023q-151 0 -243 -123t-100 -332h679q-1 206 -92 330.5t-244 124.5zM791 292h50q-24 -141 -120 -224t-246 -83q-188 0 -294 140t-106 401q0 252 106 397t287 145q177 0 281 -136.5t104 -369.5v-39h-728v-1q0 -236 93.5 -364t257.5 -128q129 0 211.5 72t103.5 190z
M505 1211h-50l-205 302h57z" />
    <glyph glyph-name="iocyrillic" unicode="&#x451;" horiz-adv-x="925" 
d="M468 1023q-151 0 -243 -123t-100 -332h679q-1 206 -92 330.5t-244 124.5zM791 292h50q-24 -141 -120 -224t-246 -83q-188 0 -294 140t-106 401q0 252 106 397t287 145q177 0 281 -136.5t104 -369.5v-39h-728v-1q0 -236 93.5 -364t257.5 -128q129 0 211.5 72t103.5 190z
M342 1245q-21 0 -36 15t-15 36q0 22 15 37t36 15t36.5 -15t15.5 -37q0 -21 -15.5 -36t-36.5 -15zM591 1245q-21 0 -36 15t-15 36q0 22 15 37t36 15t36 -15t15 -37q0 -21 -15 -36t-36 -15z" />
    <glyph glyph-name="djecyrillic" unicode="&#x452;" horiz-adv-x="960" 
d="M188 837h3q32 105 118.5 168t205.5 63q157 0 246 -95.5t89 -263.5v-799q0 -137 -55.5 -194.5t-173.5 -57.5h-26v45h24q97 0 139.5 48t42.5 160v795q0 151 -78 234t-216 83q-143 0 -231 -100t-88 -262v-661h-49v1243h-123v43h123v157h49v-157h250v-43h-250v-406z" />
    <glyph glyph-name="gjecyrillic" unicode="&#x453;" horiz-adv-x="740" 
d="M695 1007h-526v-1007h-49v1053h575v-46zM409 1232h-50l199 303h57z" />
    <glyph glyph-name="ecyrillic" unicode="&#x454;" horiz-adv-x="895" 
d="M774 277h50q-28 -136 -121.5 -214t-233.5 -78q-185 0 -290.5 144t-105.5 397t105.5 397.5t290.5 144.5q140 0 235 -83.5t122 -224.5h-49q-26 121 -108.5 192t-199.5 71q-154 0 -245 -121.5t-100 -334.5h496v-44h-497q1 -230 92.5 -361.5t253.5 -131.5q116 0 197 66.5
t108 180.5z" />
    <glyph glyph-name="dzecyrillic" unicode="&#x455;" horiz-adv-x="820" 
d="M97 796q0 121 89 196.5t225 75.5q145 0 232 -82t100 -236h-49q-14 132 -88 202.5t-195 70.5q-115 0 -190 -62.5t-75 -162.5q0 -85 55 -135.5t175 -86.5l115 -33q140 -42 202.5 -105t62.5 -172q0 -126 -94 -203.5t-242 -77.5q-151 0 -247.5 85t-106.5 225h49
q11 -120 94.5 -193t210.5 -73q126 0 206.5 64.5t80.5 169.5q0 92 -55.5 146.5t-175.5 89.5l-118 34q-133 38 -197 100t-64 163z" />
    <glyph glyph-name="icyrillic" unicode="&#x456;" horiz-adv-x="289" 
d="M119 0v1053h49v-1053h-49zM144 1314q-20 0 -34 13.5t-14 33.5t14 33.5t34 13.5t33.5 -13.5t13.5 -33.5t-13.5 -33.5t-33.5 -13.5z" />
    <glyph glyph-name="yicyrillic" unicode="&#x457;" horiz-adv-x="289" 
d="M50 1312q-20 0 -34 13.5t-14 33.5q0 19 14 33t34 14q19 0 32.5 -14t13.5 -33q0 -20 -13.5 -33.5t-32.5 -13.5zM251 1312q-20 0 -33.5 13.5t-13.5 33.5q0 19 14 33t33 14t32.5 -14t13.5 -33q0 -20 -13.5 -33.5t-32.5 -13.5zM120 0v1053h49v-1053h-49z" />
    <glyph glyph-name="jecyrillic" unicode="&#x458;" horiz-adv-x="289" 
d="M144 1314q-20 0 -34 13.5t-14 33.5t14 33.5t34 13.5t33.5 -13.5t13.5 -33.5t-13.5 -33.5t-33.5 -13.5zM168 1053v-1150q0 -129 -56.5 -187t-172.5 -58h-27v45h24q97 0 140 46.5t43 152.5v1151h49z" />
    <glyph glyph-name="ljecyrillic" unicode="&#x459;" horiz-adv-x="1448" 
d="M265 434q-5 -68 -11 -116.5t-15.5 -103.5t-23.5 -91.5t-34 -68t-49 -47t-66 -15.5q-16 0 -48 8v46q24 -8 47 -8q39 0 66.5 29t44 88.5t25.5 123t17 160.5q21 265 36 614h565v-400h245q150 0 235.5 -86.5t85.5 -239.5q0 -152 -85.5 -239.5t-235.5 -87.5h-293v1007h-472
q-16 -334 -34 -573zM1064 609h-245v-564h245q126 0 199 76t73 206q0 131 -73 206.5t-199 75.5z" />
    <glyph glyph-name="njecyrillic" unicode="&#x45a;" horiz-adv-x="1430" 
d="M1051 549h-246v-504h246q124 0 196 68t72 184q0 118 -72 185t-196 67zM756 0v547h-587v-547h-49v1053h49v-461h587v461h49v-459h246q147 0 232 -79t85 -218t-85 -218t-232 -79h-295z" />
    <glyph glyph-name="tshecyrillic" unicode="&#x45b;" horiz-adv-x="963" 
d="M189 835h2q30 104 118 168.5t206 64.5q156 0 247.5 -96.5t91.5 -265.5v-706h-50v703q0 150 -79.5 235t-216.5 85q-143 0 -231 -103t-88 -263v-657h-49v1243h-123v43h123v157h49v-157h252v-43h-252v-408z" />
    <glyph glyph-name="kjecyrillic" unicode="&#x45c;" horiz-adv-x="808" 
d="M624 1535l-205 -303h-50l199 303h56zM219 548l569 -548h-70l-547 527h-2v-527h-49v1053h49v-488h2l523 488h67z" />
    <glyph glyph-name="uni045D" unicode="&#x45d;" horiz-adv-x="952" 
d="M169 0h-49v1053h49v-965h3l611 965h49v-1053h-49v963h-3zM522 1232h-51l-205 303h57z" />
    <glyph glyph-name="ushortcyrillic" unicode="&#x45e;" horiz-adv-x="812" 
d="M171 -346q-22 0 -46 8v46q20 -8 47 -8q63 0 102 43.5t78 155.5l28 79l-358 1075h52l331 -1000h3l330 1000h52l-366 -1105q-59 -173 -110 -233.5t-143 -60.5zM186 1486h45q0 -94 49 -144.5t136 -50.5t136 51t49 144h45q0 -112 -61 -174t-169 -62t-169 62t-61 174z" />
    <glyph glyph-name="dzhecyrillic" unicode="&#x45f;" horiz-adv-x="933" 
d="M814 0h-324v-279h-47v279h-323v1053h49v-1008h596v1008h49v-1053z" />
    <glyph glyph-name="uni0462" unicode="&#x462;" horiz-adv-x="1168" 
d="M355 46h328q175 0 275.5 100t100.5 274q0 173 -100.5 273.5t-275.5 100.5h-328v-748zM355 840h333q195 0 308 -112.5t113 -307.5t-113 -307.5t-308 -112.5h-383v1212h-292v46h292v226h50v-226h428v-46h-428v-372z" />
    <glyph glyph-name="uni0463" unicode="&#x463;" horiz-adv-x="920" 
d="M291 45h245q126 0 199.5 76t73.5 206t-73.5 206t-199.5 76h-245v-564zM291 653h246q149 0 234.5 -86.5t85.5 -239.5q0 -152 -85.5 -239.5t-234.5 -87.5h-295v1007h-228v46h228v390h49v-390h415v-46h-415v-354z" />
    <glyph glyph-name="uni0472" unicode="&#x472;" horiz-adv-x="1227" 
d="M1100 722v12q-45 -52 -109.5 -82t-134.5 -30q-64 0 -133 26t-119 57.5t-114.5 57.5t-120.5 26q-68 0 -130.5 -33t-110.5 -93q12 -296 141.5 -466.5t344.5 -170.5q225 0 355.5 187t130.5 509zM127 722v-3q100 115 245 115q50 0 103 -17t99 -41.5t91 -49.5t95.5 -42
t96.5 -17q70 0 136.5 34.5t104.5 89.5q-14 292 -143 459t-341 167q-226 0 -356.5 -186.5t-130.5 -508.5zM614 1464q252 0 394 -197t142 -545q0 -349 -142 -546t-394 -197q-253 0 -395 197t-142 546q0 348 142 545t395 197z" />
    <glyph glyph-name="uni0473" unicode="&#x473;" horiz-adv-x="955" 
d="M477 30q163 0 258 134t95 362q-64 -69 -180 -69q-54 0 -117 26.5t-123 52.5t-109 26q-57 0 -104 -20.5t-72 -57.5q9 -211 103 -332.5t249 -121.5zM477 1023q-162 0 -256.5 -131t-96.5 -357q66 72 182 72q65 0 178 -53t170 -53t103.5 20.5t71.5 55.5q-11 207 -105 326.5
t-247 119.5zM477 1068q188 0 295 -145t107 -397t-107 -396.5t-295 -144.5q-187 0 -294.5 144.5t-107.5 396.5t107.5 397t294.5 145z" />
    <glyph glyph-name="uni0474" unicode="&#x474;" horiz-adv-x="1245" 
d="M569 0h-56l-481 1443h54l453 -1371h5l383 1163q47 139 93 177q38 35 103 35q61 0 113 -34l-17 -46q-50 27 -95 27q-50 0 -81 -32q-29 -30 -67 -139z" />
    <glyph glyph-name="uni0475" unicode="&#x475;" horiz-adv-x="962" 
d="M960 1036l-17 -46q-46 27 -85 27q-40 0 -69 -29q-29 -30 -62 -122l-288 -866h-69l-351 1053h53l331 -1000h4l271 823q42 124 88 160q38 32 91 32t103 -32z" />
    <glyph glyph-name="uni048A" unicode="&#x48a;" horiz-adv-x="1232" 
d="M779 1771h43q0 -104 -62 -160.5t-166 -56.5q-105 0 -167 56.5t-62 160.5h43q1 -84 51.5 -130.5t134.5 -46.5t134.5 46.5t50.5 130.5zM1061 46h161v-11l-92 -320h-48l82 285h-152v1347h-4l-832 -1347h-49v1443h50v-1347h4l832 1347h48v-1397z" />
    <glyph glyph-name="uni048B" unicode="&#x48b;" horiz-adv-x="994" 
d="M681 1487h45q0 -112 -60.5 -174.5t-168.5 -62.5q-109 0 -169.5 62.5t-60.5 174.5h44q0 -94 49 -145t137 -51q87 0 135.5 51.5t48.5 144.5zM832 45h156v-11l-88 -313h-48l78 279h-147v963h-3l-611 -963h-49v1053h49v-965h3l611 965h49v-1008z" />
    <glyph glyph-name="uni048C" unicode="&#x48c;" horiz-adv-x="1168" 
d="M355 46h328q175 0 275.5 100t100.5 274q0 173 -100.5 273.5t-275.5 100.5h-328v-748zM355 840h333q195 0 308 -112.5t113 -307.5t-113 -307.5t-308 -112.5h-383v1212h-292v46h292v226h50v-226h428v-46h-428v-372z" />
    <glyph glyph-name="uni048D" unicode="&#x48d;" horiz-adv-x="920" 
d="M291 45h245q126 0 199.5 76t73.5 206t-73.5 206t-199.5 76h-245v-564zM291 653h246q149 0 234.5 -86.5t85.5 -239.5q0 -152 -85.5 -239.5t-234.5 -87.5h-295v1007h-228v46h228v390h49v-390h415v-46h-415v-354z" />
    <glyph glyph-name="uni048E" unicode="&#x48e;" horiz-adv-x="990" 
d="M176 648h338q68 0 128 17l-158 286l38 23l163 -293q94 41 144.5 128.5t50.5 212.5q0 176 -96.5 275.5t-266.5 99.5h-341v-749zM127 1443h395q189 0 298.5 -113t109.5 -308q0 -139 -57.5 -237.5t-163.5 -145.5l160 -291l-42 -26l-163 300q-68 -21 -150 -21h-338v-601h-49
v1443z" />
    <glyph glyph-name="uni048F" unicode="&#x48f;" horiz-adv-x="976" 
d="M518 382l168 -296q80 59 124 173t44 267q0 226 -93 361.5t-248 135.5q-154 0 -249 -132t-95 -365q0 -232 95 -364t249 -132q71 0 133 31l-165 297zM167 766h3q29 136 124 219t223 83q176 0 281 -145t105 -396q0 -172 -50.5 -296.5t-141.5 -187.5l120 -213l-41 -27
l-121 216q-71 -34 -152 -34q-128 0 -222.5 82t-122.5 216h-3v-619h-49v1389h47v-287z" />
    <glyph glyph-name="Geupturncyrillic" unicode="&#x490;" horiz-adv-x="897" 
d="M177 1396v-1396h-50v1443h670v250h48v-297h-668z" />
    <glyph glyph-name="geupturncyrillic" unicode="&#x491;" horiz-adv-x="739" 
d="M695 1007h-526v-1007h-49v1053h528v244h47v-290z" />
    <glyph glyph-name="uni0492" unicode="&#x492;" horiz-adv-x="937" 
d="M885 1396h-668v-635h566v-45h-566v-716h-50v716h-118v45h118v682h718v-47z" />
    <glyph glyph-name="uni0493" unicode="&#x493;" horiz-adv-x="758" 
d="M713 1007h-526v-440h380v-44h-380v-523h-49v523h-114v44h114v486h575v-46z" />
    <glyph glyph-name="uni0494" unicode="&#x494;" horiz-adv-x="1019" 
d="M758 1443v-46h-581v-679h7q52 53 138.5 92.5t201.5 39.5q195 0 302 -116t107 -315q0 -194 -94 -311.5t-256 -117.5q-71 0 -91 10v47q18 -9 89 -9q136 0 219.5 104t83.5 277q0 179 -96.5 282t-265.5 103q-122 0 -212 -49t-133 -102v-653h-50v1443h631z" />
    <glyph glyph-name="uni0495" unicode="&#x495;" horiz-adv-x="839" 
d="M169 468h7q46 52 116.5 84.5t155.5 32.5q155 0 245.5 -113t90.5 -304q0 -203 -89.5 -323.5t-239.5 -120.5q-63 0 -90 11v46q22 -9 87 -9q128 0 205.5 107.5t77.5 287.5q0 169 -78.5 270.5t-209.5 101.5q-86 0 -160 -38t-118 -96v-405h-49v1053h530v-46h-481v-539z" />
    <glyph glyph-name="uni0496" unicode="&#x496;" horiz-adv-x="1644" 
d="M1500 46h140v-331h-48v285h-118l-664 723h-4v-723h-49v723h-4l-664 -723h-68l683 744l-638 699h67l620 -684h4v684h49v-684h4l620 684h65l-637 -698z" />
    <glyph glyph-name="uni0497" unicode="&#x497;" horiz-adv-x="1236" 
d="M1135 45h96v-324h-48v279h-76l-483 527h-2v-527h-49v527h-2l-483 -527h-67l505 547l-480 506h66l459 -488h2v488h49v-488h2l459 488h66l-478 -503z" />
    <glyph glyph-name="uni0498" unicode="&#x498;" horiz-adv-x="988" 
d="M601 756v-4q154 -14 240.5 -108t86.5 -253q0 -173 -110 -287t-298 -124v-266h-48v265q-175 6 -290 114t-124 264h50q8 -139 115.5 -235t266.5 -96q178 0 283 102t105 263q0 164 -102.5 250.5t-306.5 86.5h-146v46h146q170 0 265.5 88.5t95.5 235.5q0 138 -91 229t-245 91
q-144 0 -237.5 -87.5t-110.5 -226.5h-48q17 161 123.5 260.5t273.5 99.5q174 0 279.5 -103.5t105.5 -261.5q0 -137 -74 -226.5t-205 -116.5z" />
    <glyph glyph-name="uni0499" unicode="&#x499;" horiz-adv-x="822" 
d="M520 546v-3q102 -15 167.5 -80t65.5 -182q0 -138 -84 -216t-229 -83v-261h-47v262q-139 7 -224.5 83t-107.5 201h49q22 -106 101.5 -173t209.5 -67q131 0 207.5 67t76.5 183q0 122 -78 182t-219 60h-149v45h149q125 0 195 63t70 169q0 104 -67.5 164t-186.5 60
q-123 0 -198 -69t-96 -184h-49q23 134 109 216.5t233 82.5q143 0 223.5 -72t80.5 -199q0 -98 -56 -163.5t-146 -85.5z" />
    <glyph glyph-name="uni049A" unicode="&#x49a;" horiz-adv-x="1086" 
d="M941 46h142v-331h-48v285h-117l-737 723h-4v-723h-50v1443h50v-684h4l694 684h67l-713 -699z" />
    <glyph glyph-name="uni049B" unicode="&#x49b;" horiz-adv-x="844" 
d="M741 45h98v-324h-48v279h-73l-547 527h-2v-527h-49v1053h49v-488h2l523 488h67l-542 -505z" />
    <glyph glyph-name="uni049C" unicode="&#x49c;" horiz-adv-x="1045" 
d="M501 744l522 -744h-61l-507 720h-92v-368h-46v368h-140v-720h-50v1443h50v-681h140v350h46v-350h92l452 681h58z" />
    <glyph glyph-name="uni049D" unicode="&#x49d;" horiz-adv-x="852" 
d="M462 536l378 -536h-61l-362 513h-77v-330h-45v330h-126v-513h-49v1053h49v-497h126v317h45v-317h77l339 497h57z" />
    <glyph glyph-name="uni049E" unicode="&#x49e;" horiz-adv-x="1058" 
d="M271 744l760 -744h-70l-737 722h-5v-722h-50v1243h-159v45h159v155h50v-155h245v-45h-245v-482h5l694 682h67z" />
    <glyph glyph-name="uni049F" unicode="&#x49f;" horiz-adv-x="827" 
d="M361 601l445 -601h-60l-423 568l-136 -137v-431h-49v1244h-124v43h124v156h49v-156h253v-43h-253v-749h1l551 558h65z" />
    <glyph glyph-name="uni04A0" unicode="&#x4a0;" horiz-adv-x="1522" 
d="M735 744l759 -744h-70l-737 723h-4v-723h-50v1397h-606v46h656v-684h4l694 684h67z" />
    <glyph glyph-name="uni04A1" unicode="&#x4a1;" horiz-adv-x="1210" 
d="M620 548l568 -548h-69l-547 527h-2v-527h-49v1008h-482v45h531v-488h2l522 488h68z" />
    <glyph glyph-name="uni04A2" unicode="&#x4a2;" horiz-adv-x="1228" 
d="M1043 46h172v-331h-48v285h-173v718h-817v-718h-50v1443h50v-678h817v678h49v-1397z" />
    <glyph glyph-name="uni04A3" unicode="&#x4a3;" horiz-adv-x="1003" 
d="M822 45h158v-324h-47v279h-160v523h-604v-523h-49v1053h49v-486h604v486h49v-1008z" />
    <glyph glyph-name="uni04A4" unicode="&#x4a4;" horiz-adv-x="1763" 
d="M1711 1443v-46h-668v-1397h-49v718h-817v-718h-50v1443h50v-678h817v678h717z" />
    <glyph glyph-name="uni04A5" unicode="&#x4a5;" horiz-adv-x="1379" 
d="M1335 1053v-45h-513v-1008h-49v523h-604v-523h-49v1053h49v-486h604v486h562z" />
    <glyph glyph-name="uni04A6" unicode="&#x4a6;" horiz-adv-x="1817" 
d="M127 1443h847v-725h7q52 53 138.5 92.5t201.5 39.5q195 0 302.5 -116t107.5 -315q0 -194 -94.5 -311.5t-256.5 -117.5q-70 0 -90 10v47q18 -9 89 -9q136 0 219 104t83 277q0 179 -96 282t-265 103q-85 0 -162 -29t-118 -60t-66 -62v-653h-49v1396h-748v-1396h-50v1443z
" />
    <glyph glyph-name="uni04A7" unicode="&#x4a7;" horiz-adv-x="1484" 
d="M120 1053h694v-585h7q47 56 118.5 89.5t153.5 33.5q156 0 246 -113.5t90 -309.5q0 -203 -89.5 -323.5t-239.5 -120.5q-63 0 -90 11v45q23 -8 87 -8q128 0 205.5 107.5t77.5 287.5q0 174 -78 276t-211 102q-82 0 -157.5 -39.5t-119.5 -100.5v-405h-49v1007h-596v-1007h-49
v1053z" />
    <glyph glyph-name="uni04A8" unicode="&#x4a8;" horiz-adv-x="1658" 
d="M761 770q0 -208 89.5 -380t242.5 -276q167 95 266 278.5t99 396.5q0 205 -97 335t-252 130q-153 0 -250.5 -135.5t-97.5 -348.5zM1622 90l21 -41q-113 -71 -257 -71q-167 0 -296 81q-151 -80 -340 -80q-317 0 -498 200t-181 544q0 301 147.5 502.5t395.5 239.5v-47
q-225 -39 -359 -227.5t-134 -464.5q0 -321 170 -510.5t460 -189.5q159 0 294 64q-154 113 -243.5 284.5t-89.5 394.5q0 241 109.5 386.5t287.5 145.5q179 0 288.5 -141t109.5 -371q0 -218 -100 -407t-269 -295q114 -63 250 -63t234 66z" />
    <glyph glyph-name="uni04A9" unicode="&#x4a9;" horiz-adv-x="1374" 
d="M640 597q0 -150 71 -277t196 -210q132 78 205.5 204t73.5 283q0 155 -76 252t-197 97q-119 0 -196 -98.5t-77 -250.5zM1339 51l12 -42q-69 -29 -181 -29q-143 0 -265 74q-130 -73 -298 -73q-248 0 -389.5 151.5t-141.5 415.5q0 224 107 373t288 177v-46
q-155 -28 -250 -165t-95 -333q0 -246 130.5 -387t357.5 -141q137 0 246 58q-126 90 -197.5 223t-71.5 290q0 176 89 285.5t233 109.5t233 -109t89 -286q0 -167 -73 -297t-209 -217q107 -58 218 -58q96 0 168 26z" />
    <glyph glyph-name="uni04AA" unicode="&#x4aa;" horiz-adv-x="1141" 
d="M1077 978h-48q-17 189 -135.5 314t-286.5 125q-226 0 -353 -182.5t-127 -502.5q0 -329 128 -517.5t352 -188.5q174 0 290 113.5t132 301.5h48q-16 -203 -139 -329t-314 -132l-44 -115q87 -2 137.5 -42.5t50.5 -116.5t-54.5 -121.5t-144.5 -45.5q-64 0 -107 16v44
q40 -17 105 -17q68 0 111 34.5t43 88.5q0 57 -39.5 87.5t-113.5 30.5h-37v33l48 125q-235 11 -368.5 211t-133.5 540q0 345 140.5 538t389.5 193q189 0 321 -137t149 -348z" />
    <glyph glyph-name="uni04AB" unicode="&#x4ab;" horiz-adv-x="896" 
d="M829 743h-49q-22 126 -105.5 203t-204.5 77q-162 0 -254.5 -133t-92.5 -364t92.5 -363.5t254.5 -132.5q122 0 205 74t104 196h49q-21 -141 -111 -224.5t-227 -90.5l-46 -120q87 -2 137.5 -42.5t50.5 -116.5t-54.5 -121.5t-144.5 -45.5q-64 0 -107 16v44q40 -17 105 -17
q68 0 111 34.5t43 88.5q0 57 -39.5 87.5t-113.5 30.5h-37v33l50 130q-175 10 -273 151.5t-98 388.5q0 256 105.5 399t290.5 143q143 0 240 -88.5t119 -236.5z" />
    <glyph glyph-name="uni04AC" unicode="&#x4ac;" horiz-adv-x="1016" 
d="M987 1397h-454v-1351h172v-331h-48v285h-174v1397h-454v46h958v-46z" />
    <glyph glyph-name="uni04AD" unicode="&#x4ad;" horiz-adv-x="807" 
d="M771 1007h-343v-962h158v-324h-48v279h-159v1007h-343v46h735v-46z" />
    <glyph glyph-name="uni04AE" unicode="&#x4ae;" horiz-adv-x="1027" 
d="M539 0h-49v631l-464 812h57l430 -755h4l428 755h56l-462 -812v-631z" />
    <glyph glyph-name="uni04AF" unicode="&#x4af;" horiz-adv-x="803" 
d="M734 1053h53l-362 -1068v-321h-47v321l-362 1068h53l331 -990h4z" />
    <glyph glyph-name="uni04B0" unicode="&#x4b0;" horiz-adv-x="1027" 
d="M1001 1443l-450 -791h341v-45h-353v-607h-49v607h-354v45h342l-452 791h57l430 -755h4l427 755h57z" />
    <glyph glyph-name="uni04B1" unicode="&#x4b1;" horiz-adv-x="803" 
d="M787 1053l-357 -1054h234v-43h-239v-292h-47v292h-236v43h231l-357 1054h53l331 -990h4l330 990h53z" />
    <glyph glyph-name="uni04B2" unicode="&#x4b2;" horiz-adv-x="1136" 
d="M990 46h141v-331h-48v285h-121l-428 676h-1l-429 -676h-57l458 722v1l-457 720h57l430 -676h1l428 676h57l-457 -722z" />
    <glyph glyph-name="uni04B3" unicode="&#x4b3;" horiz-adv-x="853" 
d="M743 45h105v-324h-48v279h-85l-319 492h-2l-319 -492h-56l347 537l-347 516h59l317 -476h2l317 476h58l-347 -516z" />
    <glyph glyph-name="uni04B4" unicode="&#x4b4;" horiz-adv-x="1544" 
d="M1360 46h171v-331h-48v285h-1031v1397h-423v46h897v-46h-424v-1351h808v1397h50v-1397z" />
    <glyph glyph-name="uni04B5" unicode="&#x4b5;" horiz-adv-x="1195" 
d="M1015 45h158v-324h-47v279h-804v1007h-286v46h688v-46h-353v-962h595v1008h49v-1008z" />
    <glyph glyph-name="uni04B6" unicode="&#x4b6;" horiz-adv-x="1122" 
d="M938 46h171v-331h-48v285h-173v719h-3q-53 -50 -144 -88t-212 -38q-201 0 -316 116t-115 319v415h49v-408q0 -187 104.5 -291t278.5 -104q127 0 221.5 46t136.5 94v663h50v-1397z" />
    <glyph glyph-name="uni04B7" unicode="&#x4b7;" horiz-adv-x="933" 
d="M752 45h158v-324h-48v279h-159v506h-7q-43 -43 -111.5 -71.5t-153.5 -28.5q-168 0 -255 95t-87 259v293h49v-292q0 -143 76 -226t219 -83q165 0 270 120v481h49v-1008z" />
    <glyph glyph-name="uni04B8" unicode="&#x4b8;" horiz-adv-x="1065" 
d="M889 1443h49v-1443h-49v719h-3q-48 -46 -135 -84t-202 -42v-343h-46v343q-190 8 -297.5 124.5t-107.5 313.5v412h49v-406q0 -178 95.5 -283.5t260.5 -113.5v398h46v-399q124 5 215 51.5t125 89.5v663z" />
    <glyph glyph-name="uni04B9" unicode="&#x4b9;" horiz-adv-x="872" 
d="M703 1053h49v-1053h-49v506h-7q-41 -41 -106 -69t-145 -31v-254h-44v255q-153 9 -232.5 103t-79.5 250v293h49v-292q0 -135 67.5 -216.5t195.5 -91.5v346h44v-347q157 4 258 120v481z" />
    <glyph glyph-name="uni04BA" unicode="&#x4ba;" horiz-adv-x="1076" 
d="M127 1443h50v-712h3q55 54 148.5 96.5t223.5 42.5q189 0 302 -118t113 -318v-434h-49v427q0 187 -101.5 291.5t-265.5 104.5q-73 0 -139.5 -17t-113 -43t-75 -48.5t-46.5 -43.5v-671h-50v1443z" />
    <glyph glyph-name="uni04BB" unicode="&#x4bb;" horiz-adv-x="944" 
d="M120 0v1443h49v-608h3q29 104 117 168.5t207 64.5q155 0 246.5 -96.5t91.5 -265.5v-706h-49v703q0 150 -79.5 235t-216.5 85q-143 0 -231.5 -103.5t-88.5 -262.5v-657h-49z" />
    <glyph glyph-name="uni04BC" unicode="&#x4bc;" horiz-adv-x="1377" 
d="M323 801h935q-2 282 -125.5 448.5t-333.5 166.5q-207 0 -332.5 -163.5t-143.5 -451.5zM322 754v-44q-1 -314 135 -498.5t371 -184.5q141 0 249.5 78.5t158.5 216.5h49q-46 -158 -169 -250.5t-289 -92.5q-261 0 -408.5 195.5t-147.5 538.5q0 27 1 41h-7q-118 0 -177 57
t-59 162q0 20 2.5 41.5t6.5 37.5t9.5 33.5t9 27.5t8.5 21t5 12h45l-8 -21q-8 -21 -14 -40t-11.5 -50.5t-5.5 -60.5q0 -84 47.5 -129t143.5 -45h6q18 311 156 487.5t370 176.5q235 0 373 -181t138 -488v-41h-988z" />
    <glyph glyph-name="uni04BD" unicode="&#x4bd;" horiz-adv-x="1080" 
d="M280 568h678q0 206 -91.5 330.5t-243.5 124.5q-151 0 -243 -122.5t-100 -332.5zM279 523v-1q0 -236 94 -364t258 -128q129 0 211.5 72t103.5 190h50q-24 -141 -120 -224t-246 -83q-187 0 -293 139.5t-107 399.5q-100 6 -151 57t-51 141q0 68 39 162h45q-39 -84 -39 -161
q0 -143 158 -155q9 234 113.5 367t278.5 133q176 0 280 -136.5t104 -369.5v-39h-728z" />
    <glyph glyph-name="uni04BE" unicode="&#x4be;" horiz-adv-x="1377" 
d="M323 801h935q-2 282 -125.5 448.5t-333.5 166.5q-207 0 -332.5 -163.5t-143.5 -451.5zM322 754v-44q-1 -314 135 -498.5t371 -184.5q141 0 249.5 78.5t158.5 216.5h49q-45 -154 -163.5 -246.5t-279.5 -96.5v-264h-47v265q-247 12 -385.5 206.5t-138.5 526.5q0 27 1 41h-7
q-118 0 -177 57t-59 162q0 20 2.5 41.5t6.5 37.5t9.5 33.5t9 27.5t8.5 21t5 12h45l-8 -21q-8 -21 -14 -40t-11.5 -50.5t-5.5 -60.5q0 -84 47.5 -129t143.5 -45h6q18 311 156 487.5t370 176.5q235 0 373 -181t138 -488v-41h-988z" />
    <glyph glyph-name="uni04BF" unicode="&#x4bf;" horiz-adv-x="1080" 
d="M280 568h678q0 206 -91.5 330.5t-243.5 124.5q-151 0 -243 -122.5t-100 -332.5zM279 523v-1q0 -236 94 -364t258 -128q129 0 211.5 72t103.5 190h50q-23 -138 -115.5 -220.5t-237.5 -86.5v-270h-46v271q-172 12 -269 151t-98 387q-100 6 -151 57t-51 141q0 68 39 162h45
q-39 -84 -39 -161q0 -143 158 -155q9 234 113.5 367t278.5 133q176 0 280 -136.5t104 -369.5v-39h-728z" />
    <glyph glyph-name="uni04C0" unicode="&#x4c0;" horiz-adv-x="304" 
d="M177 0h-50v1443h50v-1443z" />
    <glyph glyph-name="uni04C1" unicode="&#x4c1;" horiz-adv-x="1563" 
d="M965 1771h43q-1 -101 -63.5 -159.5t-164.5 -58.5t-165 58.5t-64 159.5h43q0 -77 51 -126t135 -49t134.5 49t50.5 126zM858 745l684 -745h-68l-664 723h-4v-723h-49v723h-4l-664 -723h-68l683 744l-638 699h67l620 -684h4v684h49v-684h4l620 684h65z" />
    <glyph glyph-name="uni04C2" unicode="&#x4c2;" horiz-adv-x="1198" 
d="M792 1487h45q0 -112 -61 -174.5t-169 -62.5t-169 62.5t-61 174.5h45q0 -94 49 -145t136 -51t136 51.5t49 144.5zM671 550l505 -550h-69l-483 527h-2v-527h-49v527h-2l-483 -527h-67l505 547l-480 506h66l459 -488h2v488h49v-488h2l459 488h66z" />
    <glyph glyph-name="uni04C3" unicode="&#x4c3;" horiz-adv-x="996" 
d="M261 757l2 1q292 -9 462.5 -175t170.5 -446q0 -222 -108.5 -361.5t-282.5 -139.5q-25 0 -47 5v46q21 -4 43 -4q153 0 249 126.5t96 326.5q0 270 -170 426t-462 156h-37v-718h-50v1443h50v-682h27l659 682h66z" />
    <glyph glyph-name="uni04C4" unicode="&#x4c4;" horiz-adv-x="799" 
d="M368 -305q-34 0 -50 2v47q17 -4 50 -4q143 0 238.5 109t95.5 272q0 177 -123 280.5t-345 103.5h-65v-505h-49v1053h49v-504h28l492 504h65l-495 -505v-1q234 -4 363 -120t129 -306q0 -184 -109 -305t-274 -121z" />
    <glyph glyph-name="uni04C5" unicode="&#x4c5;" horiz-adv-x="1167" 
d="M997 46h160v-11l-91 -320h-48l81 285h-151v1397h-597l-49 -947q-6 -108 -20 -188t-40.5 -143t-71 -95t-105.5 -32q-18 0 -50 8v46q1 0 8 -2t18 -3.5t22 -1.5q91 0 135 106.5t54 311.5l52 986h693v-1397z" />
    <glyph glyph-name="uni04C6" unicode="&#x4c6;" horiz-adv-x="988" 
d="M826 45h156v-11l-88 -313h-48l78 279h-147v1007h-478q-16 -334 -34 -573q-5 -68 -11 -116.5t-15.5 -103.5t-23.5 -91.5t-34 -68t-49 -47t-66 -15.5q-28 0 -48 8v46q32 -8 47 -8q39 0 66.5 29t44.5 88t26 123.5t16 160.5q21 265 36 614h572v-1008z" />
    <glyph glyph-name="uni04C7" unicode="&#x4c7;" horiz-adv-x="1170" 
d="M994 1443h49v-1543q0 -130 -56.5 -190.5t-167.5 -60.5l-18 1v45h15q93 0 135.5 48.5t42.5 155.5v819h-817v-718h-50v1443h50v-678h817v678z" />
    <glyph glyph-name="uni04C8" unicode="&#x4c8;" horiz-adv-x="942" 
d="M773 1053h49v-1150q0 -129 -56.5 -187t-172.5 -58h-27v45h24q97 0 140 46.5t43 152.5v621h-604v-523h-49v1053h49v-486h604v486z" />
    <glyph glyph-name="uni04C9" unicode="&#x4c9;" horiz-adv-x="1213" 
d="M1043 46h160v-11l-91 -320h-48l81 285h-151v718h-817v-718h-50v1443h50v-678h817v678h49v-1397z" />
    <glyph glyph-name="uni04CA" unicode="&#x4ca;" horiz-adv-x="985" 
d="M822 45h157v-11l-88 -313h-48l78 279h-148v523h-604v-523h-49v1053h49v-486h604v486h49v-1008z" />
    <glyph glyph-name="uni04CB" unicode="&#x4cb;" horiz-adv-x="1065" 
d="M888 1443h50v-1443h-174v-285h-48v331h172v673h-3q-53 -50 -144 -88t-212 -38q-201 0 -316 116t-115 319v415h49v-408q0 -187 104.5 -291t278.5 -104q127 0 221.5 46t136.5 94v663z" />
    <glyph glyph-name="uni04CC" unicode="&#x4cc;" horiz-adv-x="872" 
d="M703 1053h49v-1053h-159v-279h-48v324h158v463h-7q-42 -44 -111.5 -73t-154.5 -29q-167 0 -254 95t-87 259v293h49v-292q0 -143 76 -226t218 -83q166 0 271 122v479z" />
    <glyph glyph-name="uni04CD" unicode="&#x4cd;" horiz-adv-x="1469" 
d="M1298 46h160v-11l-91 -320h-48l81 285h-151v1341h-4l-505 -1341h-55l-505 1341h-4v-1341h-49v1443h63l521 -1376h3l519 1376h65v-1397z" />
    <glyph glyph-name="uni04CE" unicode="&#x4ce;" horiz-adv-x="1238" 
d="M1075 45h157v-11l-89 -313h-47l78 279h-148v947h-3l-405 -945h-40l-406 945h-3v-947h-49v1053h57l421 -982h3l418 982h56v-1008z" />
    <glyph glyph-name="uni04CF" unicode="&#x4cf;" horiz-adv-x="288" 
d="M119 0v1443h49v-1443h-49z" />
    <glyph glyph-name="uni04D0" unicode="&#x4d0;" horiz-adv-x="1090" 
d="M1002 0l-162 484h-591l-161 -484h-54l485 1443h52l485 -1443h-54zM542 1370l-277 -840h560l-279 840h-4zM319 1771h44q0 -84 50.5 -130.5t134.5 -46.5t134.5 46.5t50.5 130.5h44q0 -104 -62 -160.5t-167 -56.5t-167 56.5t-62 160.5z" />
    <glyph glyph-name="uni04D1" unicode="&#x4d1;" horiz-adv-x="897" 
d="M399 30q141 0 239 97.5t98 235.5v205l-289 -31q-157 -21 -235 -84.5t-78 -179.5q0 -110 76 -176.5t189 -66.5zM394 -15q-135 0 -222 78.5t-87 208.5q0 136 88 210t266 98l297 31v111q0 145 -72 223t-200 78t-206 -69.5t-93 -204.5h-48q13 153 105 236t242 83t235.5 -90
t85.5 -253v-725h-48v211h-2q-33 -99 -127 -162.5t-214 -63.5zM229 1487h44q0 -94 49 -145t136 -51t136 51.5t49 144.5h45q0 -112 -60.5 -174.5t-169.5 -62.5q-108 0 -168.5 62.5t-60.5 174.5z" />
    <glyph glyph-name="uni04D2" unicode="&#x4d2;" horiz-adv-x="1090" 
d="M1002 0l-162 484h-591l-161 -484h-54l485 1443h52l485 -1443h-54zM542 1370l-277 -840h560l-279 840h-4zM421 1595q-21 0 -36.5 15t-15.5 36t15.5 36t36.5 15t36 -14.5t15 -36.5q0 -21 -15 -36t-36 -15zM669 1595q-20 0 -35.5 15t-15.5 36t15 36t36 15t36.5 -15t15.5 -36
t-15.5 -36t-36.5 -15z" />
    <glyph glyph-name="uni04D3" unicode="&#x4d3;" horiz-adv-x="900" 
d="M401 30q141 0 239 97.5t98 235.5v205l-289 -31q-157 -21 -235 -84.5t-78 -179.5q0 -110 76 -176.5t189 -66.5zM396 -15q-136 0 -223 78.5t-87 208.5q0 136 88 210t267 98l297 31v111q0 145 -72 223t-200 78t-206.5 -69t-93.5 -205h-47q13 153 105 236t242 83t235.5 -90
t85.5 -253v-725h-49v211h-2q-33 -99 -126.5 -162.5t-213.5 -63.5zM341 1245q-21 0 -36 15t-15 36q0 22 15 37t36 15t36.5 -15t15.5 -37q0 -21 -15.5 -36t-36.5 -15zM590 1245q-21 0 -36.5 15t-15.5 36q0 22 15.5 37t36.5 15t36 -15t15 -37q0 -21 -15 -36t-36 -15z" />
    <glyph glyph-name="uni04D4" unicode="&#x4d4;" horiz-adv-x="1621" 
d="M696 1397l-395 -882h563v882h-168zM864 0v468h-584l-199 -468h-53l638 1443h875v-46h-629v-634h597v-46h-597v-671h629v-46h-677z" />
    </font>
</defs>
</svg>
